<svg width="173" height="173" viewBox="0 0 173 173" fill="none" xmlns="http://www.w3.org/2000/svg">
<g filter="url(#filter0_d_1_1481)">
<rect x="48" y="44.3955" width="60" height="60" rx="8" transform="rotate(-19.8722 48 44.3955)" fill="#F6F6F6"/>
</g>
<g clip-path="url(#clip0_1_1481)">
<path d="M71.3353 49.8206C66.9396 51.4094 64.662 56.2829 66.2508 60.6786L72.018 76.6346C73.6068 81.0303 78.4741 83.3213 82.8698 81.7325L101.485 75.004C105.881 73.4152 108.158 68.5417 106.57 64.146L100.802 48.1901C99.2135 43.7944 94.3463 41.5034 89.9506 43.0922L71.3353 49.8206ZM72.2965 52.4799L90.9118 45.7515C93.8806 44.6784 97.0798 46.1789 98.1528 49.1477L103.92 65.1037C104.993 68.0725 103.493 71.2717 100.524 72.3447L81.9086 79.0732C78.9398 80.1462 75.7406 78.6457 74.6675 75.6769L68.9003 59.721C67.8272 56.7522 69.3277 53.553 72.2965 52.4799Z" fill="#F5185A"/>
<path d="M67.576 60.1998C67.2234 60.3273 66.9358 60.5896 66.7766 60.9291C66.6173 61.2686 66.5995 61.6574 66.7269 62.0101C66.8544 62.3627 67.1167 62.6503 67.4562 62.8095C67.7957 62.9688 68.1846 62.9866 68.5372 62.8592L100.439 51.3283C100.792 51.2008 101.079 50.9385 101.239 50.599C101.398 50.2595 101.416 49.8706 101.288 49.518C101.161 49.1653 100.899 48.8778 100.559 48.7185C100.22 48.5593 99.8307 48.5415 99.478 48.6689L67.576 60.1998ZM91.2572 47.1357C90.9112 47.2814 90.6372 47.5586 90.4955 47.9063C90.3539 48.254 90.3561 48.6438 90.5018 48.9898C90.6475 49.3359 90.9246 49.6099 91.2723 49.7516C91.62 49.8933 92.0098 49.8911 92.3558 49.7454L93.6806 49.2666C93.8552 49.2035 94.0157 49.1066 94.1528 48.9814C94.29 48.8563 94.4012 48.7054 94.48 48.5373C94.5589 48.3692 94.6038 48.1872 94.6123 48.0017C94.6208 47.8163 94.5927 47.6309 94.5296 47.4563C94.4665 47.2817 94.3696 47.1212 94.2445 46.9841C94.1194 46.8469 93.9684 46.7357 93.8003 46.6569C93.6322 46.578 93.4503 46.5331 93.2648 46.5246C93.0793 46.516 92.894 46.5441 92.7194 46.6073L91.3946 47.0861C91.348 47.1003 91.3021 47.1168 91.2572 47.1357L91.2572 47.1357ZM84.6138 49.537C84.2673 49.6814 83.9923 49.9575 83.8494 50.3046C83.7064 50.6517 83.7072 51.0414 83.8516 51.388C83.996 51.7345 84.2721 52.0095 84.6193 52.1524C84.9664 52.2954 85.3561 52.2946 85.7026 52.1502L87.0372 51.6678C87.2118 51.6047 87.3723 51.5078 87.5094 51.3827C87.6466 51.2576 87.7578 51.1066 87.8366 50.9385C87.9155 50.7704 87.9604 50.5885 87.9689 50.403C87.9775 50.2175 87.9493 50.0322 87.8862 49.8576C87.8231 49.6829 87.7262 49.5225 87.6011 49.3853C87.476 49.2481 87.325 49.137 87.157 49.0581C86.9889 48.9793 86.8069 48.9343 86.6214 48.9258C86.4359 48.9173 86.2506 48.9454 86.076 49.0085L84.7414 49.4909C84.6982 49.5042 84.6556 49.5196 84.6138 49.537Z" fill="#F5185A"/>
<path d="M79.5105 55.8636C79.337 55.9299 79.1783 56.0297 79.0434 56.1574C78.9085 56.285 78.8001 56.438 78.7244 56.6076C78.6486 56.7771 78.607 56.96 78.602 57.1456C78.5969 57.3313 78.6285 57.5161 78.6949 57.6895L86.381 78.9543C86.4441 79.1289 86.541 79.2894 86.6661 79.4266C86.7912 79.5637 86.9421 79.6749 87.1102 79.7538C87.2783 79.8326 87.4603 79.8776 87.6458 79.8861C87.8313 79.8946 88.0166 79.8665 88.1912 79.8034C88.3658 79.7403 88.5263 79.6434 88.6635 79.5182C88.8006 79.3931 88.9118 79.2422 88.9907 79.0741C89.0695 78.906 89.1145 78.724 89.123 78.5385C89.1315 78.353 89.1034 78.1677 89.0403 77.9931L81.3542 56.7283C81.2929 56.5484 81.196 56.3826 81.0692 56.241C80.9424 56.0993 80.7883 55.9847 80.6162 55.904C80.4441 55.8232 80.2575 55.7781 80.0675 55.7711C79.8775 55.7642 79.6881 55.7957 79.5105 55.8636Z" fill="#F5185A"/>
<path d="M84.344 69.1727L104.284 61.9655C106.057 61.3247 105.096 58.6654 103.323 59.3062L83.3828 66.5134L84.344 69.1727Z" fill="#F5185A"/>
<path d="M89.4811 52.26C89.3076 52.3263 89.1489 52.4261 89.014 52.5538C88.8791 52.6814 88.7707 52.8344 88.6949 53.004C88.6192 53.1736 88.5776 53.3564 88.5725 53.542C88.5675 53.7277 88.599 53.9125 88.6654 54.086L92.5067 64.7134C92.6342 65.0661 92.8965 65.3536 93.236 65.5129C93.5755 65.6721 93.9643 65.69 94.317 65.5625C94.6696 65.435 94.9572 65.1727 95.1164 64.8332C95.2756 64.4937 95.2935 64.1049 95.166 63.7522L91.3247 53.1248C91.2635 52.9448 91.1666 52.779 91.0398 52.6374C90.913 52.4957 90.7589 52.3811 90.5868 52.3004C90.4147 52.2196 90.228 52.1745 90.038 52.1675C89.8481 52.1606 89.6586 52.1921 89.4811 52.26ZM74.8168 63.5961C74.4642 63.7235 74.1766 63.9859 74.0174 64.3254C73.8581 64.6648 73.8403 65.0537 73.9678 65.4063C74.0952 65.759 74.3576 66.0465 74.697 66.2058C75.0365 66.365 75.4254 66.3829 75.778 66.2554L77.1028 65.7766C77.4554 65.6491 77.743 65.3868 77.9022 65.0473C78.0614 64.7078 78.0793 64.3189 77.9518 63.9663C77.8244 63.6136 77.562 63.3261 77.2225 63.1669C76.8831 63.0076 76.4942 62.9898 76.1416 63.1172L74.8168 63.5961ZM76.6018 68.9644C76.2558 69.1101 75.9818 69.3873 75.8402 69.735C75.6985 70.0827 75.7007 70.4724 75.8464 70.8184C75.9921 71.1645 76.2692 71.4385 76.6169 71.5802C76.9646 71.7219 77.3544 71.7197 77.7004 71.574L79.0252 71.0952C79.3778 70.9677 79.6654 70.7054 79.8246 70.3659C79.9839 70.0264 80.0017 69.6376 79.8742 69.2849C79.7468 68.9323 79.4844 68.6447 79.145 68.4855C78.8055 68.3263 78.4166 68.3084 78.064 68.4359L76.7392 68.9147C76.6926 68.9289 76.6467 68.9455 76.6018 68.9644L76.6018 68.9644ZM78.5242 74.283C78.1782 74.4287 77.9042 74.7059 77.7626 75.0536C77.6209 75.4013 77.6231 75.791 77.7688 76.1371C77.9145 76.4831 78.1917 76.7571 78.5393 76.8988C78.887 77.0405 79.2768 77.0383 79.6228 76.8927L80.9476 76.4138C81.3002 76.2864 81.5878 76.0241 81.747 75.6846C81.9063 75.3451 81.9241 74.9562 81.7966 74.6036C81.6692 74.2509 81.4069 73.9634 81.0674 73.8041C80.7279 73.6449 80.339 73.6271 79.9864 73.7545L78.6616 74.2334C78.615 74.2475 78.5692 74.2641 78.5242 74.283L78.5242 74.283ZM71.317 54.343C70.971 54.4887 70.697 54.7659 70.5553 55.1136C70.4136 55.4613 70.4159 55.851 70.5616 56.1971C70.7072 56.5431 70.9844 56.8171 71.3321 56.9588C71.6798 57.1005 72.0695 57.0983 72.4156 56.9527L73.7403 56.4738C73.9149 56.4107 74.0754 56.3138 74.2126 56.1887C74.3498 56.0636 74.4609 55.9127 74.5398 55.7446C74.6186 55.5765 74.6636 55.3945 74.6721 55.209C74.6806 55.0235 74.6525 54.8382 74.5894 54.6636C74.5263 54.489 74.4294 54.3285 74.3043 54.1913C74.1791 54.0542 74.0282 53.943 73.8601 53.8641C73.692 53.7853 73.51 53.7403 73.3246 53.7318C73.1391 53.7233 72.9537 53.7514 72.7791 53.8145L71.4544 54.2933C71.4078 54.3075 71.3619 54.3241 71.317 54.343L71.317 54.343Z" fill="#F5185A"/>
</g>
<defs>
<filter id="filter0_d_1_1481" x="0.240837" y="0.240967" width="172.341" height="172.341" filterUnits="userSpaceOnUse" color-interpolation-filters="sRGB">
<feFlood flood-opacity="0" result="BackgroundImageFix"/>
<feColorMatrix in="SourceAlpha" type="matrix" values="0 0 0 0 0 0 0 0 0 0 0 0 0 0 0 0 0 0 127 0" result="hardAlpha"/>
<feOffset dy="24"/>
<feGaussianBlur stdDeviation="25"/>
<feComposite in2="hardAlpha" operator="out"/>
<feColorMatrix type="matrix" values="0 0 0 0 0.0509804 0 0 0 0 0.0470588 0 0 0 0 0.219608 0 0 0 0.1 0"/>
<feBlend mode="normal" in2="BackgroundImageFix" result="effect1_dropShadow_1_1481"/>
<feBlend mode="normal" in="SourceGraphic" in2="effect1_dropShadow_1_1481" result="shape"/>
</filter>
<clipPath id="clip0_1_1481">
<rect width="48" height="48" fill="white" transform="translate(55.6826 47.9988) rotate(-19.8722)"/>
</clipPath>
</defs>
</svg>
