<svg width="171" height="171" viewBox="0 0 171 171" fill="none" xmlns="http://www.w3.org/2000/svg">
<g filter="url(#filter0_d_1_1473)">
<g filter="url(#filter1_d_1_1473)">
<rect x="63.5674" y="25" width="60" height="60" rx="8" transform="rotate(14.0509 63.5674 25)" fill="#F6F6F6"/>
</g>
<g clip-path="url(#clip0_1_1473)">
<path d="M75.4455 57.3227C71.7159 56.3893 67.8484 58.8016 66.915 62.5311L65.5423 68.0159C64.6089 71.7454 66.8842 75.6952 70.6137 76.6286L83.009 79.7308C86.7386 80.6642 90.6061 78.2518 91.5395 74.5222L92.9122 69.0375C93.8456 65.3079 91.5703 61.3583 87.8407 60.4249L75.4455 57.3227ZM74.7317 60.1747L87.127 63.2769C89.4305 63.8534 90.7464 66.0476 90.1699 68.3511L88.7972 73.8359C88.2207 76.1394 85.9989 77.5649 83.6954 76.9884L71.3001 73.8862C68.9965 73.3097 67.7082 71.0057 68.2847 68.7022L69.6573 63.2174C70.2339 60.9139 72.4282 59.5982 74.7317 60.1747Z" fill="#F5185A"/>
<path d="M75.4993 63.1642C75.033 63.1642 74.6766 63.1912 74.4022 63.356L70.9735 65.412C70.2878 65.8233 70.0682 66.7007 70.4794 67.3864L72.5354 70.8151C73.5222 72.4609 75.9908 70.9807 75.004 69.3349L73.5785 67.113L75.8825 65.8247C76.9796 65.1668 76.7058 63.4663 75.4992 63.1644L75.4993 63.1642ZM85.0425 65.5526C83.8359 65.2506 82.7934 66.6216 83.4513 67.7188L84.8769 69.9405L82.5728 71.2288C81.0368 72.2432 82.4074 74.6844 84.0531 73.6975L87.4818 71.6415C88.1675 71.2303 88.3871 70.3529 87.9759 69.6671L85.92 66.2384C85.7554 65.9643 85.4813 65.6623 85.0426 65.5524L85.0425 65.5526Z" fill="#F5185A"/>
<path d="M85.0207 42.351C81.2911 41.4176 77.4511 43.7203 76.5177 47.4498L73.7724 58.419C73.3057 60.2839 76.048 60.9702 76.5147 59.1054L79.26 48.1362C79.8365 45.8326 82.0583 44.4071 84.3618 44.9836L99.4994 48.7721C101.803 49.3487 103.091 51.6527 102.515 53.9562L98.3969 70.41C97.8204 72.7136 95.5986 74.1392 93.295 73.5627L90.5527 72.8764C88.6879 72.4097 88.0016 75.1519 89.8664 75.6186L92.6087 76.3049C96.3383 77.2383 100.206 74.8259 101.139 71.0963L105.257 54.6425C106.191 50.913 103.888 47.0729 100.158 46.1395L85.0207 42.351Z" fill="#F5185A"/>
<path d="M83.6761 47.7258C81.921 47.2865 81.2346 50.0289 82.9897 50.4682L84.4157 50.8251C86.1708 51.2643 86.8572 48.5219 85.1021 48.0827L83.6761 47.7258ZM90.5867 49.4553C88.7219 48.9886 88.0356 51.731 89.9004 52.1977L98.1273 54.2567C99.8824 54.6959 100.569 51.9536 98.8137 51.5143L90.5867 49.4553ZM96.015 56.642C94.2599 56.2028 93.5736 58.9452 95.3287 59.3844L96.7547 59.7413C98.5098 60.1805 99.1961 57.4382 97.441 56.9989L96.015 56.642ZM85.0457 53.8967C83.2907 53.4575 82.6043 56.1999 84.3594 56.6391L89.844 58.0118C91.7088 58.4785 92.3952 55.7361 90.5304 55.2694L85.0457 53.8967ZM80.8744 64.5092C80.1888 64.4543 79.6402 64.7832 79.3933 65.3042L76.5946 70.4319C75.4698 72.1319 78.2393 73.6409 79.0625 71.7488L81.8612 66.6211C82.3002 65.7985 81.8617 64.7563 80.8744 64.5092Z" fill="#F5185A"/>
</g>
</g>
<defs>
<filter id="filter0_d_1_1473" x="46.7014" y="26.7009" width="77.3698" height="77.3699" filterUnits="userSpaceOnUse" color-interpolation-filters="sRGB">
<feFlood flood-opacity="0" result="BackgroundImageFix"/>
<feColorMatrix in="SourceAlpha" type="matrix" values="0 0 0 0 0 0 0 0 0 0 0 0 0 0 0 0 0 0 127 0" result="hardAlpha"/>
<feOffset dy="4"/>
<feGaussianBlur stdDeviation="2"/>
<feComposite in2="hardAlpha" operator="out"/>
<feColorMatrix type="matrix" values="0 0 0 0 0 0 0 0 0 0 0 0 0 0 0 0 0 0 0.25 0"/>
<feBlend mode="normal" in2="BackgroundImageFix" result="effect1_dropShadow_1_1473"/>
<feBlend mode="normal" in="SourceGraphic" in2="effect1_dropShadow_1_1473" result="shape"/>
</filter>
<filter id="filter1_d_1_1473" x="0.701385" y="0.700928" width="169.37" height="169.37" filterUnits="userSpaceOnUse" color-interpolation-filters="sRGB">
<feFlood flood-opacity="0" result="BackgroundImageFix"/>
<feColorMatrix in="SourceAlpha" type="matrix" values="0 0 0 0 0 0 0 0 0 0 0 0 0 0 0 0 0 0 127 0" result="hardAlpha"/>
<feOffset dy="24"/>
<feGaussianBlur stdDeviation="25"/>
<feComposite in2="hardAlpha" operator="out"/>
<feColorMatrix type="matrix" values="0 0 0 0 0.0509804 0 0 0 0 0.0470588 0 0 0 0 0.219608 0 0 0 0.1 0"/>
<feBlend mode="normal" in2="BackgroundImageFix" result="effect1_dropShadow_1_1473"/>
<feBlend mode="normal" in="SourceGraphic" in2="effect1_dropShadow_1_1473" result="shape"/>
</filter>
<clipPath id="clip0_1_1473">
<rect width="48" height="48" fill="white" transform="translate(67.9316 32.2771) rotate(14.0509)"/>
</clipPath>
</defs>
</svg>
