<svg width="425" height="363" viewBox="0 0 425 363" fill="none" xmlns="http://www.w3.org/2000/svg">
<g clip-path="url(#clip0_1_447)">
<path d="M210.4 362.66C317.482 362.66 404.29 357.592 404.29 351.34C404.29 345.088 317.482 340.02 210.4 340.02C103.318 340.02 16.51 345.088 16.51 351.34C16.51 357.592 103.318 362.66 210.4 362.66Z" fill="#F5F5F5"/>
<path d="M198.79 282.8H5.7C2.55 282.8 0 280.24 0 277.09V5.66C0.03 2.53 2.57 0 5.7 0H198.79C201.94 0 204.5 2.56 204.5 5.71V277.09C204.5 280.24 201.94 282.8 198.79 282.8ZM5.7 0.2C2.69 0.21 0.25 2.65 0.25 5.66V277.09C0.25 280.1 2.69 282.54 5.7 282.55H198.79C201.8 282.55 204.24 280.1 204.25 277.09V5.66C204.25 2.65 201.8 0.21 198.79 0.2H5.7Z" fill="#E6E6E6"/>
<path d="M415.1 282.8H222C218.85 282.8 216.3 280.24 216.29 277.09V5.66C216.32 2.53 218.87 0.01 222 0H415.1C418.23 0.01 420.76 2.53 420.79 5.66V277.09C420.79 280.24 418.25 282.79 415.1 282.8ZM222 0.2C218.99 0.2 216.55 2.65 216.54 5.66V277.09C216.54 280.1 218.99 282.54 222 282.55H415.1C418.11 282.55 420.55 280.1 420.56 277.09V5.66C420.56 2.65 418.11 0.21 415.1 0.2H222Z" fill="#E6E6E6"/>
<path d="M55.4004 333.48H14.1904V333.73H55.4004V333.48Z" fill="#E0E0E0"/>
<path d="M139.4 331.48H98.0704V331.73H139.4V331.48Z" fill="#E0E0E0"/>
<path d="M193.181 331.48H183.181V331.73H193.181V331.48Z" fill="#E0E0E0"/>
<path d="M93.2304 340.02H46.9804V340.27H93.2304V340.02Z" fill="#E0E0E0"/>
<path d="M253.2 333.35H231.6V333.6H253.2V333.35Z" fill="#E0E0E0"/>
<path d="M290.03 333.35H262.1V333.6H290.03V333.35Z" fill="#E0E0E0"/>
<path d="M424.72 337.58H362.28V337.83H424.72V337.58Z" fill="#E0E0E0"/>
<path d="M372.84 55.49H325.23V88.76H372.84V55.49Z" fill="#E6E6E6"/>
<path d="M346.7 55.49H325.23V88.76H346.7V55.49Z" fill="#F0F0F0"/>
<path opacity="0.4" d="M335.94 60C339.86 60 343.03 63.17 343.03 67.09C343.03 71.01 339.86 74.18 335.94 74.18C332.02 74.18 328.85 71.01 328.85 67.09C328.85 63.17 332.02 60 335.94 60Z" fill="#E0E0E0"/>
<path d="M339.4 80.92C339.4 82.83 337.85 84.38 335.94 84.38C334.03 84.38 332.48 82.83 332.48 80.92C332.48 79.01 334.03 77.46 335.94 77.46C337.85 77.46 339.4 79.01 339.4 80.92Z" fill="#E0E0E0"/>
<path d="M335.89 69.6001C337.006 69.6001 337.91 68.6957 337.91 67.5801C337.91 66.4644 337.006 65.5601 335.89 65.5601C334.775 65.5601 333.87 66.4644 333.87 67.5801C333.87 68.6957 334.775 69.6001 335.89 69.6001Z" fill="#FAFAFA"/>
<path d="M271.19 43.5801H250.6V88.7801H271.19V43.5801Z" fill="#F0F0F0"/>
<path d="M297.95 43.5801H270.63V88.7801H297.95V43.5801Z" fill="#E6E6E6"/>
<path d="M260.82 57.9302C262.39 57.9302 263.67 59.2102 263.67 60.7802C263.67 62.3502 262.39 63.6302 260.82 63.6302C259.25 63.6302 257.97 62.3502 257.97 60.7802C257.97 59.2102 259.25 57.9302 260.82 57.9302Z" fill="white"/>
<path d="M260.82 53.4802C261.61 53.4802 262.25 54.1202 262.25 54.9102C262.25 55.7002 261.61 56.3402 260.82 56.3402C260.03 56.3402 259.39 55.7002 259.39 54.9102C259.39 54.1202 260.03 53.4802 260.82 53.4802Z" fill="white"/>
<path d="M260.82 49.1602C261.61 49.1602 262.25 49.8002 262.25 50.5902C262.25 51.3802 261.61 52.0202 260.82 52.0202C260.03 52.0202 259.39 51.3802 259.39 50.5902C259.39 49.8002 260.03 49.1602 260.82 49.1602Z" fill="white"/>
<path d="M297.46 68.9302H251.06V69.6402H297.46V68.9302Z" fill="#E0E0E0"/>
<path d="M297.46 72.9402H251.06V73.6502H297.46V72.9402Z" fill="#E0E0E0"/>
<path d="M297.46 76.9502H251.06V77.6602H297.46V76.9502Z" fill="#E0E0E0"/>
<path d="M297.46 80.9602H251.06V81.6702H297.46V80.9602Z" fill="#E0E0E0"/>
<path d="M297.46 84.9702H251.06V85.6802H297.46V84.9702Z" fill="#E0E0E0"/>
<path d="M261.31 70.1501H259.35V72.1101H261.31V70.1501Z" fill="#E0E0E0"/>
<path d="M261.31 74.3701H259.35V76.3301H261.31V74.3701Z" fill="#E0E0E0"/>
<path d="M261.31 78.1702H259.35V80.1302H261.31V78.1702Z" fill="#E0E0E0"/>
<path d="M261.31 82.27H259.35V84.23H261.31V82.27Z" fill="#E0E0E0"/>
<path d="M261.31 86.25H259.35V88.21H261.31V86.25Z" fill="#E0E0E0"/>
<path d="M211.26 133.29H210.26V94.9902C210.26 90.6902 213.76 87.1902 218.06 87.1902H251.06V88.1902H218.06C214.31 88.1902 211.26 91.2402 211.26 94.9902V133.29Z" fill="#E0E0E0"/>
<path d="M209.26 133.34H208.26V94.7C208.26 89.48 212.5 85.24 217.72 85.24H251.06V86.24H217.72C213.06 86.24 209.26 90.03 209.26 94.7V133.34Z" fill="#E0E0E0"/>
<path d="M99.77 37.2698H68.46V70.5998H99.77V37.2698Z" fill="#E6E6E6"/>
<path d="M107.79 37.2698H99.7704V70.5998H107.79V37.2698Z" fill="#F5F5F5"/>
<path d="M83.77 32.1299H60.25V70.5999H83.77V32.1299Z" fill="#E6E6E6"/>
<path d="M90.5597 32.1299H83.7597V70.5999H90.5597V32.1299Z" fill="#F5F5F5"/>
<path d="M76.8397 37.2698H57.0097V70.5998H76.8397V37.2698Z" fill="#EBEBEB"/>
<path d="M81.37 37.2698H76.84V70.5998H81.37V37.2698Z" fill="#F5F5F5"/>
<path d="M60.6095 42.9099H34.5995V70.5999H60.6095V42.9099Z" fill="#E6E6E6"/>
<path d="M67.2703 42.9099H60.6103V70.5999H67.2703V42.9099Z" fill="#F5F5F5"/>
<path d="M47.32 38.6399H27.78V70.5999H47.32V38.6399Z" fill="#E6E6E6"/>
<path d="M52.9605 38.6399H47.3105V70.5999H52.9605V38.6399Z" fill="#F5F5F5"/>
<path d="M41.56 42.9099H22.58V70.5999H41.56V42.9099Z" fill="#E6E6E6"/>
<path d="M45.33 42.9099H41.57V70.5999H45.33V42.9099Z" fill="#F0F0F0"/>
<path d="M0.400391 80.23L204.4 80.23V70.58L0.400391 70.58V80.23Z" fill="#E6E6E6"/>
<path d="M37.0009 80.46H48.2909L40.0709 92.87H37.0009V80.46Z" fill="#E0E0E0"/>
<path d="M37.0109 80.46H35.3809V92.87H37.0109V80.46Z" fill="#E0E0E0"/>
<path d="M163.71 80.46H174.99L166.77 92.87H163.71V80.46Z" fill="#E0E0E0"/>
<path d="M163.71 80.46H162.08V92.87H163.71V80.46Z" fill="#E0E0E0"/>
<path d="M420.63 88.78H216.63V98.43H420.63V88.78Z" fill="#E6E6E6"/>
<path d="M384.02 111.06H380.96L372.74 98.6501H384.02V111.06Z" fill="#E0E0E0"/>
<path d="M385.651 98.6501H384.021V111.06H385.651V98.6501Z" fill="#E0E0E0"/>
<path d="M257.31 111.06H254.25L246.03 98.6501H257.31V111.06Z" fill="#E0E0E0"/>
<path d="M258.941 98.6501H257.311V111.06H258.941V98.6501Z" fill="#E0E0E0"/>
<path d="M157.85 51.1599C157.85 49.6899 157.63 48.2699 157.22 46.9299L160.93 43.6699L158.59 39.6199L153.91 41.1999C151.97 39.1299 149.44 37.6299 146.59 36.9699L145.62 32.1299H140.95L139.98 36.9699C137.13 37.6299 134.59 39.1299 132.65 41.1999L127.97 39.6199L125.63 43.6699L129.34 46.9299C128.93 48.2699 128.71 49.6899 128.71 51.1599C128.71 52.6299 128.93 54.0499 129.34 55.3899L125.63 58.6499L127.97 62.6999L132.65 61.1199C134.59 63.1899 137.12 64.6899 139.98 65.3499L140.95 70.1899H145.62L146.59 65.3499C149.44 64.6799 151.98 63.1799 153.91 61.1199L158.59 62.6999L160.93 58.6499L157.22 55.3899C157.63 54.0499 157.85 52.6299 157.85 51.1599ZM143.29 59.0199C139.11 59.0199 135.72 55.6299 135.72 51.4499C135.72 47.2699 139.11 43.8799 143.29 43.8799C147.47 43.8799 150.86 47.2699 150.86 51.4499C150.86 55.6299 147.47 59.0199 143.29 59.0199Z" fill="#F0F0F0"/>
<path d="M183.11 53.6099C182.6 52.7799 181.99 52.0599 181.31 51.4499L182.27 48.3399L179.57 46.8699L177.49 49.3699C175.69 48.8699 173.75 48.8999 171.92 49.5099L169.71 47.1199L167.09 48.7299L168.21 51.7799C166.84 53.1299 165.93 54.8499 165.55 56.6699L162.38 57.3899L162.46 60.4599L165.66 61.0199C165.89 61.9099 166.26 62.7799 166.76 63.6099C167.27 64.4399 167.88 65.1599 168.57 65.7699L167.61 68.8799L170.31 70.3499L172.39 67.8499C174.19 68.3499 176.13 68.3199 177.96 67.7099L180.17 70.0999L182.79 68.4899L181.67 65.4399C183.04 64.0799 183.95 62.3699 184.33 60.5399L187.5 59.8199L187.42 56.7499L184.22 56.1899C183.99 55.2999 183.62 54.4299 183.12 53.5999L183.11 53.6099ZM177.64 63.0299C175.29 64.4699 172.23 63.7299 170.79 61.3799C169.35 59.0299 170.09 55.9599 172.44 54.5299C174.79 53.0899 177.86 53.8299 179.29 56.1799C180.73 58.5299 179.99 61.5999 177.64 63.0299Z" fill="#F0F0F0"/>
<path d="M414.57 214.39H6.95V219.52H414.57V214.39Z" fill="#407BFF"/>
<path d="M31.2303 218.07V340.41H34.4103L38.4103 218.07H31.2303Z" fill="#407BFF"/>
<path d="M68.7703 222.07V335.41H71.9503L75.9503 222.07H68.7703Z" fill="#407BFF"/>
<path opacity="0.5" d="M68.7703 222.07V335.41H71.9503L75.9503 222.07H68.7703Z" fill="black"/>
<path d="M391.74 218.07V340.41H388.57L384.56 218.07H391.74Z" fill="#407BFF"/>
<path d="M354.21 222.07V335.41H351.03L347.03 222.07H354.21Z" fill="#407BFF"/>
<path opacity="0.5" d="M354.21 222.07V335.41H351.03L347.03 222.07H354.21Z" fill="black"/>
<path d="M398.99 225.01H23.7305L15.4305 219.52H407.29L398.99 225.01Z" fill="#407BFF"/>
<path opacity="0.5" d="M398.99 225.01H23.7305L15.4305 219.52H407.29L398.99 225.01Z" fill="black"/>
<path d="M33.7504 198.66V202.62C33.7504 203.29 34.0104 203.91 34.4804 204.39L37.6504 207.56C37.9404 207.85 38.2904 208.05 38.6804 208.17C39.9704 210.95 42.7904 212.89 46.0604 212.89H47.2504C51.7504 212.89 55.3904 209.24 55.3904 204.75V195.42H37.9104V196.18H36.2404C34.8604 196.18 33.7404 197.3 33.7404 198.68L33.7504 198.66ZM35.7504 198.66C35.7504 198.39 35.9704 198.16 36.2504 198.16H37.9204V204.73C37.9204 204.82 37.9304 204.91 37.9304 205L35.8904 202.97C35.8004 202.88 35.7404 202.75 35.7404 202.62V198.66H35.7504Z" fill="#407BFF"/>
<path opacity="0.5" d="M33.7504 198.66V202.62C33.7504 203.29 34.0104 203.91 34.4804 204.39L37.6504 207.56C37.9404 207.85 38.2904 208.05 38.6804 208.17C39.9704 210.95 42.7904 212.89 46.0604 212.89H47.2504C51.7504 212.89 55.3904 209.24 55.3904 204.75V195.42H37.9104V196.18H36.2404C34.8604 196.18 33.7404 197.3 33.7404 198.68L33.7504 198.66ZM35.7504 198.66C35.7504 198.39 35.9704 198.16 36.2504 198.16H37.9204V204.73C37.9204 204.82 37.9304 204.91 37.9304 205L35.8904 202.97C35.8004 202.88 35.7404 202.75 35.7404 202.62V198.66H35.7504Z" fill="white"/>
<path d="M59.5404 214.22H34.4004C32.7704 214.22 31.4404 212.74 31.4404 212.74H62.5004C62.5004 212.74 61.1704 214.22 59.5404 214.22Z" fill="#407BFF"/>
<path opacity="0.5" d="M59.5404 214.22H34.4004C32.7704 214.22 31.4404 212.74 31.4404 212.74H62.5004C62.5004 212.74 61.1704 214.22 59.5404 214.22Z" fill="white"/>
<path d="M397.761 202.03C397.631 198.06 394.611 197.09 390.661 196.64V195.19C390.661 194.84 390.371 194.57 390.021 194.57C390.021 194.57 390.021 194.57 390.011 194.57H376.391C376.041 194.56 375.741 194.83 375.721 195.19V214.1H390.661V212.03C394.611 211.59 397.641 206 397.761 202.03ZM390.661 209.59V199.09C393.561 199.52 395.561 199.91 395.141 202.81C394.801 205.13 392.981 209.25 390.661 209.59Z" fill="#407BFF"/>
<g opacity="0.5">
<path d="M397.761 202.03C397.631 198.06 394.611 197.09 390.661 196.64V195.19C390.661 194.84 390.371 194.57 390.021 194.57C390.021 194.57 390.021 194.57 390.011 194.57H376.391C376.041 194.56 375.741 194.83 375.721 195.19V214.1H390.661V212.03C394.611 211.59 397.641 206 397.761 202.03ZM390.661 209.59V199.09C393.561 199.52 395.561 199.91 395.141 202.81C394.801 205.13 392.981 209.25 390.661 209.59Z" fill="white"/>
</g>
<path d="M216.29 190H204.5V213.95H216.29V190Z" fill="#407BFF"/>
<path opacity="0.5" d="M216.29 190H204.5V213.95H216.29V190Z" fill="white"/>
<path d="M221.61 214.38H199.28L204.72 209.59H216.17L221.61 214.38Z" fill="#407BFF"/>
<path opacity="0.5" d="M221.61 214.38H199.28L204.72 209.59H216.17L221.61 214.38Z" fill="white"/>
<path d="M270.72 206.63H214.88L224.97 214.41H280.8L270.72 206.63Z" fill="#407BFF"/>
<path opacity="0.4" d="M270.72 206.63H214.88L224.97 214.41H280.8L270.72 206.63Z" fill="white"/>
<path d="M216.17 214.41L214.88 206.63L224.97 214.41H216.17Z" fill="#407BFF"/>
<path opacity="0.5" d="M216.17 214.41L214.88 206.63L224.97 214.41H216.17Z" fill="black"/>
<path d="M260.92 133.31H159.29C158.224 133.31 157.36 134.174 157.36 135.24V197.56C157.36 198.626 158.224 199.49 159.29 199.49H260.92C261.986 199.49 262.85 198.626 262.85 197.56V135.24C262.85 134.174 261.986 133.31 260.92 133.31Z" fill="#407BFF"/>
<path opacity="0.5" d="M258.91 137.45H161.19V195.12H258.91V137.45Z" fill="black"/>
<path opacity="0.4" d="M255.81 149.31H206.5V183.26H255.81V149.31Z" fill="black"/>
<path d="M255.81 149.31H206.5V152.42H255.81V149.31Z" fill="#407BFF"/>
<path d="M215.54 168.09L223.6 172.56C224 172.79 224.27 172.99 224.41 173.17C224.54 173.35 224.61 173.57 224.61 173.85C224.61 174.2 224.48 174.5 224.23 174.75C223.98 175 223.69 175.13 223.36 175.13C223.14 175.13 222.81 175.01 222.38 174.77L211.98 168.99C211.28 168.6 211.28 167.59 211.98 167.2L222.38 161.42C222.82 161.19 223.14 161.07 223.35 161.07C223.69 161.07 223.99 161.2 224.24 161.45C224.49 161.7 224.62 162 224.62 162.35C224.62 162.63 224.55 162.85 224.42 163.03C224.29 163.21 224.02 163.41 223.61 163.64L215.55 168.11L215.54 168.09Z" fill="white"/>
<path d="M236.28 159.76L228.3 176.95C228.1 177.38 227.92 177.66 227.75 177.79C227.54 177.96 227.28 178.04 226.99 178.04C226.65 178.04 226.36 177.92 226.11 177.68C225.86 177.44 225.74 177.16 225.74 176.85C225.74 176.63 225.84 176.31 226.03 175.89L234.03 158.71C234.23 158.28 234.41 158 234.56 157.87C234.78 157.7 235.03 157.61 235.33 157.61C235.67 157.61 235.96 157.73 236.2 157.97C236.44 158.21 236.56 158.48 236.56 158.79C236.56 159.01 236.46 159.33 236.27 159.75L236.28 159.76Z" fill="white"/>
<path d="M246.31 168.09L238.25 163.62C237.85 163.39 237.58 163.19 237.44 163.01C237.31 162.83 237.24 162.61 237.24 162.33C237.24 161.98 237.37 161.68 237.62 161.43C237.87 161.18 238.17 161.05 238.51 161.05C238.72 161.05 239.04 161.17 239.48 161.4L249.88 167.18C250.58 167.57 250.58 168.58 249.88 168.97L239.48 174.75C239.04 174.99 238.72 175.11 238.51 175.11C238.17 175.11 237.87 174.98 237.61 174.72C237.37 174.48 237.24 174.16 237.24 173.82C237.24 173.55 237.31 173.32 237.44 173.14C237.57 172.96 237.84 172.76 238.25 172.53L246.31 168.06V168.09Z" fill="white"/>
<path d="M168.54 142.77H165.2V146.11H168.54V142.77Z" fill="white"/>
<path d="M168.54 151.41H165.2V154.75H168.54V151.41Z" fill="white"/>
<path d="M168.54 160.06H165.2V163.4H168.54V160.06Z" fill="white"/>
<path d="M168.54 168.7H165.2V172.04H168.54V168.7Z" fill="white"/>
<path d="M168.54 177.34H165.2V180.68H168.54V177.34Z" fill="white"/>
<path d="M168.54 185.98H165.2V189.32H168.54V185.98Z" fill="white"/>
<path d="M185.02 143.52H171.71V144.52H185.02V143.52Z" fill="white"/>
<path d="M179.551 152.19H174.811V153.19H179.551V152.19Z" fill="white"/>
<path d="M200.18 161.91H195.44V162.91H200.18V161.91Z" fill="white"/>
<path d="M179.551 169.62H174.811V170.62H179.551V169.62Z" fill="white"/>
<path d="M186.39 169.62H181.65V170.62H186.39V169.62Z" fill="white"/>
<path d="M193.76 161.91H181.65V162.91H193.76V161.91Z" fill="white"/>
<path d="M196.67 169.62H188.7V170.62H196.67V169.62Z" fill="white"/>
<path d="M193.421 188.15H188.681V189.15H193.421V188.15Z" fill="white"/>
<path d="M200.25 188.15H195.51V189.15H200.25V188.15Z" fill="white"/>
<path d="M205.22 188.15H202.57V189.15H205.22V188.15Z" fill="white"/>
<path d="M196.681 152.19H181.931V153.19H196.681V152.19Z" fill="white"/>
<path d="M186.39 178.65H181.65V179.65H186.39V178.65Z" fill="white"/>
<path d="M190.71 178.65H187.97V179.65H190.71V178.65Z" fill="white"/>
<path d="M200.551 178.65H192.811V179.65H200.551V178.65Z" fill="white"/>
<path d="M201.83 105.77C201.59 117.87 189.01 128.01 173.74 128.42C169.06 128.58 164.42 127.72 160.06 125.89C158.53 129.69 155.28 132.95 145.99 134.41C155.69 126.92 150.38 120.59 148.17 115.01C147.05 112.68 146.47 109.99 146.5 107.23C146.74 95.1201 159.32 84.9901 174.59 84.5801C189.87 84.1401 202.07 93.6701 201.83 105.77Z" fill="#F5185A"/>
<path d="M174.5 93.1001H161.19V94.1001H174.5V93.1001Z" fill="white"/>
<path d="M169.03 101.77H164.29V102.77H169.03V101.77Z" fill="white"/>
<path d="M189.66 111.49H184.92V112.49H189.66V111.49Z" fill="white"/>
<path d="M169.03 119.2H164.29V120.2H169.03V119.2Z" fill="white"/>
<path d="M175.86 119.2H171.12V120.2H175.86V119.2Z" fill="white"/>
<path d="M183.23 111.49H171.12V112.49H183.23V111.49Z" fill="white"/>
<path d="M186.15 119.2H178.18V120.2H186.15V119.2Z" fill="white"/>
<path d="M186.15 101.77H171.4V102.77H186.15V101.77Z" fill="white"/>
<path d="M259.56 335.02L252.27 332.84L253.97 314.97L261.26 317.15L259.56 335.02Z" fill="#7F3E3B"/>
<path opacity="0.2" d="M261.86 313.11L254.57 310.94L253.62 320.95L260.99 322.32L261.86 313.11Z" fill="black"/>
<path d="M302.71 224.65C302.71 224.65 252.58 228.88 253.81 250.65C254.82 268.47 257.46 263.63 252.27 316.62L264.88 317.32C264.88 317.32 277.71 273.98 275.98 256.76C290.11 256.76 322.46 258 327.16 245.25C329.49 238.78 330.63 231.93 330.51 225.05L302.71 224.66V224.65Z" fill="#407BFF"/>
<path d="M266.89 319.75L250.41 316.93L250.68 309.64L267.74 313.43L266.89 319.75Z" fill="#263238"/>
<path d="M251.52 329.84L259.94 331.51C260.24 331.55 260.45 331.87 260.42 332.22L259.72 340.18C259.59 341.04 258.91 341.62 258.18 341.49C255.26 340.85 253.88 340.38 250.18 339.65C247.9 339.2 242.69 338.1 239.52 337.75C236.35 337.4 236.73 333.69 238.1 333.5C244.26 332.69 247.76 331.69 250.15 330.15C250.57 329.87 251.05 329.77 251.52 329.85V329.84Z" fill="#263238"/>
<path d="M247.74 331.28C248.4 331.37 249.07 331.39 249.74 331.34C249.81 331.34 249.87 331.29 249.89 331.23C249.92 331.17 249.92 331.1 249.89 331.04C249.68 330.83 247.79 329.04 246.82 329.24C246.59 329.28 246.4 329.44 246.33 329.66C246.17 329.98 246.19 330.36 246.39 330.66C246.75 331.02 247.23 331.25 247.74 331.28ZM249.35 331.01C247.96 331.01 246.98 330.85 246.69 330.44C246.57 330.24 246.57 330 246.69 329.8C246.72 329.69 246.81 329.61 246.92 329.58C247.43 329.47 248.57 330.31 249.35 331.01Z" fill="#407BFF"/>
<path d="M249.75 331.34H249.83C249.89 331.32 249.93 331.27 249.95 331.21C249.95 331.12 250.5 328.99 249.86 328.14C249.7 327.91 249.44 327.77 249.16 327.77C248.85 327.73 248.55 327.9 248.44 328.19C248.13 328.98 248.99 330.73 249.66 331.3C249.68 331.32 249.72 331.34 249.75 331.34ZM249.23 328.13C249.37 328.15 249.5 328.23 249.58 328.35C249.87 329.14 249.9 330 249.67 330.81C249.06 330.12 248.74 329.23 248.77 328.32C248.77 328.22 248.88 328.11 249.14 328.12H249.23V328.13Z" fill="#407BFF"/>
<path d="M227.06 337.8L220.12 334.68L224.92 317.56L231.86 320.68L227.06 337.8Z" fill="#7F3E3B"/>
<path opacity="0.2" d="M233.03 316.27L226.09 313.15L223.62 321.98L230.56 325.1L233.03 316.27Z" fill="black"/>
<path d="M287.79 224.65C287.46 224.65 231.59 230.4 231.52 249.35C231.4 280.69 222.45 316.62 222.45 316.62L233.49 322.09C233.49 322.09 252.72 283.14 252.43 258.71C267.8 254.3 307.56 261.71 312.26 248.97C316.11 238.55 314.03 224.65 314.03 224.65H287.79Z" fill="#407BFF"/>
<path d="M235.26 323.67L220.46 317.01L221.65 310.95L237.26 316.34L235.26 323.67Z" fill="#263238"/>
<path d="M220.81 328.92L229.25 330.67C229.54 330.72 229.75 331.07 229.72 331.45L229.06 340.2C228.95 341.15 228.26 341.8 227.53 341.65C224.61 340.97 223.23 340.46 219.53 339.69C217.25 339.22 211.04 337.72 207.91 336.9C204.78 336.08 205.48 332.1 206.91 332.07C213.1 331.98 217.11 330.97 219.49 329.24C219.89 328.95 220.35 328.83 220.81 328.92Z" fill="#263238"/>
<path d="M217.35 330.81C217.94 330.49 218.49 330.11 219 329.67C219.06 329.62 219.08 329.55 219.06 329.48C219.04 329.42 218.98 329.37 218.91 329.36C218.62 329.31 216.04 328.98 215.37 329.72C215.22 329.89 215.17 330.13 215.23 330.35C215.29 330.7 215.53 331 215.87 331.12C216.39 331.2 216.92 331.09 217.35 330.8V330.81ZM218.48 329.64C217.39 330.49 216.48 330.91 216.01 330.76C215.8 330.67 215.65 330.47 215.63 330.23C215.59 330.12 215.62 330.01 215.69 329.92C216.05 329.56 217.45 329.53 218.48 329.63V329.64Z" fill="#407BFF"/>
<path d="M218.99 329.68L219.06 329.63C219.06 329.63 219.1 329.52 219.08 329.47C219.03 329.4 218.2 327.35 217.19 327.04C216.93 326.95 216.64 327 216.41 327.16C216.14 327.31 216 327.63 216.08 327.93C216.29 328.75 218.02 329.65 218.91 329.71C218.94 329.71 218.97 329.71 218.99 329.69V329.68ZM216.67 327.4C216.8 327.33 216.95 327.31 217.08 327.36C217.79 327.83 218.32 328.5 218.62 329.29C217.72 329.1 216.93 328.57 216.41 327.82C216.35 327.74 216.38 327.59 216.59 327.44L216.66 327.4H216.67Z" fill="#407BFF"/>
<path d="M306.77 164.19C308.24 167.35 309.45 170.39 310.66 173.55C311.87 176.71 312.94 179.87 313.93 183.11C314.92 186.35 315.78 189.67 316.47 193.11C317.22 196.68 317.6 200.33 317.59 203.98C317.58 206.12 317.26 208.26 316.64 210.31C316.25 211.57 315.69 212.77 314.97 213.87C314.55 214.5 314.07 215.08 313.54 215.61L313.11 216.03C312.87 216.23 312.61 216.45 312.36 216.62C311.94 216.91 311.49 217.16 311.02 217.36C310.33 217.67 309.6 217.9 308.86 218.05C308.28 218.17 307.69 218.26 307.09 218.31C306.07 218.37 305.06 218.37 304.04 218.31C302.24 218.22 300.44 218.02 298.66 217.71C292.02 216.5 285.52 214.64 279.25 212.15L280.7 206.64C287.05 207.4 293.53 208.21 299.64 208.49C301.16 208.49 302.64 208.56 304.02 208.49C304.63 208.46 305.25 208.38 305.85 208.26C306.35 208.17 306.78 207.99 306.63 208C306.53 208.03 306.44 208.08 306.35 208.14C306.25 208.2 306.16 208.27 306.07 208.35C306.07 208.35 306.12 208.27 306.16 208.18C306.29 207.89 306.39 207.6 306.46 207.29C306.68 206.19 306.77 205.07 306.73 203.95C306.58 201.09 306.16 198.24 305.46 195.46C304.78 192.46 303.9 189.54 302.94 186.57C301.98 183.6 300.94 180.63 299.8 177.67C298.66 174.71 297.46 171.74 296.28 168.95L306.77 164.19Z" fill="#7F3E3B"/>
<path d="M283.46 208.14L276.83 204.41L273.5 211.59C273.5 211.59 281.25 214.82 282.88 212.8L283.46 208.14Z" fill="#7F3E3B"/>
<path d="M271.46 205.77L268.43 210.57L273.5 211.54L276.83 204.36L271.46 205.77Z" fill="#7F3E3B"/>
<path d="M291.311 169.89C290.041 173.08 288.711 176.13 287.311 179.22C285.911 182.31 284.511 185.35 283.031 188.39C280.051 194.58 276.711 200.59 273.031 206.39C272.031 207.87 271.031 209.34 269.911 210.81C269.351 211.55 268.731 212.28 268.071 213.03C267.711 213.41 267.421 213.76 267.001 214.15L266.401 214.73L266.061 215.05C265.111 215.86 263.991 216.46 262.781 216.79C262.141 216.97 261.501 217.11 260.841 217.2C259.771 217.33 258.701 217.37 257.621 217.33C255.761 217.27 253.911 217.09 252.081 216.78C245.301 215.58 238.661 213.7 232.261 211.16L233.721 205.64C240.191 206.42 246.801 207.25 253.021 207.51C254.491 207.57 255.961 207.55 257.421 207.45C258.011 207.4 258.601 207.31 259.171 207.17C259.361 207.13 259.541 207.06 259.711 206.97C259.771 206.97 259.711 206.9 259.441 207.07C259.341 207.12 259.251 207.19 259.171 207.27C259.171 207.27 259.241 207.18 259.271 207.15L259.551 206.84C259.731 206.66 259.951 206.36 260.161 206.12C260.571 205.6 260.991 205.04 261.411 204.43C262.241 203.24 263.051 201.92 263.851 200.58C265.451 197.9 266.941 195.05 268.401 192.17C269.861 189.29 271.261 186.35 272.641 183.39C275.391 177.49 278.081 171.44 280.641 165.49L291.311 169.89Z" fill="#7F3E3B"/>
<path d="M236.561 207.08L229.921 203.3L226.591 210.48C226.591 210.48 234.341 213.72 235.981 211.7L236.561 207.08Z" fill="#7F3E3B"/>
<path d="M224.56 204.72L221.52 209.51L226.59 210.48L229.92 203.3L224.56 204.72Z" fill="#7F3E3B"/>
<path d="M308.48 134.41L304.24 139.32L297.77 146.01C297.9 146.34 298.08 146.77 298.26 147.22C298.76 148.45 299.05 149.76 299.12 151.09C299.26 153.77 299 156.04 294.77 157.86C294.77 157.86 290.33 163.66 300.89 162.05C311.45 160.44 313.04 154.96 313.04 154.96C308.36 151.63 308.1 140.56 308.47 134.4L308.48 134.41Z" fill="#7F3E3B"/>
<path d="M286.95 128.87C286.95 129.53 286.62 130.09 286.18 130.11C285.74 130.13 285.39 129.61 285.38 128.95C285.38 128.29 285.72 127.73 286.15 127.71C286.58 127.69 286.94 128.21 286.95 128.87Z" fill="#263238"/>
<path d="M289.16 126.41C289.03 126.41 288.91 126.34 288.84 126.23C288.32 125.37 287.42 124.8 286.42 124.69C286.21 124.68 286.04 124.5 286.04 124.29C286.04 124.07 286.22 123.9 286.44 123.91C287.7 124.02 288.84 124.73 289.5 125.81C289.61 125.99 289.56 126.23 289.38 126.35C289.31 126.39 289.24 126.41 289.16 126.41Z" fill="#263238"/>
<path d="M286.71 129.24C286.17 131.04 285.4 132.76 284.41 134.36C285.24 134.83 286.24 134.9 287.13 134.56L286.71 129.24Z" fill="#630F0F"/>
<path d="M309.08 125.54C308.69 133.7 308.87 138.54 304.82 142.86C300.88 147.21 294.15 147.53 289.8 143.59C288.21 142.14 287.09 140.25 286.6 138.15C284.76 130.92 285.72 118.79 293.6 115.15C298.92 112.52 305.36 114.69 307.99 120.01C308.84 121.72 309.22 123.63 309.08 125.54Z" fill="#7F3E3B"/>
<path d="M312.78 128.26C311.6 131.72 309.81 134.94 307.48 137.76L296.86 139.76C296.86 139.76 288.47 136.25 290.71 130.47C289.29 129.27 289.82 125.56 290.82 123.52C292.42 124.8 295.05 124.91 296.49 123.37C297.65 125.5 301.13 125.8 302.64 123.88C304.37 125.8 308.06 125.21 309.1 122.84C310.38 123.68 312.22 123.56 313.38 122.56C313.43 122.51 313.48 122.47 313.53 122.42C313.7 123.88 313.53 125.79 312.78 128.26Z" fill="#263238"/>
<path opacity="0.1" d="M312.78 128.26C311.6 131.72 309.81 134.94 307.48 137.76L296.86 139.76C296.86 139.76 288.47 136.25 290.71 130.47C289.29 129.27 289.82 125.56 290.82 123.52C292.42 124.8 295.05 124.91 296.49 123.37C297.65 125.5 301.13 125.8 302.64 123.88C304.37 125.8 308.06 125.21 309.1 122.84C310.38 123.68 312.22 123.56 313.38 122.56C313.43 122.51 313.48 122.47 313.53 122.42C313.7 123.88 313.53 125.79 312.78 128.26Z" fill="white"/>
<path d="M314.32 118.37C314.92 119.71 314.59 121.4 313.54 122.42C313.49 122.47 313.44 122.51 313.39 122.56C312.23 123.56 310.39 123.68 309.11 122.84C308.07 125.21 304.38 125.8 302.65 123.88C301.14 125.8 297.66 125.5 296.5 123.37C295.06 124.91 292.43 124.8 290.83 123.52C290.41 123.19 290.06 122.77 289.83 122.28C289.77 122.17 289.73 122.06 289.69 121.95C289.6 122.05 289.51 122.14 289.41 122.22C288.44 123.02 286.91 123.14 285.85 122.43C284.98 121.85 284.5 120.77 284.57 119.74C284.58 119.52 284.62 119.31 284.68 119.1C284.6 119.25 284.5 119.39 284.38 119.51C283.51 120.44 281.67 120.48 280.82 119.42C279.76 118.11 280.36 115.93 281.81 115.06C282.39 114.72 283.03 114.56 283.69 114.56C284.71 114.56 285.75 114.93 286.56 115.55C285.69 114.3 286 112.39 287.22 111.48C288.44 110.58 290.36 110.83 291.3 112.02C291.17 110.6 291.64 109.75 292.37 109.31C293.75 108.51 296.05 109.2 297.17 110.54C297.17 110.54 298.71 106.82 301.37 107.24C301.95 107.32 304.68 108.53 304.61 109.51C304.61 109.58 304.59 109.64 304.56 109.7C304.6 109.62 304.64 109.55 304.69 109.48C305.21 108.66 306.26 108.25 307.25 108.27C308.32 108.28 309.34 108.69 310.33 109.09C312.4 109.94 314.6 110.89 315.8 112.78C316.99 114.68 316.47 117.77 314.32 118.37Z" fill="#263238"/>
<path d="M295.4 131.23C295.11 133.25 294.19 135.12 292.76 136.57C290.95 138.3 289.41 136.57 289.39 133.94C289.39 131.56 290.28 127.79 292.39 127.09C294.5 126.39 295.79 128.64 295.4 131.23Z" fill="#7F3E3B"/>
<path d="M327.38 157.81C326.63 155.81 323.13 153.81 320.98 153.81H319.56C317.08 153.81 313.99 154.01 310.99 154.36C305.27 154.99 299.6 155.95 293.99 157.22C291.41 157.9 288.92 158.76 286.94 159.5C284.42 160.5 282.94 161.17 282.94 161.17C282.94 161.17 285.7 179.55 287.13 197.82C287.92 207.98 287.6 218.07 287.85 225.01H330.51C331.98 216.67 331.75 209.4 331.87 194.34C331.94 185.3 330.47 166.04 327.38 157.81Z" fill="#263238"/>
<path opacity="0.2" d="M286.21 187.61C286.53 191.44 286.86 195.46 287.21 199.48C292.21 192.18 294.98 172.21 294.98 172.21L286.21 187.61Z" fill="black"/>
<path d="M280.53 162.51C274.42 165.95 268.43 183.55 268.43 183.55L282.42 194.11C287.76 189.06 295.57 176.53 296.42 171.52C297.79 163.83 290.32 157.03 280.53 162.51Z" fill="#263238"/>
<path d="M268.46 341.71C268.46 344.11 266.51 346.06 264.11 346.06C261.71 346.06 259.76 344.11 259.76 341.71C259.76 339.31 261.71 337.36 264.11 337.36C266.51 337.36 268.46 339.31 268.46 341.71Z" fill="#263238"/>
<path d="M333.35 341.71C333.35 344.11 335.3 346.06 337.7 346.06C340.1 346.06 342.05 344.11 342.05 341.71C342.05 339.31 340.1 337.36 337.7 337.36C335.3 337.36 333.35 339.31 333.35 341.71Z" fill="#263238"/>
<path d="M296.67 340.31C296.67 342.71 298.62 344.66 301.02 344.66C303.42 344.66 305.37 342.71 305.37 340.31C305.37 337.91 303.42 335.96 301.02 335.96C298.62 335.96 296.67 337.91 296.67 340.31Z" fill="#263238"/>
<path d="M299.67 334.95V326.54H287.21C284.76 326.54 282.32 326.77 279.92 327.22L256.72 331.73C255.58 331.95 254.83 333.06 255.05 334.2C255.25 335.22 256.15 335.94 257.19 335.91L299.67 334.95Z" fill="#263238"/>
<path d="M299.67 334.95V326.54H312.14C314.59 326.54 317.03 326.77 319.43 327.22L345.51 331.39C346.65 331.61 347.4 332.72 347.18 333.86C346.98 334.88 346.08 335.6 345.04 335.57L299.67 334.95Z" fill="#263238"/>
<path d="M307.38 288.03H291.95V326.54H307.38V288.03Z" fill="#263238"/>
<path d="M305.17 270.12H294.17V288.03H305.17V270.12Z" fill="#263238"/>
<path opacity="0.5" d="M294.17 275.38L305.17 278.15V270.12H294.17V275.38Z" fill="black"/>
<path d="M264.11 229.6H258.52V253.45H264.11V229.6Z" fill="#263238"/>
<path d="M292.13 270.12V166.44C292.13 162.51 293.82 158.78 296.78 156.19L304.17 149.72C306.65 147.55 309.84 146.35 313.14 146.35H339.84L352.89 160.23V270.12H292.14H292.13Z" fill="#407BFF"/>
<path d="M252.39 250.06H313.29V270.12H242.47C238.49 270.12 235.27 266.9 235.26 262.93C235.26 261.64 235.61 260.37 236.27 259.25C239.64 253.55 245.77 250.06 252.39 250.06Z" fill="#407BFF"/>
<path opacity="0.7" d="M352.89 160.23V270.12H242.47C238.5 270.12 235.27 266.9 235.27 262.92C235.27 261.63 235.61 260.36 236.27 259.25C239.64 253.56 245.75 250.06 252.36 250.06H283.03C288.06 250.06 292.14 245.98 292.14 240.95V166.43C292.14 162.51 293.83 158.77 296.79 156.19L304.18 149.72C306.66 147.54 309.85 146.35 313.15 146.35H339.84L352.89 160.23Z" fill="white"/>
<path d="M301.02 270.12V166.44C301.02 162.51 302.71 158.78 305.67 156.19L313.06 149.72C315.54 147.55 318.73 146.35 322.03 146.35H342.84C346.6 146.35 350.19 147.9 352.76 150.64L358.08 156.3C360.45 158.83 361.77 162.16 361.77 165.63V259.74C361.77 265.47 357.12 270.12 351.39 270.12H301.02Z" fill="#407BFF"/>
<path opacity="0.5" d="M301.02 270.12V166.44C301.02 162.51 302.71 158.78 305.67 156.19L313.06 149.72C315.54 147.55 318.73 146.35 322.03 146.35H342.84C346.6 146.35 350.19 147.9 352.76 150.64L358.08 156.3C360.45 158.83 361.77 162.16 361.77 165.63V259.74C361.77 265.47 357.12 270.12 351.39 270.12H301.02Z" fill="white"/>
<path d="M280.3 236.88C268 232.59 254.6 232.59 242.3 236.88C239.75 237.84 236.88 236.75 235.61 234.33C234.47 231.92 236 228.8 239.1 227.71C253.47 222.69 269.11 222.69 283.48 227.71C286.58 228.79 288.11 231.92 286.97 234.33C285.7 236.73 282.85 237.83 280.3 236.88Z" fill="#407BFF"/>
<path opacity="0.7" d="M280.3 236.88C268 232.59 254.6 232.59 242.3 236.88C239.75 237.84 236.88 236.75 235.61 234.33C234.47 231.92 236 228.8 239.1 227.71C253.47 222.69 269.11 222.69 283.48 227.71C286.58 228.79 288.11 231.92 286.97 234.33C285.7 236.73 282.85 237.83 280.3 236.88Z" fill="white"/>
<path d="M124.889 137.66C124.679 138.25 124.829 138.84 125.219 138.97C125.609 139.1 126.089 138.74 126.289 138.15C126.489 137.56 126.349 136.96 125.969 136.83C125.589 136.7 125.099 137.06 124.889 137.66Z" fill="#263238"/>
<path d="M124.779 138.27C124.859 140.33 125.219 142.37 125.849 144.33C124.829 144.62 123.729 144.45 122.849 143.87L124.779 138.27Z" fill="#A02724"/>
<path d="M123.929 133.64C123.999 133.67 124.089 133.67 124.159 133.64C125.049 133.34 126.029 133.49 126.789 134.04C126.959 134.16 127.189 134.12 127.309 133.96C127.419 133.81 127.399 133.61 127.269 133.48C126.319 132.77 125.079 132.57 123.949 132.93C123.759 133 123.649 133.21 123.719 133.4C123.759 133.51 123.839 133.59 123.949 133.63H123.929V133.64Z" fill="#263238"/>
<path d="M102.959 139.84C104.079 145.53 105.189 155.96 101.209 159.76C101.209 159.76 102.769 165.53 113.349 165.53C124.979 165.53 118.909 159.76 118.909 159.76C112.559 158.24 113.579 153.53 114.689 149.11L102.959 139.84Z" fill="#B55B52"/>
<path d="M105.549 129.52C103.469 136.96 101.869 141.21 104.249 146.22C107.819 153.77 120.299 154.75 123.699 146.11C126.289 138.15 128.849 129.74 122.729 124.37C118.379 120.5 111.719 120.9 107.849 125.25C106.759 126.48 105.969 127.94 105.549 129.52Z" fill="#B55B52"/>
<path d="M97.4793 132C96.9393 129.26 96.7993 126.26 98.1693 123.82C99.5393 121.38 102.849 119.89 105.259 121.31C107.339 116.93 112.359 114.14 117.169 114.7C121.989 115.26 126.239 119.11 127.259 123.85C128.279 128.59 125.999 133.86 121.839 136.35C122.399 134.31 122.949 132.26 123.509 130.22C123.029 133.05 121.489 135.68 119.249 137.47C119.569 135.43 119.889 133.38 120.209 131.34C119.919 134.23 118.179 136.93 115.669 138.39C116.059 136.96 116.449 135.53 116.839 134.09C116.669 134.72 115.109 139.22 114.579 139.84C113.599 140.98 112.939 148.5 109.489 148.74C97.7093 151.1 98.7293 138.39 97.4693 131.99L97.4793 132Z" fill="#263238"/>
<path d="M113.39 135.56C113.19 137.47 113.62 139.39 114.61 141.03C115.94 143.17 117.89 142.35 118.61 140.16C119.25 138.16 119.32 134.71 117.47 133.32C115.62 131.93 113.67 133.26 113.39 135.56Z" fill="#B55B52"/>
<path d="M85.2096 207.64C83.9396 207.22 77.9896 204.16 77.0396 204.71C79.7896 197.7 81.4996 196.63 82.7496 192.17C83.4496 189.68 82.9696 187.74 81.4196 185.66C79.6596 183.31 79.0496 182.11 76.1196 182.4C72.0996 189.12 67.0396 197.42 65.0596 204.99C64.3896 207.54 63.9096 209.48 65.4296 211.63C66.7696 213.53 69.2396 214.3 71.5596 214.5C77.1296 215 85.3996 213.98 85.2996 210.67C85.2296 208.58 85.2196 207.63 85.2196 207.63L85.2096 207.64Z" fill="#B55B52"/>
<path d="M84.2596 207.39L88.9796 205.86L88.5596 214.39C88.5596 214.39 84.7796 214.53 82.7596 211.99L84.2496 207.39H84.2596Z" fill="#B55B52"/>
<path d="M94.8892 205.72L94.2092 212.76L88.5692 214.39L88.9892 205.86L94.8892 205.72Z" fill="#B55B52"/>
<path d="M149.01 213.45C149.01 213.45 142.43 208.29 133.78 191.23C132.5 188.85 131.27 186.44 130.1 184.02C128.92 181.57 127.79 179.18 126.72 176.61L136.94 172.21C139.05 176.79 142.32 181.52 144.64 186.07C146.96 190.62 152.44 201.4 153.12 202.4C153.46 202.92 153.83 203.35 154.18 203.83L154.71 204.53L148.12 212.15L149.01 213.45Z" fill="#B55B52"/>
<path d="M157.65 180.29L155.6 177.85L154.65 174.2L160.82 168.47C160.82 168.47 162.31 170.31 163.36 172.29C163.52 172.59 163.59 172.93 163.57 173.28L163.32 179.7L157.64 180.3L157.65 180.29Z" fill="#B55B52"/>
<path d="M154.75 170.24L159.37 166.05L160.83 168.5L154.66 174.2L154.75 170.24Z" fill="#B55B52"/>
<path d="M157.75 178.51C157.91 177.82 158.05 179.17 158.51 178.63C159.87 177 161.86 176.82 163.03 178.59C164.21 180.36 163.2 198.21 161.32 203.8C160.07 207.51 159.4 210.48 156.2 212.74C154.88 213.67 153.32 214.38 151.7 214.35C150.08 214.32 148.41 213.44 147.8 211.94C146.85 209.61 150.38 201.21 151.64 198.5C155.6 190.01 155.86 186.57 157.75 178.51Z" fill="#B55B52"/>
<path d="M144.51 177.74C147.23 177.71 149.96 177.69 152.68 177.66C153.84 177.65 155.05 177.63 156.1 177.12C157.47 176.45 158.34 175.05 158.89 173.63C160.05 170.67 160.14 167.41 160.6 164.27C161.06 161.12 162.01 157.84 164.39 155.73C160.05 156.31 152.37 154.95 149.04 158.5C147.27 160.39 144.17 177.75 144.5 177.75L144.51 177.74Z" fill="#407BFF"/>
<path opacity="0.5" d="M144.51 177.74C147.23 177.71 149.96 177.69 152.68 177.66C153.84 177.65 155.05 177.63 156.1 177.12C157.47 176.45 158.34 175.05 158.89 173.63C160.05 170.67 160.14 167.41 160.6 164.27C161.06 161.12 162.01 157.84 164.39 155.73C160.05 156.31 152.37 154.95 149.04 158.5C147.27 160.39 144.17 177.75 144.5 177.75L144.51 177.74Z" fill="white"/>
<path d="M158.49 165.6C158.02 165.72 157.71 167.4 157.81 167.88L158.27 168.7L159.2 172.75L162.32 171.02L159.51 166.03C159.31 165.67 158.89 165.49 158.49 165.6Z" fill="#B55B52"/>
<path d="M88.0196 161.19C80.7196 162.86 69.9296 185.6 69.9296 185.6L84.5796 195.6C88.2196 190.37 93.1796 182.48 95.9796 176.75C100.31 167.69 95.4896 159.48 88.0296 161.19H88.0196Z" fill="#FF914D"/>
<path d="M98.6899 161.74C97.8499 159.91 96.9399 157.82 98.8299 157.17C100.92 156.45 112.36 155.71 116.3 157.06C118.46 157.65 119.74 159.88 119.15 162.04C119.15 162.07 119.14 162.09 119.13 162.12L98.6899 161.74Z" fill="#263238"/>
<path opacity="0.2" d="M92.5399 174.33L82.1299 193.93L84.5899 195.61C84.5899 195.61 89.3099 189.04 92.5499 183.36V174.33H92.5399Z" fill="black"/>
<path d="M132.41 171.2C133.99 179.18 130.3 198.17 130.34 229.17H88.7096C88.4396 222.9 92.9896 208.06 87.3296 178.5C87.1496 177.54 87.0596 161.35 88.0196 161.19C92.0496 160.48 96.1196 160 100.21 159.75C106.1 159.4 112.01 159.4 117.91 159.75C120.32 159.99 124.11 161.49 126.5 162.35C130.24 163.69 131.64 167.3 132.41 171.2Z" fill="#F5993C"/>
<path opacity="0.2" d="M121.39 179.15C122.48 185.72 126.78 194.4 131.08 199.5C131.25 195.77 131.62 191.88 131.61 188.89L121.39 179.16V179.15Z" fill="black"/>
<path d="M118.429 169.27C117.429 176.64 131.929 195.46 131.929 195.46L146.519 185.46C146.519 185.46 142.469 175.09 135.659 168.29C127.899 160.49 119.569 161.25 118.429 169.27Z" fill="#FF914D"/>
<path d="M166.119 332.39H173.899L175.669 314.36H167.889L166.119 332.39Z" fill="#B55B52"/>
<path opacity="0.2" d="M175.549 315.46L174.649 324.75H166.859L167.769 315.46H175.549Z" fill="black"/>
<path d="M135.43 332.39H143.21L147.12 314.36H139.34L135.43 332.39Z" fill="#B55B52"/>
<g opacity="0.2">
<path d="M139.169 315.33H146.949L144.929 324.62H137.149L139.169 315.33Z" fill="black"/>
</g>
<path d="M174.34 328.9H165.85C165.53 328.9 165.25 329.19 165.18 329.6L163.64 338.5C163.5 339.29 163.87 340.07 164.48 340.26C164.57 340.29 164.67 340.3 164.76 340.3C167.82 340.24 172.25 340 176.1 340C180.61 340 184.5 340.31 189.78 340.31C192.98 340.31 193.87 336.13 192.53 335.75C186.44 334.03 181.47 333.85 176.21 329.64C175.65 329.17 175 328.91 174.34 328.89V328.9Z" fill="#263238"/>
<path d="M180.52 331.79C181.52 331.79 182.52 331.65 182.81 331.2C182.98 330.96 182.98 330.63 182.81 330.39C182.68 330.18 182.47 330.03 182.23 329.96C180.93 329.61 178.23 331.16 178.1 331.23C178.03 331.26 177.99 331.34 178.01 331.42C178.02 331.49 178.08 331.55 178.15 331.57C178.93 331.71 179.73 331.79 180.52 331.79ZM181.76 330.28C181.88 330.26 181.99 330.26 182.11 330.28C182.26 330.31 182.39 330.4 182.47 330.54C182.6 330.77 182.56 330.88 182.47 330.94C182.11 331.45 180.14 331.46 178.69 331.25C179.64 330.73 180.68 330.4 181.76 330.28Z" fill="#407BFF"/>
<path d="M178.17 331.57H178.25C179.19 331.15 181.05 329.47 180.9 328.57C180.9 328.36 180.72 328.11 180.22 328.05C179.86 328.02 179.5 328.13 179.22 328.37C178.22 329.18 178.02 331.28 178.01 331.37C178.01 331.44 178.03 331.5 178.08 331.54C178.11 331.56 178.14 331.57 178.17 331.57ZM180.07 328.42H180.18C180.51 328.42 180.53 328.59 180.54 328.63C180.63 329.16 179.36 330.48 178.4 331.05C178.48 330.17 178.83 329.33 179.4 328.66C179.59 328.5 179.82 328.42 180.07 328.42Z" fill="#407BFF"/>
<path d="M143.76 328.9H135.02C134.7 328.9 134.43 329.19 134.36 329.6L132.82 338.5C132.69 339.3 133.08 340.09 133.7 340.27C133.78 340.29 133.87 340.3 133.96 340.3C137.01 340.24 138.5 340 142.34 340C144.71 340 147.74 340.31 151.01 340.31C154.28 340.31 154.7 336.13 153.36 335.75C147.36 334.05 146.95 331.71 145.03 329.47C144.68 329.08 144.22 328.87 143.76 328.89V328.9Z" fill="#263238"/>
<path d="M148.33 332.78C149 332.87 149.67 332.68 150.2 332.27C150.39 332.01 150.39 331.66 150.2 331.4C150.08 331.18 149.87 331.02 149.62 330.97C148.48 330.7 146.33 332.17 146.24 332.23C146.18 332.28 146.15 332.35 146.16 332.42C146.17 332.49 146.23 332.55 146.3 332.56C146.97 332.71 147.65 332.78 148.33 332.78ZM149.33 331.3C149.4 331.29 149.48 331.29 149.55 331.3C149.7 331.32 149.82 331.41 149.89 331.54C150.06 331.85 149.96 331.97 149.89 332.02C149.56 332.45 147.97 332.46 146.8 332.27C147.55 331.76 148.41 331.43 149.31 331.3H149.33Z" fill="#407BFF"/>
<path d="M146.35 332.57H146.43C147.24 332.13 148.8 330.43 148.63 329.57C148.58 329.29 148.33 329.08 148.04 329.08C147.76 329.05 147.47 329.13 147.26 329.32C146.36 330.06 146.17 332.32 146.16 332.4C146.16 332.47 146.19 332.53 146.25 332.57C146.28 332.58 146.32 332.58 146.35 332.57ZM147.92 329.42H148C148.24 329.42 148.26 329.56 148.27 329.61C148.37 330.12 147.37 331.41 146.57 332.02C146.62 331.13 146.94 330.28 147.49 329.58C147.61 329.48 147.76 329.42 147.92 329.42Z" fill="#407BFF"/>
<path d="M117.86 229.18C117.86 229.18 154.71 244.39 162.33 256.09C157.8 285.83 149.67 319.71 149.67 319.71H135.81C135.81 319.71 135.43 300.87 139.4 275.95C141.4 239.6 75.9796 277.21 88.6896 229.18H117.86Z" fill="#263238"/>
<path opacity="0.3" d="M143.33 254.25C140.75 254.35 138.19 254.74 135.63 255.14C132.94 255.55 130.25 255.97 127.55 256.38C131.71 259.88 136.11 263.09 140.71 266C143.5 267.76 146.53 269.47 149.83 269.48C153.52 269.5 163.57 264.73 161.9 259.81C160.21 254.82 147.52 254.09 143.32 254.25H143.33Z" fill="black"/>
<path d="M130.34 229.18C130.34 229.18 164.4 233.57 183.18 244.27C188.96 247.56 188.15 258.13 188 265.09C187.59 283.77 184 302.24 177.38 319.71H165.82C165.82 319.71 166.41 300.84 166.02 270.39C165.9 261.26 147.47 258.25 129.46 257.19C113.9 256.21 100.25 246.5 94.2196 232.12L92.9896 229.18H130.34Z" fill="#263238"/>
<path d="M180.21 316.61C180.27 316.61 179.46 322.08 179.46 322.08H163.46L163.02 317.2L180.21 316.61Z" fill="#407BFF"/>
<path d="M151.009 316.61C151.069 316.61 149.539 322.08 149.539 322.08H133.539L133.829 317.2L151.009 316.61Z" fill="#407BFF"/>
<path d="M108.009 256.78L96.5493 341.29L94.4793 341L103.319 256.14L108.009 256.78Z" fill="#407BFF"/>
<path opacity="0.4" d="M107.599 259.8L96.5493 341.29L94.4793 341L102.939 259.79L107.599 259.8Z" fill="black"/>
<path d="M148.34 259.8H83.3396C83.3396 255.7 86.6596 252.38 90.7596 252.38H140.92C145.02 252.38 148.34 255.7 148.34 259.8Z" fill="#407BFF"/>
<path opacity="0.7" d="M148.34 259.8H83.3396C83.3396 255.7 86.6596 252.38 90.7596 252.38H140.92C145.02 252.38 148.34 255.7 148.34 259.8Z" fill="white"/>
<path d="M86.3496 259.79L76.5496 341.95H78.6496L91.0796 259.79H86.3496Z" fill="#407BFF"/>
<path d="M145.329 259.79L155.129 341.95H153.029L140.609 259.79H145.329Z" fill="#407BFF"/>
<path opacity="0.4" d="M145.329 259.79L155.129 341.95H153.029L140.609 259.79H145.329Z" fill="black"/>
<path d="M132.22 259.79L132.41 341.95H130.32L127.49 259.79H132.22Z" fill="#407BFF"/>
</g>
<defs>
<clipPath id="clip0_1_447">
<rect width="424.73" height="362.66" fill="white"/>
</clipPath>
</defs>
</svg>
