<svg width="56" height="56" viewBox="0 0 56 56" fill="none" xmlns="http://www.w3.org/2000/svg">
<path d="M26.6656 31.9995H2.66562V29.333H22.6656C23.4022 29.333 23.9991 28.7357 23.9991 27.9995C23.9991 27.2634 23.4022 26.6661 22.6656 26.6661H2.66562V2.66606H33.333V21.3335C33.333 22.0696 33.9299 22.6665 34.6661 22.6665C35.4027 22.6665 35.9996 22.0696 35.9996 21.3335V1.33349C35.9996 0.979909 35.8589 0.640629 35.6089 0.390629C35.3589 0.140629 35.0197 0 34.6661 0H1.3335C0.596896 0 1.52588e-05 0.59688 1.52588e-05 1.33349V33.3335C1.52588e-05 33.6871 0.140645 34.0259 0.390645 34.2763C0.640645 34.5263 0.979925 34.6665 1.3335 34.6665H26.6661C27.4027 34.6665 27.9996 34.0696 27.9996 33.3335C27.9996 32.5969 27.4027 32 26.6661 32L26.6656 31.9995Z" fill="#FF914D"/>
<path d="M37.5854 24.5466C38.31 24.6497 38.9823 24.1497 39.0922 23.4265C40.4257 14.893 45.1453 14.6667 45.3324 14.6667C53.2257 14.6667 53.3324 27.8667 53.3324 28.0004V28C53.3324 28.3536 53.4726 28.6929 53.7226 28.9429C53.973 29.1929 54.3119 29.3335 54.6654 29.3335C55.019 29.3335 55.3583 29.1929 55.6083 28.9429C55.8583 28.6929 55.9989 28.3536 55.9989 28C55.9989 27.3469 55.8788 12 45.3324 12C45.0391 12 38.1057 12.1201 36.4659 23.0402H36.4654C36.3623 23.7643 36.8619 24.4371 37.5855 24.547L37.5854 24.5466Z" fill="#FF914D"/>
<path d="M45.333 27.9995C43.9996 27.9995 42.8665 25.7063 42.6665 24.9063H42.6661C42.4304 24.2067 41.6723 23.8304 40.9728 24.0661C40.2733 24.3018 39.8974 25.0598 40.1331 25.7593C40.3063 26.2527 41.8799 30.6661 45.4666 30.6661C49.0532 30.6661 50.4666 27.6259 50.9465 25.3326V25.3331C51.6826 25.2554 52.217 24.596 52.1397 23.8593C52.062 23.1232 51.4027 22.5888 50.666 22.6661C46.266 22.6661 43.8927 18.146 43.8526 18.0661C43.7102 17.7241 43.4321 17.4567 43.0843 17.3281C42.7366 17.1996 42.3513 17.2219 42.0205 17.3889C41.6897 17.5563 41.4432 17.8536 41.3406 18.2098C41.2383 18.5656 41.2883 18.9487 41.4794 19.2661C42.8919 21.9495 45.2771 23.9911 48.1464 24.9728C47.8794 26.1862 47.1594 27.9995 45.333 27.9995Z" fill="#FF914D"/>
<path d="M50.1328 30.9327C49.6726 30.6095 49.0592 30.6095 48.5993 30.9327C47.6275 31.5318 46.5078 31.8492 45.3658 31.8492C44.2239 31.8492 43.1047 31.5318 42.1328 30.9327L31.4663 22.9327H31.4659C30.9355 22.5313 30.19 22.5822 29.7195 23.0523L25.7195 27.0523C25.4489 27.3233 25.3083 27.6974 25.3328 28.0791C25.3574 28.4635 25.5471 28.8184 25.8525 29.0523L37.3325 37.9858V54.6658C37.3325 55.0194 37.4727 55.3587 37.7227 55.6087C37.9731 55.8587 38.312 55.9993 38.6655 55.9993H51.9993C52.7354 55.9993 53.3327 55.4024 53.3327 54.6658C53.3327 53.9297 52.7354 53.3328 51.9993 53.3328H39.9992V37.3328C39.9984 36.9198 39.8064 36.531 39.4792 36.2792L28.6792 27.8792L30.7859 25.7591L40.5993 33.106C43.1988 34.7577 46.4684 34.9444 49.2395 33.5993L53.3328 36.6658V47.9993H50.6658V41.3327C50.6658 40.5961 50.0689 39.9993 49.3328 39.9993C48.5962 39.9993 47.9993 40.5961 47.9993 41.3327V49.3327C47.9993 49.6863 48.1399 50.0252 48.3899 50.2756C48.6399 50.5256 48.9792 50.6658 49.3328 50.6658H54.6662H54.6658C55.0194 50.6658 55.3587 50.5256 55.6087 50.2756C55.8587 50.0252 55.9993 49.6863 55.9993 49.3327V35.999C55.9993 35.5794 55.8015 35.1843 55.4658 34.9325L50.1328 30.9327Z" fill="#FF914D"/>
<path d="M25.7199 22.28C25.9703 22.5327 26.311 22.6746 26.6663 22.6746C27.0221 22.6746 27.3628 22.5327 27.6132 22.28C27.8654 22.0295 28.0074 21.6889 28.0074 21.3336C28.0074 20.9778 27.8654 20.6371 27.6132 20.3867L12.2795 5.05296C11.7567 4.5302 10.909 4.5302 10.3862 5.05296C9.86346 5.57617 9.86346 6.42348 10.3862 6.94668L21.8262 18.3734V18.373C21.3387 19.4636 21.195 20.677 21.4142 21.8511C21.6334 23.0252 22.2048 24.1052 23.0526 24.9467C23.303 25.1989 23.6441 25.3409 23.9995 25.3409C24.3548 25.3409 24.6959 25.1989 24.9463 24.9467C25.1986 24.6962 25.3405 24.3552 25.3405 23.9998C25.3405 23.6444 25.1986 23.3034 24.9463 23.0529C24.2615 22.4145 23.916 21.4913 24.0128 20.5597L25.7199 22.28Z" fill="#FF914D"/>
<path d="M27.9995 4H19.9995C19.2634 4 18.666 4.59688 18.666 5.33349C18.666 6.06965 19.2634 6.66651 19.9995 6.66651H27.9995C28.7357 6.66651 29.333 6.06963 29.333 5.33349C29.333 4.59688 28.7357 4 27.9995 4Z" fill="#FF914D"/>
<path d="M29.333 9.33349C29.333 8.97991 29.1924 8.64063 28.9424 8.39063C28.6924 8.14063 28.3531 8 27.9995 8H23.9995C23.2634 8 22.666 8.59688 22.666 9.33349C22.666 10.0696 23.2634 10.6665 23.9995 10.6665H27.9995C28.3531 10.6665 28.6924 10.5263 28.9424 10.2763C29.1924 10.0259 29.333 9.68706 29.333 9.33349Z" fill="#FF914D"/>
<path d="M6.66508 13.3325H9.33205C10.0682 13.3325 10.6651 12.7352 10.6651 11.999C10.6651 11.2629 10.0682 10.6655 9.33205 10.6655H6.66508C5.92892 10.6655 5.33205 11.2629 5.33205 11.999C5.33205 12.7352 5.92893 13.3325 6.66508 13.3325Z" fill="#FF914D"/>
<path d="M6.66508 17.3325H13.332C14.0682 17.3325 14.6651 16.7352 14.6651 15.999C14.6651 15.2629 14.0682 14.6655 13.332 14.6655H6.66508C5.92892 14.6655 5.33205 15.2629 5.33205 15.999C5.33205 16.7352 5.92893 17.3325 6.66508 17.3325Z" fill="#FF914D"/>
<path d="M6.66508 21.3325H15.9986C16.7347 21.3325 17.332 20.7352 17.332 19.999C17.332 19.2629 16.7347 18.6655 15.9986 18.6655H6.66508C5.92892 18.6655 5.33205 19.2629 5.33205 19.999C5.33205 20.7352 5.92893 21.3325 6.66508 21.3325Z" fill="#FF914D"/>
</svg>
