<svg width="56" height="62" viewBox="0 0 56 62" fill="none" xmlns="http://www.w3.org/2000/svg">
<path d="M20.0854 12.4397C20.0854 15.1039 17.9257 17.2634 15.2613 17.2634C12.597 17.2634 10.4377 15.104 10.4377 12.4397C10.4377 9.77533 12.5971 7.6156 15.2613 7.6156C17.9256 7.6156 20.0854 9.77543 20.0854 12.4397Z" stroke="#FF914D" stroke-width="2"/>
<path d="M32.6128 32.1039L32.6124 32.1052C32.3211 32.9536 31.4035 33.3746 30.6974 33.1273L30.6886 33.1242L30.6796 33.1212L25.2394 31.3292L25.2205 31.323L25.2014 31.3175C24.9833 31.2552 24.6988 31.0696 24.4807 30.8092L22.4352 28.3165L20.5671 26.04L20.6627 28.9833L20.9823 38.8229V58.4547C20.9823 59.5525 20.1001 60.3989 19.0381 60.3989C17.9402 60.3989 17.0938 59.5167 17.0938 58.4547V40.0227V39.0227H16.0938H14.9421H14.134L13.9644 39.8127L9.87094 58.8727C9.65283 59.7685 8.83682 60.3987 7.96618 60.3987C7.82831 60.3987 7.75689 60.3981 7.69848 60.3936C7.67361 60.3917 7.65908 60.3895 7.65121 60.3881C7.64947 60.3878 7.64803 60.3875 7.64686 60.3872C7.6454 60.3869 7.64435 60.3867 7.64365 60.3865L7.64156 60.3859L7.58272 60.3663L7.52191 60.3542C6.49849 60.1497 5.85048 59.171 6.06505 58.0817L10.2232 38.7614L10.2416 38.6759L10.2448 38.5885L10.6288 28.3483L10.7559 24.9582L8.81027 27.7373C7.41992 29.7233 5.91286 32.4784 4.79852 35.2316L4.79368 35.2436L4.78914 35.2557C4.56176 35.8621 3.93025 36.2707 3.29336 36.2707C3.11021 36.2707 2.9159 36.2347 2.70516 36.1504L2.69744 36.1473L2.68966 36.1443C1.89064 35.8398 1.46955 34.9001 1.79615 34.0427L1.79645 34.0419C2.38976 32.4805 3.8121 29.1868 5.80432 26.3031C6.80039 24.8614 7.91235 23.5613 9.10126 22.63C10.2895 21.6992 11.4937 21.1827 12.7017 21.1827H17.8218C19.7041 21.1827 21.4627 22.0129 22.6118 23.4353L22.6129 23.4367L26.4531 28.1728L26.6383 28.4011L26.9175 28.4929L31.5854 30.0277C31.586 30.0279 31.5866 30.0281 31.5872 30.0283C32.4087 30.3034 32.8956 31.2153 32.6128 32.1039Z" stroke="#FF914D" stroke-width="2"/>
<path d="M36.2863 41.0075L36.2896 41.003L41.5949 33.8443C41.6951 33.7177 41.8882 33.6156 42.1421 33.6156C42.3977 33.6156 42.5921 33.7192 42.6919 33.8472L48.062 40.9432C48.0624 40.9436 48.0627 40.9441 48.063 40.9445C48.1744 41.0941 48.2209 41.3232 48.0867 41.6414C47.991 41.8145 47.7641 41.9673 47.5183 41.9673H44.1902H43.1902V42.9673V44.8875C43.1902 50.6075 38.5817 55.2156 32.8621 55.2156H28.8942C28.3586 55.2156 27.9103 54.7673 27.9103 54.2317C27.9103 53.696 28.3586 53.2478 28.8942 53.2478H32.8621C37.4465 53.2478 41.1581 49.5362 41.1581 44.9518V43.0317V42.0317H40.1581H36.83C36.5189 42.0317 36.342 41.8873 36.272 41.7298L36.2539 41.6891L36.2323 41.6502C36.1135 41.4363 36.1266 41.2205 36.2863 41.0075Z" stroke="#FF914D" stroke-width="2"/>
<path d="M52.6616 16.0386V21.9763C52.6616 22.7217 52.068 23.3442 51.2937 23.3442H33.0537C32.3082 23.3442 31.6858 22.7506 31.6858 21.9763V16.0359C33.5101 16.2954 35.415 16.4825 37.4523 16.5977C37.924 18.2191 39.4304 19.3919 41.1818 19.3919H43.1655C43.1656 19.3919 43.1656 19.3919 43.1657 19.3919C44.944 19.3919 46.4846 18.2381 46.9217 16.5959C48.9476 16.4814 50.8697 16.2958 52.6616 16.0386Z" stroke="#FF914D" stroke-width="2"/>
<path d="M54.3245 11.5099C52.3847 11.9356 49.9318 12.2247 46.9022 12.4127C46.447 10.7757 44.9524 9.58393 43.1648 9.58393H41.1809C39.3883 9.58393 37.8903 10.7824 37.4396 12.4265C34.4396 12.2789 31.9747 11.949 29.9572 11.5672L29.9576 8.0881V8.08798C29.9576 7.29636 30.5337 6.72009 31.3255 6.72009H36.5738H37.5738V5.72009V3.99198C37.5738 2.6884 38.6623 1.59998 39.9658 1.59998H44.3175C45.621 1.59998 46.7094 2.68832 46.7095 3.99172C46.7095 3.9918 46.7095 3.99189 46.7095 3.99198L46.7091 5.71983L46.7088 6.72009H47.7091H52.9571L52.9571 6.72015C53.7495 6.72015 54.325 7.36059 54.3245 8.02295V8.02369V11.5099ZM44.8297 6.52812H45.8299L45.8297 5.52783L45.8292 3.99201C45.8292 3.03918 45.0412 2.47995 44.3172 2.47995H39.9654C39.0125 2.47995 38.4533 3.26797 38.4533 3.99201V3.9923L38.4538 5.52842L38.4541 6.52812H39.4538H44.8297Z" stroke="#FF914D" stroke-width="2"/>
<path d="M42.9338 13.7609V15.2805H41.4142V13.7609H42.9338Z" stroke="#FF914D" stroke-width="2"/>
</svg>
