<svg width="66" height="63" viewBox="0 0 66 63" fill="none" xmlns="http://www.w3.org/2000/svg">
<path d="M2.7983 24.7775C1.50158 26.0283 0.772377 27.7554 0.780536 29.5571L0.780536 41.1498L0.780537 41.15C0.782765 43.2343 1.61194 45.2324 3.08595 46.706C4.55963 48.18 6.55774 49.0091 8.64192 49.0114H8.64214H14.952V57.9543C14.952 58.9774 15.3583 59.9582 16.0815 60.6818L16.0816 60.6819C16.7532 61.3531 17.6462 61.7513 18.5891 61.8052L18.5885 61.8117H18.8091C19.8322 61.8117 20.813 61.4053 21.5366 60.6821L21.5367 60.682C22.2599 59.9584 22.6663 58.9776 22.6663 57.9545V44.4688C22.6663 42.9608 22.067 41.5149 21.001 40.4484L21.0009 40.4484C19.9345 39.3823 18.4885 38.7831 16.9805 38.7831H14.0993V29.7773C14.1165 28.0204 13.4552 26.3242 12.2537 25.0422C11.052 23.7596 9.40228 22.9897 7.6473 22.8931L7.6473 22.893L7.64151 22.8929C5.83967 22.846 4.09449 23.525 2.7983 24.7775ZM2.7983 24.7775C2.79829 24.7775 2.79827 24.7775 2.79825 24.7775L2.93722 24.9214L2.79837 24.7774C2.79835 24.7774 2.79833 24.7775 2.7983 24.7775ZM17.9948 59.3642L17.9947 59.3641C17.491 59.0736 17.1804 58.5356 17.1804 57.9539V47.8968C17.1804 47.6013 17.0629 47.3179 16.854 47.109C16.6451 46.9001 16.3617 46.7825 16.0661 46.7825H8.64203C7.14822 46.7825 5.71513 46.1889 4.65888 45.1326C3.60266 44.0764 3.00901 42.6433 3.00901 41.1495V29.5563C3.00901 28.3817 3.47509 27.2548 4.30509 26.4231C5.1337 25.5933 6.2573 25.1249 7.42973 25.1212L7.56905 25.1294C7.56918 25.1294 7.5693 25.1294 7.56942 25.1294C8.74662 25.204 9.85022 25.7284 10.6509 26.5946L10.651 26.5946C11.4523 27.461 11.889 28.6023 11.8706 29.7817H11.8706V29.7848V39.8968C11.8706 40.5122 12.3695 41.0111 12.9849 41.0111H16.9804C17.8974 41.0111 18.7765 41.3752 19.4251 42.0234C19.4251 42.0234 19.4252 42.0235 19.4252 42.0235C19.4252 42.0235 19.4252 42.0235 19.4252 42.0235C20.0734 42.6722 20.4376 43.5512 20.4376 44.4682V57.9539C20.4376 58.5356 20.127 59.0735 19.6233 59.3641L19.6232 59.3642C19.1195 59.6552 18.4985 59.6552 17.9948 59.3642Z" fill="#FF914D" stroke="#FF914D" stroke-width="0.4"/>
<path d="M2.72285 10.3815L2.7229 10.3814C3.97284 9.13198 5.66792 8.42964 7.43527 8.42964C9.20261 8.42964 10.8977 9.13196 12.1472 10.3815C13.3972 11.6314 14.099 13.3266 14.099 15.0939C14.099 16.8611 13.3972 18.5562 12.1472 19.8058C12.1472 19.8058 12.1472 19.8058 12.1472 19.8058M2.72285 10.3815L2.8643 10.5229C1.6523 11.7354 0.971497 13.3796 0.971497 15.0939C0.971497 16.8082 1.6523 18.4524 2.8643 19.6644C4.07675 20.8768 5.72098 21.5576 7.43527 21.5576C9.14956 21.5576 10.7938 20.8768 12.0058 19.6644L12.1472 19.8058M2.72285 10.3815C1.47335 11.6315 0.771497 13.3266 0.771497 15.0939C0.771497 16.8612 1.47335 18.5563 2.72288 19.8058C3.97285 21.0558 5.66795 21.7576 7.43527 21.7576C9.20255 21.7576 10.8976 21.0558 12.1472 19.8058M2.72285 10.3815L12.1472 19.8058M4.29776 11.9678L4.29775 11.9678C3.46609 12.7999 2.99919 13.9289 3.00007 15.1057V15.1058C3.0005 16.2826 3.46909 17.4112 4.30203 18.2425L4.29776 11.9678ZM4.29776 11.9678C5.12986 11.1352 6.25841 10.6675 7.43527 10.6675C8.60995 10.6675 9.73691 11.1336 10.5686 11.9635C11.3999 12.7936 11.8684 13.9196 11.8706 15.0942V15.0943C11.8731 16.2711 11.4076 17.4005 10.5767 18.2339L10.5767 18.234M4.29776 11.9678L10.5767 18.234M10.5767 18.234C9.74583 19.0678 8.61821 19.5368 7.44135 19.5386L10.5767 18.234ZM7.44126 19.5386C6.26434 19.5397 5.13497 19.0737 4.30204 18.2425L7.44126 19.5386Z" fill="#FF914D" stroke="#FF914D" stroke-width="0.4"/>
<path d="M44.4245 60.6822L44.4244 60.6821C43.7013 59.9585 43.2949 58.9777 43.2949 57.9546V44.4689C43.2949 42.961 43.8941 41.5149 44.9602 40.4485L44.9603 40.4485C46.0268 39.3824 47.4727 38.7832 48.9806 38.7832H51.8708V29.7866C51.8513 28.0305 52.5104 26.3344 53.7105 25.0519C54.9108 23.7691 56.5597 22.9992 58.3138 22.9022L58.3184 22.902L58.3184 22.902C60.1194 22.8436 61.8676 23.5188 63.1615 24.7735L63.0222 24.9171L63.1615 24.7735C64.4552 26.0281 65.1843 27.7545 65.1808 29.5569C65.1808 29.557 65.1808 29.5571 65.1808 29.5573M44.4245 60.6822L64.9808 29.5569L65.1808 29.5573M44.4245 60.6822C45.1482 61.4054 46.1289 61.8117 47.1521 61.8117C48.1752 61.8117 49.1561 61.4054 49.8797 60.6822L49.8798 60.6821C50.603 59.9585 51.0093 58.9777 51.0093 57.9546V49.0117M44.4245 60.6822L51.0093 49.0117M65.1808 29.5573L65.1808 41.15V41.1502C65.1785 43.2327 64.3507 45.2293 62.879 46.703L62.7374 46.5617M65.1808 29.5573L51.0093 49.0117M62.7374 46.5617C61.303 47.9978 59.358 48.8068 57.3281 48.8117H51.0093V49.0117M62.7374 46.5617L45.1017 40.5899C44.0731 41.6188 43.4949 43.014 43.4949 44.4689V57.9546C43.4949 58.9246 43.8802 59.8546 44.5659 60.5408C45.2521 61.2265 46.182 61.6117 47.1521 61.6117C48.1221 61.6117 49.0522 61.2265 49.7383 60.5408C50.4241 59.8546 50.8093 58.9247 50.8093 57.9546V49.0117H51.0093M62.7374 46.5617L62.879 46.703C61.4072 48.1766 59.4114 49.0067 57.3286 49.0117L57.3281 49.0117H51.0093M46.3377 59.3648L46.3378 59.3649C46.8416 59.6559 47.4626 59.6559 47.9663 59.3649L47.9664 59.3648C48.4701 59.0742 48.7806 58.5363 48.7806 57.9546V47.8975C48.7806 47.2821 49.2796 46.7832 49.8949 46.7832L57.3277 46.7832L57.328 46.7832M46.3377 59.3648L63.1521 41.1502C63.1521 42.6956 62.5387 44.1777 61.4467 45.2715C60.3547 46.3653 58.8734 46.981 57.328 46.9832V46.7832M46.3377 59.3648C45.8341 59.0743 45.5235 58.5363 45.5235 57.9546V44.4689C45.5235 43.5519 45.8877 42.6729 46.5359 42.0242C47.1846 41.3759 48.0636 41.0117 48.9807 41.0117L52.9851 41.0119C53.2806 41.0119 53.564 40.8943 53.773 40.6854C53.9819 40.4765 54.0994 40.1931 54.0994 39.8976V29.7856H54.0994M46.3377 59.3648L54.0994 29.7856M57.328 46.7832C58.8203 46.781 60.2507 46.1865 61.3052 45.1302C62.3597 44.0739 62.9521 42.6426 62.9521 41.1502V29.557V29.5569C62.9525 28.3584 62.4673 27.2107 61.6066 26.3765C60.7467 25.5431 59.5858 25.0938 58.3887 25.1304M57.328 46.7832L58.3887 25.1304M58.3887 25.1304C57.2136 25.2056 56.1121 25.7303 55.3134 26.5957L58.3887 25.1304ZM54.0994 29.7856L54.0994 29.7822M54.0994 29.7856L54.0994 29.7822M54.0994 29.7822C54.0792 28.6037 54.5139 27.4624 55.3133 26.5958L54.0994 29.7822Z" fill="#FF914D" stroke="#FF914D" stroke-width="0.4"/>
<path d="M53.8097 19.8114L53.8098 19.8115L58.5255 21.5579L58.5258 21.7579C58.5258 21.7579 58.5258 21.7579 58.5258 21.7579C60.2917 21.7555 61.9841 21.0522 63.2318 19.8027L63.2318 19.8027C64.4795 18.5531 65.1805 16.8594 65.1805 15.094C65.1805 13.3257 64.4783 11.6307 63.2277 10.3806C61.9771 9.13057 60.2812 8.42918 58.5135 8.42964L58.5134 8.42964C56.7452 8.43058 55.0502 9.13386 53.801 10.3853C52.5519 11.6363 51.851 13.3322 51.8524 15.1004L51.8524 15.1005C51.8541 16.8683 52.5584 18.5628 53.8097 19.8114ZM55.3841 11.9629C56.2179 11.1312 57.3477 10.6656 58.525 10.6677C59.6985 10.6699 60.8232 11.1372 61.6528 11.9667C62.4823 12.7963 62.9497 13.9211 62.9518 15.0944C62.9539 16.2718 62.4883 17.4017 61.6566 18.2355L61.6566 18.2355C60.8254 19.0689 59.6968 19.5379 58.5191 19.5388C57.3419 19.5392 56.2124 19.0718 55.3803 18.2393L55.3803 18.2393C54.5477 17.4072 54.08 16.2778 54.0808 15.1001C54.0817 13.9228 54.5507 12.7942 55.3841 11.9629L55.3841 11.9629Z" fill="#FF914D" stroke="#FF914D" stroke-width="0.4"/>
<path d="M17.7393 35.4533H48.2216C48.517 35.4533 48.8005 35.3357 49.0094 35.1268C49.2183 34.9179 49.3358 34.6345 49.3358 34.339V28.8533C49.3358 28.5578 49.2183 28.2743 49.0094 28.0654C48.8005 27.8565 48.5171 27.739 48.2216 27.739H17.7393C17.1239 27.739 16.625 28.2379 16.625 28.8533V34.339C16.625 34.9543 17.1239 35.4533 17.7393 35.4533ZM47.1073 29.9675V33.2247H18.8536V29.9675H47.1073Z" fill="#FF914D" stroke="#FF914D" stroke-width="0.4"/>
<path d="M21.3587 18.8407L21.3615 18.8407C21.3864 18.8416 21.4113 18.8417 21.4361 18.841L21.4767 18.8411L21.4779 18.8389C21.7223 18.8224 21.9557 18.7259 22.1412 18.5617L22.1424 18.5606L25.8978 15.1833L36.0703 15.1833L36.0707 15.1833C37.0321 15.181 37.9537 14.7978 38.6335 14.118C39.3133 13.4383 39.6964 12.5166 39.6988 11.5553V11.5548V3.85663L39.6988 3.85614C39.6964 2.8948 39.3133 1.97317 38.6335 1.29338C37.9537 0.613583 37.0321 0.230463 36.0707 0.228101H36.0703H23.8371V0.22809L23.835 0.228111C22.8791 0.23803 21.9663 0.625014 21.294 1.30438L21.294 1.30444C20.6222 1.98392 20.2451 2.90092 20.2451 3.85672L20.2451 17.7264L20.2451 17.7269C20.2462 18.1645 20.5028 18.5611 20.9019 18.7408C21.0453 18.8059 21.2008 18.8402 21.3587 18.8407ZM38.4921 1.4348C39.1345 2.07721 39.4966 2.94817 39.4988 3.85663L38.4921 1.4348ZM24.7015 13.2334L24.7008 13.234L22.4371 15.2427V3.85729C22.4417 3.08561 23.066 2.4613 23.8377 2.45671L36.0691 2.45682C36.0692 2.45682 36.0694 2.45683 36.0696 2.45683C36.8412 2.46142 37.4655 3.08566 37.4702 3.85728V11.5545C37.4655 12.3262 36.8412 12.9504 36.0696 12.955L25.4372 12.955L25.4368 12.955C25.1658 12.9555 24.9048 13.0546 24.7015 13.2334Z" fill="#FF914D" stroke="#FF914D" stroke-width="0.4"/>
<path d="M43.4501 18.8973V9.99157C43.4501 9.74156 43.3507 9.50178 43.1738 9.32496C42.997 9.14813 42.7572 9.04871 42.5072 9.04871H38.5849C37.9696 9.04871 37.4707 8.5498 37.4707 7.93443C37.4707 7.31906 37.9696 6.82014 38.5849 6.82014H42.5439H42.5445C43.3848 6.82252 44.1899 7.15742 44.784 7.75149L44.784 7.75154C45.378 8.34599 45.7129 9.15064 45.7153 9.99097L45.7153 9.99154L45.7153 21.3835V21.384C45.7142 21.8217 45.4577 22.2182 45.0584 22.3979M43.4501 18.8973L45.058 22.3981C45.0582 22.398 45.0583 22.398 45.0584 22.3979M43.4501 18.8973L41.9561 17.5602C41.9559 17.56 41.9557 17.5598 41.9555 17.5596C41.7514 17.3744 41.4856 17.2712 41.2094 17.2706H41.209H32.5599C32.3099 17.2706 32.0701 17.1712 31.8933 16.9944C31.7164 16.8176 31.617 16.5778 31.617 16.3278V14.0693C31.617 13.4539 31.1181 12.955 30.5027 12.955C29.8874 12.955 29.3884 13.4539 29.3884 14.0693V16.355C29.3884 17.196 29.7225 18.0026 30.3171 18.5977L30.3172 18.5978C30.9123 19.1924 31.7189 19.5264 32.5599 19.5264H40.8044L43.8561 22.2193L43.8562 22.2194C44.0622 22.4008 44.3273 22.4998 44.6017 22.4979M43.4501 18.8973L44.6017 22.4979M45.0584 22.3979C44.9151 22.463 44.7596 22.4973 44.6017 22.4979M45.0584 22.3979L44.6017 22.4979M44.6017 22.4979L44.601 22.2979L44.6026 22.4979C44.6023 22.4979 44.602 22.4979 44.6017 22.4979Z" fill="#FF914D" stroke="#FF914D" stroke-width="0.4"/>
<path d="M25.9678 6.9004H33.9678C34.5832 6.9004 35.0821 6.40148 35.0821 5.78611C35.0821 5.17074 34.5832 4.67183 33.9678 4.67183H25.9678C25.3524 4.67183 24.8535 5.17074 24.8535 5.78611C24.8535 6.40148 25.3524 6.9004 25.9678 6.9004Z" fill="#FF914D" stroke="#FF914D" stroke-width="0.4"/>
<path d="M25.9678 10.7395H33.9678C34.5832 10.7395 35.0821 10.2406 35.0821 9.62522C35.0821 9.00985 34.5832 8.51094 33.9678 8.51094H25.9678C25.3524 8.51094 24.8535 9.00985 24.8535 9.62522C24.8535 10.2406 25.3524 10.7395 25.9678 10.7395Z" fill="#FF914D" stroke="#FF914D" stroke-width="0.4"/>
</svg>
