<svg width="50" height="50" viewBox="0 0 50 50" fill="none" xmlns="http://www.w3.org/2000/svg">
<path d="M17.7295 25.8755L17.7295 25.8755C17.7034 25.3793 18.0834 24.9556 18.5797 24.9289C19.0642 24.8932 19.5013 25.2857 19.5273 25.7802L20.3273 40.9801L20.3273 40.9802L20.2275 40.9854C20.2395 41.2118 20.1538 41.4336 19.994 41.5935L17.594 43.9935C17.4382 44.1493 17.2333 44.2278 17.0284 44.2278C16.8234 44.2278 16.6185 44.1493 16.4627 43.9926L17.7295 25.8755ZM17.7295 25.8755L18.5088 40.6756L17.0284 42.1556L15.548 40.6747L16.3273 25.8746L16.3273 25.8744M17.7295 25.8755L16.3273 25.8744M16.3273 25.8744C16.3524 25.3781 15.9722 24.9555 15.4769 24.928C14.9579 24.8931 14.5563 25.2878 14.5294 25.7791L14.5294 25.7793M16.3273 25.8744L14.5294 25.7793M14.5294 25.7793L13.7294 40.9792M14.5294 25.7793L13.7294 40.9792M13.7294 40.9792C13.7294 40.9792 13.7294 40.9793 13.7294 40.9793L13.7294 40.9792Z" fill="#FF914D" stroke="#FF914D" stroke-width="0.2"/>
<path d="M5.16555 42.539C5.59788 42.605 5.92832 42.9777 5.92832 43.4287C5.92832 43.9263 5.52596 44.3287 5.02832 44.3287H1.82832C1.33068 44.3287 0.92832 43.9263 0.92832 43.4287V29.6264C0.92832 28.7146 1.25529 27.765 1.78667 26.9548C2.31805 26.1446 3.0585 25.4668 3.89384 25.1038L12.8234 21.2202V19.4968C12.1258 18.9577 10.9312 17.6711 10.1075 14.8411C9.80793 14.4714 9.14954 13.554 8.92091 12.4C8.8471 12.0339 8.80197 11.5184 8.85867 11.0032C8.91349 10.5052 9.06494 9.99495 9.39077 9.62409C9.33217 9.05241 9.27298 8.10228 9.36898 7.07439C9.46738 6.02094 9.72966 4.87571 10.3317 3.97308C11.8358 1.71796 14.8863 0.928564 17.0283 0.928564C19.1704 0.928564 22.2209 1.71796 23.7271 3.97116L23.7272 3.97125C24.3292 4.87389 24.5913 6.01902 24.6896 7.07241C24.7855 8.10024 24.7263 9.05035 24.6681 9.62216C24.9944 9.99289 25.146 10.5034 25.2006 11.0021C25.2571 11.5176 25.2116 12.0339 25.1371 12.4012C24.9086 13.5527 24.2501 14.47 23.9509 14.8394C23.1272 17.6687 21.9326 18.9552 21.2351 19.495V21.2184L30.1645 25.1021C30.5262 25.2589 30.8766 25.4779 31.2055 25.7512L5.16555 42.539ZM5.16555 42.539L5.16922 42.5285H5.02837H2.72837V29.6263C2.72837 29.0864 2.94643 28.4767 3.29542 27.9444C3.64441 27.4122 4.11651 26.9693 4.61148 26.7546L4.61156 26.7545L14.0825 22.6362L14.0826 22.6362C14.4108 22.4932 14.6243 22.1694 14.6243 21.8111V19.012C14.6243 18.6699 14.4137 18.3519 14.1126 18.2003L14.1124 18.2002C14.1126 18.2003 14.1124 18.2002 14.112 18.2C14.0831 18.1842 12.6929 17.422 11.7881 14.1687L11.788 14.1681C11.7494 14.0326 11.6786 13.9046 11.5828 13.8002M5.16555 42.539L31.2056 25.7513C31.5883 26.0683 31.6415 26.6358 31.3236 27.0184L31.3234 27.0187C31.1443 27.2329 30.8876 27.3434 30.6297 27.3434C30.4275 27.3434 30.2238 27.276 30.0556 27.1364C29.8544 26.9695 29.6504 26.8406 29.4472 26.7531L29.4469 26.7529L19.9765 22.6347L20.0163 22.5429L19.9764 22.6346C19.6471 22.4916 19.4346 22.1676 19.4346 21.8095V19.0104C19.4346 18.6573 19.6425 18.3359 19.9639 18.1907M11.5828 13.8002C11.583 13.8004 11.5831 13.8005 11.5832 13.8006L11.5835 13.8009L11.5087 13.8674L11.5824 13.7997C11.5825 13.7999 11.5827 13.8 11.5828 13.8002ZM11.5828 13.8002C11.558 13.7725 10.8771 13.0068 10.6876 12.0489L10.6875 12.0484C10.634 11.785 10.6251 11.5121 10.6427 11.285C10.6515 11.1716 10.6667 11.0711 10.6857 10.9902C10.7007 10.9265 10.717 10.8794 10.7317 10.8484M10.7317 10.8484C11.0936 10.6794 11.305 10.2884 11.2382 9.88636M10.7317 10.8484C10.721 10.8534 10.7102 10.8582 10.6992 10.8628L10.6605 10.7706M10.7317 10.8484C10.7362 10.8389 10.7406 10.8309 10.7448 10.8244L10.6605 10.7706M11.2382 9.88636C11.164 9.43851 11.0814 8.55224 11.1342 7.60386C11.1872 6.65229 11.3757 5.65562 11.8307 4.97338L11.8308 4.97329C12.4153 4.0949 13.3642 3.53274 14.3485 3.19018C15.3321 2.84787 16.3404 2.72863 17.0284 2.72863C17.7163 2.72863 18.7247 2.84789 19.7085 3.18995C20.6931 3.53226 21.6424 4.09391 22.2278 4.97122M11.2382 9.88636L11.1395 9.90269M11.2382 9.88636C11.2382 9.88634 11.2382 9.88631 11.2382 9.88629L11.1395 9.90269M22.2278 4.97122C22.6808 5.65073 22.8686 6.64711 22.9218 7.59946C22.9748 8.54855 22.8931 9.43649 22.8203 9.88542M22.2278 4.97122C22.2278 4.97121 22.2278 4.9712 22.2278 4.97119L22.311 4.91572M22.2278 4.97122L22.311 4.91572M22.8203 9.88542C22.755 10.2867 22.9658 10.6777 23.3269 10.8467M22.8203 9.88542C22.8203 9.8854 22.8203 9.88538 22.8203 9.88536L22.919 9.90143M22.8203 9.88542L22.919 9.90143M23.3269 10.8467C23.3417 10.8776 23.358 10.9246 23.373 10.9884C23.3921 11.0693 23.4074 11.1699 23.4161 11.2835C23.4337 11.511 23.4245 11.7849 23.3706 12.0498L23.3705 12.0504C23.1877 12.9757 22.5434 13.7213 22.4785 13.7957M23.3269 10.8467C23.3224 10.8373 23.3181 10.8294 23.3139 10.823L23.398 10.7688M23.3269 10.8467C23.3376 10.8516 23.3483 10.8564 23.3592 10.861L23.398 10.7688M22.4785 13.7957L22.4785 13.7957C22.381 13.9002 22.3091 14.0279 22.2712 14.167M22.4785 13.7957L22.5516 13.8639L22.4733 13.8017C22.4736 13.8013 22.4748 13.8 22.4768 13.7977C22.4773 13.7971 22.4779 13.7964 22.4785 13.7957ZM22.2712 14.167C21.8118 15.8188 21.2274 16.8281 20.7623 17.4224C20.5297 17.7197 20.3266 17.9135 20.1833 18.0322C20.1116 18.0916 20.0548 18.1322 20.0167 18.1577C19.9977 18.1704 19.9833 18.1793 19.9739 18.1849L19.9639 18.1907M22.2712 14.167C22.2713 14.1669 22.2713 14.1667 22.2713 14.1666L22.3677 14.1934L22.2712 14.1672C22.2712 14.1671 22.2712 14.167 22.2712 14.167ZM19.9639 18.1907L19.9637 18.1908L19.9612 18.1922L19.9599 18.193L19.9577 18.1943L19.9527 18.1975C19.9482 18.2008 19.9332 18.2543 19.9525 18.308C19.9618 18.3338 19.979 18.3597 20.0092 18.38V18.28L19.9685 18.1887C19.967 18.1893 19.9655 18.19 19.9639 18.1907ZM23.398 10.7688C23.0596 10.6264 22.8592 10.2688 22.919 9.90143M23.398 10.7688C23.5061 10.9367 23.5806 11.5193 23.4686 12.0698L22.919 9.90143M22.919 9.90143C23.0668 8.99069 23.2476 6.32063 22.311 4.91572M22.919 9.90143L22.311 4.91572M22.311 4.91572C21.107 3.11123 18.4234 2.62863 17.0284 2.62863C15.6333 2.62863 12.9498 3.11115 11.7476 4.91789M22.311 4.91572L11.7476 4.91789M11.7476 4.91789C10.8069 6.32818 10.9891 8.99377 11.1395 9.90269M11.7476 4.91789L10.6605 10.7706M11.1395 9.90269C11.2007 10.2706 10.9998 10.6281 10.6605 10.7706M10.6605 10.7706C10.5529 10.9388 10.4784 11.5209 10.5895 12.0683L10.6605 10.7706ZM20.0637 18.2465C20.0489 18.2562 20.037 18.2636 20.0281 18.269L20.0092 18.18C20.0371 18.1989 20.054 18.2226 20.0637 18.2465Z" fill="#FF914D" stroke="#FF914D" stroke-width="0.2"/>
<path d="M7.59012 42.7883L7.59008 42.7882L7.58779 42.7906C7.42549 42.9594 7.32773 43.1929 7.32773 43.4278C7.32773 43.6628 7.42561 43.8953 7.58758 44.0647L7.58751 44.0648L7.59078 44.0679C7.75885 44.2285 7.98311 44.3278 8.22773 44.3278C8.46302 44.3278 8.6953 44.2289 8.86447 44.0682L8.86456 44.0682L8.8681 44.0645C9.02881 43.8954 9.12773 43.6631 9.12773 43.4278C9.12773 43.1832 9.02849 42.9589 8.8679 42.7908L8.86795 42.7908L8.86535 42.7883C8.52251 42.4545 7.93296 42.4545 7.59012 42.7883Z" fill="#FF914D" stroke="#FF914D" stroke-width="0.2"/>
<path d="M48.3825 32.2941L48.3827 32.2942C48.7106 32.3523 48.9809 32.585 49.0835 32.9031C49.187 33.2202 49.106 33.5673 48.8746 33.8068L48.8746 33.8068L43.0529 39.8181L44.2298 48.103C44.2298 48.103 44.2298 48.103 44.2298 48.1031L44.2298 48.1031L44.1308 48.1172C44.1728 48.41 44.0496 48.7029 43.8094 48.8765L48.3825 32.2941ZM48.3825 32.2941L40.1406 30.8543L36.2232 23.4601L36.2231 23.4599C36.0626 23.1585 35.7395 23.0145 35.4276 23.0145C35.1156 23.0145 34.7926 23.1585 34.6323 23.46L34.6322 23.4601L30.7149 30.8543L22.473 32.2941L22.4729 32.2941C22.1446 32.3519 21.8744 32.5858 21.7718 32.9034C21.6694 33.2203 21.7503 33.5672 21.9806 33.8066L21.9809 33.8068L27.8026 39.8181L26.6256 48.1031L26.6256 48.1031C26.5789 48.4326 26.7184 48.762 26.9872 48.9574C27.2576 49.1541 27.615 49.1845 27.9115 49.0382C27.9116 49.0381 27.9116 49.0381 27.9117 49.0381L35.4277 45.3575L42.9431 49.0382C42.9431 49.0382 42.9431 49.0382 42.9431 49.0382C43.0685 49.0996 43.2032 49.1292 43.3389 49.1292C43.525 49.1292 43.7112 49.0716 43.868 48.9576L48.3825 32.2941ZM41.4528 38.8821L41.4529 38.882L46.3999 33.7752L39.3971 32.5524L39.3968 32.5523C39.1223 32.5037 38.8868 32.332 38.7563 32.0865L38.7562 32.0864L35.4277 25.8036L32.1 32.0855C31.9694 32.3321 31.7337 32.5028 31.4594 32.5514L31.4591 32.5515L24.4563 33.7743L29.4036 38.882L29.4037 38.8822C29.5965 39.082 29.6864 39.3592 29.6478 39.6343L29.6477 39.6344L28.6479 46.673L35.0328 43.5458L41.4528 38.8821ZM41.4528 38.8821C41.2594 39.082 41.1701 39.3593 41.2087 39.6343L41.2087 39.6344M41.4528 38.8821L41.2087 39.6344M41.2087 39.6344L42.2085 46.673M41.2087 39.6344L42.2085 46.673M42.2085 46.673L35.8236 43.5457L35.823 43.5455C35.6988 43.4856 35.5639 43.4539 35.4282 43.4539C35.2931 43.4539 35.1575 43.4845 35.0329 43.5457L42.2085 46.673Z" fill="#FF914D" stroke="#FF914D" stroke-width="0.2"/>
<path d="M48.3823 13.5918L48.3825 13.5919C48.7105 13.65 48.9809 13.8833 49.0826 14.2016C49.1859 14.5186 49.1049 14.8655 48.8736 15.1049L48.8735 15.105L46.1156 17.9525L46.6725 21.8776C46.7197 22.2076 46.5811 22.5361 46.3109 22.7325L46.3106 22.7327C46.1539 22.8457 45.9677 22.9034 45.7816 22.9034C45.6467 22.9034 45.5117 22.8726 45.3861 22.8116L45.3858 22.8115L41.8275 21.0674L38.2684 22.8119L38.2683 22.8119C37.9695 22.9581 37.6135 22.9274 37.3435 22.7322L37.3432 22.7319C37.0745 22.5361 36.9349 22.2077 36.9816 21.8773L36.9817 21.8773L37.5386 17.952L34.7807 15.1045L34.7804 15.1043C34.5501 14.8649 34.4692 14.518 34.5716 14.2011C34.5716 14.2011 34.5716 14.2011 34.5716 14.2011L34.6668 14.2319C34.7579 13.9497 34.998 13.7417 35.29 13.6903L48.3823 13.5918ZM48.3823 13.5918L44.4787 12.9101L48.3823 13.5918ZM44.5165 17.0158L44.5164 17.0159C44.323 17.2159 44.2337 17.4931 44.2723 17.7681L44.2723 17.7682L44.6529 20.4468L42.2243 19.2563L42.2234 19.2558C42.0986 19.1962 41.9639 19.1644 41.8285 19.1644C41.6933 19.1644 41.5577 19.195 41.4327 19.2563L41.4327 19.2563L39.0041 20.4468L39.3847 17.7682L39.3847 17.7681C39.4234 17.493 39.3335 17.2158 39.1407 17.016L39.1406 17.0158L37.2576 15.0724L39.9221 14.6067L39.9223 14.6067C40.1967 14.558 40.4323 14.3873 40.5629 14.1407L40.5629 14.1407L41.8277 11.7514L43.0938 14.1412L43.0939 14.1413C43.2243 14.3868 43.4598 14.5585 43.7343 14.6072L43.7346 14.6072L46.399 15.0729L44.5165 17.0158Z" fill="#FF914D" stroke="#FF914D" stroke-width="0.2"/>
<path d="M33.0235 1.40478L33.0236 1.40495L34.3641 3.93449L37.1837 4.42695C37.1837 4.42696 37.1837 4.42696 37.1837 4.42696C37.5121 4.48421 37.7824 4.71821 37.8849 5.03534C37.9873 5.35209 37.9075 5.70018 37.6731 5.94072C37.673 5.94076 37.673 5.94079 37.673 5.94082L35.6818 7.99651L36.0847 10.831C36.1319 11.161 35.9932 11.4895 35.723 11.6859L35.7227 11.6861C35.566 11.7991 35.3799 11.8568 35.1937 11.8568C35.0585 11.8568 34.9233 11.8261 34.7984 11.7649L32.2263 10.5047L29.6569 11.7649C29.6569 11.7649 29.6569 11.7649 29.6569 11.7649C29.3589 11.9111 29.002 11.8804 28.732 11.6851L28.7317 11.6849C28.463 11.4891 28.3234 11.1607 28.3701 10.8303L28.3701 10.8302L28.7731 7.99561L26.7816 5.9397L26.7814 5.93946C26.551 5.70001 26.4702 5.35312 26.5726 5.03543L26.5726 5.03529C26.6751 4.71884 26.9452 4.48379 27.2738 4.42696L33.0235 1.40478ZM33.0235 1.40478C32.8629 1.10329 32.5398 0.95957 32.2278 0.959815C31.9158 0.96006 31.5929 1.10427 31.4326 1.40573L31.4325 1.40587L30.093 3.93537L27.2739 4.42693L33.0235 1.40478ZM34.0844 7.06042L34.0844 7.06046C33.8909 7.26043 33.8016 7.53769 33.8403 7.81265L33.8403 7.81278L34.0656 9.40188L32.623 8.69597L32.6225 8.6957C32.4983 8.63587 32.3634 8.60409 32.2277 8.60409C32.0925 8.60409 31.9569 8.63475 31.8319 8.69599L31.8759 8.78579L31.8319 8.69599L30.3916 9.40176L30.6169 7.81278L30.6169 7.81265C30.6556 7.53759 30.5657 7.2604 30.3729 7.06055L30.3727 7.06039L29.256 5.90803L30.8355 5.63246L30.8358 5.63241C31.1101 5.58377 31.3457 5.41307 31.4763 5.16649C31.4763 5.16648 31.4763 5.16647 31.4763 5.16646L32.2273 3.74931L32.9791 5.16742L32.9792 5.16768C33.1096 5.41199 33.3451 5.58425 33.6198 5.63247L33.6199 5.63249L35.2004 5.90808L34.0844 7.06042Z" fill="#FF914D" stroke="#FF914D" stroke-width="0.2"/>
</svg>
