<svg width="64" height="56" viewBox="0 0 64 56" fill="none" xmlns="http://www.w3.org/2000/svg">
<path d="M32.0001 25.5384C38.7886 25.5384 44.308 20.0163 44.308 13.2306C44.308 6.44485 38.7886 0.922729 32.0001 0.922729C25.2144 0.922729 19.6923 6.44485 19.6923 13.2306C19.6923 20.0163 25.2144 25.5384 32.0001 25.5384ZM32.0001 5.84587C36.0727 5.84587 39.3848 9.15804 39.3848 13.2306C39.3848 17.3031 36.0727 20.6153 32.0001 20.6153C27.9276 20.6153 24.6154 17.3031 24.6154 13.2306C24.6154 9.15804 27.9276 5.84587 32.0001 5.84587Z" fill="#FF914D"/>
<path d="M15.9989 25.5385C17.3582 25.5385 18.4604 24.4363 18.4604 23.0769C18.4604 21.7176 17.3582 20.6154 15.9989 20.6154C12.6074 20.6154 9.84495 17.8557 9.84495 14.4615C9.84495 11.0672 12.6074 8.30754 15.9989 8.30754C17.3582 8.30754 18.4604 7.2053 18.4604 5.84597C18.4604 4.48664 17.3582 3.3844 15.9989 3.3844C9.89145 3.3844 4.92181 8.35403 4.92181 14.4615C4.92181 20.5689 9.89145 25.5385 15.9989 25.5385Z" fill="#FF914D"/>
<path d="M48.0009 20.6154C46.6415 20.6154 45.5393 21.7176 45.5393 23.0769C45.5393 24.4363 46.6415 25.5385 48.0009 25.5385C54.1083 25.5385 59.0779 20.5689 59.0779 14.4615C59.0779 8.35403 54.1083 3.3844 48.0009 3.3844C46.6415 3.3844 45.5393 4.48664 45.5393 5.84597C45.5393 7.2053 46.6415 8.30754 48.0009 8.30754C51.3951 8.30754 54.1548 11.0672 54.1548 14.4615C54.1548 17.8557 51.3951 20.6154 48.0009 20.6154Z" fill="#FF914D"/>
<path d="M36.9227 28H27.0765C20.2907 28 14.7686 33.5221 14.7686 40.3078V52.6157C14.7686 53.975 15.8709 55.0773 17.2302 55.0773C18.5895 55.0773 19.6918 53.975 19.6918 52.6157V40.3078C19.6918 36.2353 23.0039 32.9231 27.0765 32.9231H36.9227C40.9953 32.9231 44.3074 36.2353 44.3074 40.3078V52.6157C44.3074 53.975 45.4097 55.0773 46.769 55.0773C48.1283 55.0773 49.2306 53.975 49.2306 52.6157V40.3078C49.2306 33.5221 43.7112 28 36.9227 28Z" fill="#FF914D"/>
<path d="M51.6922 28C50.3328 28 49.2306 29.1022 49.2306 30.4616C49.2306 31.8209 50.3328 32.9231 51.6922 32.9231C55.7647 32.9231 59.0769 36.2353 59.0769 40.3078V47.6925C59.0769 49.0519 60.1791 50.1541 61.5384 50.1541C62.8978 50.1541 64 49.0519 64 47.6925V40.3078C64 33.5221 58.4806 28 51.6922 28Z" fill="#FF914D"/>
<path d="M12.307 28C5.52133 28 -0.000793457 33.5221 -0.000793457 40.3078V47.6925C-0.000793457 49.0519 1.10144 50.1541 2.46078 50.1541C3.82011 50.1541 4.92234 49.0519 4.92234 47.6925V40.3078C4.92234 36.2353 8.23452 32.9231 12.307 32.9231C13.6664 32.9231 14.7686 31.8209 14.7686 30.4616C14.7686 29.1022 13.6664 28 12.307 28Z" fill="#FF914D"/>
</svg>
