<svg width="500" height="445" viewBox="0 0 500 445" fill="none" xmlns="http://www.w3.org/2000/svg">
<g clip-path="url(#clip0_1_791)">
<path d="M443.92 288.92H263.17C259.94 288.92 257.31 286.29 257.31 283.06V19.79C257.31 16.56 259.94 13.93 263.17 13.93H443.92C447.15 13.93 449.78 16.56 449.78 19.79V283.06C449.78 286.29 447.15 288.92 443.92 288.92ZM263.17 14.18C260.08 14.18 257.56 16.7 257.56 19.79V283.06C257.56 286.15 260.08 288.67 263.17 288.67H443.92C447.01 288.67 449.53 286.15 449.53 283.06V19.79C449.53 16.7 447.01 14.18 443.92 14.18H263.17Z" fill="#E0E0E0"/>
<path d="M235.49 288.92H54.7496C51.5196 288.92 48.8896 286.29 48.8896 283.06V19.79C48.8896 16.56 51.5196 13.93 54.7496 13.93H235.5C238.73 13.93 241.36 16.56 241.36 19.79V283.06C241.36 286.29 238.73 288.92 235.5 288.92H235.49ZM54.7496 14.18C51.6596 14.18 49.1396 16.7 49.1396 19.79V283.06C49.1396 286.15 51.6596 288.67 54.7496 288.67H235.5C238.59 288.67 241.11 286.15 241.11 283.06V19.79C241.11 16.7 238.59 14.18 235.5 14.18H54.7496Z" fill="#E0E0E0"/>
<path d="M500 311.25H0V311.5H500V311.25Z" fill="#E0E0E0"/>
<path d="M67.73 325.52H51.67V325.77H67.73V325.52Z" fill="#E0E0E0"/>
<path d="M223.88 322.81H170.35V323.06H223.88V322.81Z" fill="#E0E0E0"/>
<path d="M104.98 334.81H68.7305V335.06H104.98V334.81Z" fill="#E0E0E0"/>
<path d="M421.54 322.68H378.35V322.93H421.54V322.68Z" fill="#E0E0E0"/>
<path d="M436.78 322.68H430.45V322.93H436.78V322.68Z" fill="#E0E0E0"/>
<path d="M370.1 328.91H316.21V329.16H370.1V328.91Z" fill="#E0E0E0"/>
<path d="M259.54 314.64C257.86 317.95 256.87 321.49 256.54 325.06L251.03 326.2L252.23 336.97L257.85 336.88C258.96 340.29 260.7 343.53 263.07 346.39L259.99 351.08L268.45 357.85L272.35 353.82C275.66 355.5 279.2 356.49 282.77 356.82L283.91 362.33L294.68 361.13L294.59 355.51C298 354.4 301.24 352.66 304.1 350.29L308.79 353.37L315.56 344.9L311.53 341C313.21 337.69 314.2 334.15 314.53 330.58L320.03 329.44L318.83 318.67L313.21 318.76C312.1 315.35 310.36 312.11 307.99 309.25L311.07 304.56L302.6 297.79L298.7 301.82C295.39 300.14 291.85 299.15 288.28 298.81L287.14 293.3L276.37 294.5L276.46 300.12C273.05 301.23 269.81 302.97 266.95 305.34L262.26 302.26L255.49 310.73L259.52 314.63L259.54 314.64ZM294.59 316.26C300.58 321.05 301.55 329.79 296.76 335.78C291.97 341.77 283.23 342.74 277.24 337.95C271.25 333.16 270.28 324.42 275.07 318.43C279.86 312.44 288.6 311.47 294.59 316.26Z" fill="#F0F0F0"/>
<path d="M204.88 311.7C203.66 314.1 202.95 316.66 202.7 319.25L198.71 320.08L199.58 327.89L203.65 327.82C204.46 330.29 205.72 332.64 207.43 334.71L205.2 338.11L211.33 343.02L214.15 340.1C216.55 341.32 219.11 342.03 221.7 342.28L222.53 346.27L230.33 345.4L230.26 341.33C232.73 340.52 235.08 339.26 237.15 337.55L240.55 339.78L245.46 333.65L242.54 330.83C243.76 328.43 244.47 325.87 244.72 323.28L248.71 322.45L247.84 314.65L243.77 314.72C242.96 312.25 241.7 309.9 239.99 307.83L242.22 304.43L236.09 299.52L233.27 302.44C230.87 301.22 228.31 300.51 225.72 300.26L224.89 296.27L217.09 297.14L217.16 301.21C214.69 302.02 212.34 303.28 210.27 304.99L206.87 302.76L201.96 308.89L204.88 311.71V311.7ZM230.27 312.87C234.61 316.34 235.31 322.67 231.84 327.01C228.37 331.35 222.04 332.05 217.7 328.58C213.36 325.11 212.66 318.78 216.13 314.44C219.6 310.1 225.93 309.4 230.27 312.87Z" fill="#F0F0F0"/>
<path d="M235.57 351.81C235.07 352.79 234.78 353.84 234.68 354.91L233.04 355.25L233.4 358.45L235.07 358.42C235.4 359.43 235.92 360.4 236.62 361.24L235.71 362.63L238.23 364.64L239.39 363.44C240.37 363.94 241.42 364.23 242.49 364.33L242.83 365.97L246.03 365.61L246 363.94C247.01 363.61 247.98 363.09 248.82 362.39L250.21 363.3L252.22 360.78L251.02 359.62C251.52 358.64 251.81 357.59 251.91 356.52L253.55 356.18L253.19 352.98L251.52 353.01C251.19 352 250.67 351.04 249.97 350.19L250.88 348.8L248.36 346.79L247.2 347.99C246.22 347.49 245.17 347.2 244.1 347.1L243.76 345.46L240.56 345.82L240.59 347.49C239.58 347.82 238.61 348.34 237.77 349.04L236.38 348.13L234.37 350.65L235.57 351.81ZM245.98 352.29C247.76 353.71 248.05 356.31 246.62 358.09C245.2 359.87 242.6 360.16 240.82 358.73C239.04 357.31 238.75 354.71 240.18 352.93C241.6 351.15 244.2 350.86 245.98 352.29Z" fill="#F0F0F0"/>
<path d="M451.401 232.355C468.108 215.649 468.108 188.562 451.401 171.855C434.695 155.149 407.608 155.149 390.901 171.855C374.195 188.562 374.195 215.649 390.901 232.355C407.608 249.062 434.695 249.062 451.401 232.355Z" fill="#EBEBEB"/>
<path d="M450.081 220.944C460.467 204.976 455.941 183.612 439.973 173.227C424.005 162.841 402.641 167.367 392.256 183.335C381.87 199.303 386.396 220.666 402.364 231.052C418.332 241.438 439.696 236.912 450.081 220.944Z" fill="white"/>
<path d="M430.118 224.493C442.49 219.54 448.504 205.495 443.551 193.123C438.597 180.751 424.552 174.737 412.18 179.691C399.809 184.644 393.795 198.689 398.748 211.061C403.702 223.433 417.746 229.447 430.118 224.493Z" fill="#F0F0F0"/>
<path d="M435.085 208.329C438.525 200.629 435.071 191.598 427.371 188.159C419.671 184.719 410.64 188.173 407.2 195.873C403.761 203.573 407.215 212.604 414.915 216.043C422.615 219.483 431.645 216.029 435.085 208.329Z" fill="#E0E0E0"/>
<path d="M427.06 200.94C427.63 204.22 425.44 207.34 422.17 207.91C418.89 208.48 415.77 206.29 415.2 203.02C414.63 199.75 416.82 196.62 420.09 196.05C423.37 195.48 426.49 197.67 427.06 200.94Z" fill="#F0F0F0"/>
<path d="M460.12 171.33L460.15 169.62C460.17 168.35 460.76 167.17 461.74 166.37L466.88 162.21L465.86 166.89L460.12 171.34V171.33Z" fill="#EBEBEB"/>
<path d="M460.08 171.09L461.72 171.6C462.93 171.98 464.24 171.8 465.31 171.12L470.89 167.57L466.13 167.06L460.09 171.09H460.08Z" fill="#EBEBEB"/>
<path d="M421.59 202.16C426.8 198.12 432 194.09 437.21 190.05C445.5 183.62 453.79 177.19 462.09 170.76C463.99 169.29 465.89 167.82 467.78 166.35C468.54 165.76 467.47 164.7 466.72 165.29C461.51 169.33 456.31 173.36 451.1 177.4C442.81 183.83 434.52 190.26 426.22 196.69C424.32 198.16 422.42 199.63 420.53 201.1C419.77 201.69 420.84 202.75 421.59 202.16Z" fill="#E0E0E0"/>
<path d="M93.7 75.0099C93.7 75.0099 107.61 87.2899 111.37 76.8699C111.37 76.8699 112.07 73.7199 113.98 69.7699C115.89 65.8199 118.12 59.2799 111.06 54.7199C104 50.1599 93.82 45.5699 93.82 45.5699L80.54 64.7299C80.54 64.7299 85.91 69.9199 86.9 78.1199C87.76 85.2099 87.2 87.4799 88.06 87.4199C88.93 87.3599 91.39 86.43 92.96 82.7299C94.53 79.04 93.7 74.9999 93.7 74.9999V75.0099Z" fill="#F0F0F0"/>
<path d="M64.5603 57.1326L79.043 67.1684L95.7142 43.1101L81.2315 33.0743L64.5603 57.1326Z" fill="#E0E0E0"/>
<path d="M157.46 20.57C157.46 20.57 135.89 8.15998 133.74 22.86C133.74 22.86 133.67 27.18 132.21 32.88C130.75 38.58 129.58 47.77 140.08 51.88C150.58 55.99 165.18 59.28 165.18 59.28L177.5 30.55C177.5 30.55 169.06 25.17 165.56 14.66C162.53 5.56997 162.66 2.43998 161.54 2.74998C160.42 3.05998 157.44 4.93998 156.36 10.22C155.29 15.49 157.46 20.58 157.46 20.58V20.57Z" fill="#F0F0F0"/>
<path d="M200.533 36.2578L178.823 26.9529L163.361 63.029L185.071 72.3339L200.533 36.2578Z" fill="#E0E0E0"/>
<path d="M263.89 139.17C262.91 141.1 262.33 143.17 262.14 145.25L258.93 145.92L259.63 152.21L262.91 152.16C263.56 154.15 264.57 156.04 265.96 157.71L264.16 160.45L269.1 164.4L271.38 162.05C273.31 163.03 275.38 163.61 277.46 163.8L278.13 167.01L284.42 166.31L284.37 163.03C286.36 162.38 288.25 161.37 289.92 159.98L292.66 161.78L296.61 156.84L294.26 154.56C295.24 152.63 295.82 150.56 296.01 148.48L299.22 147.81L298.52 141.52L295.24 141.57C294.59 139.58 293.58 137.69 292.19 136.02L293.99 133.28L289.05 129.33L286.77 131.68C284.84 130.7 282.77 130.12 280.69 129.93L280.02 126.72L273.73 127.42L273.78 130.7C271.79 131.35 269.9 132.36 268.23 133.75L265.49 131.95L261.54 136.89L263.89 139.17ZM284.35 140.12C287.85 142.92 288.41 148.02 285.62 151.52C282.82 155.02 277.72 155.58 274.22 152.79C270.72 149.99 270.16 144.89 272.95 141.39C275.75 137.89 280.85 137.33 284.35 140.12Z" fill="#F0F0F0"/>
<path d="M38.47 215.87C37.49 217.8 36.91 219.87 36.72 221.95L33.51 222.62L34.21 228.91L37.49 228.86C38.14 230.85 39.15 232.74 40.54 234.41L38.74 237.15L43.68 241.1L45.96 238.75C47.89 239.73 49.96 240.31 52.04 240.5L52.71 243.71L59 243.01L58.95 239.73C60.94 239.08 62.83 238.07 64.5 236.68L67.24 238.48L71.19 233.54L68.84 231.26C69.82 229.33 70.4 227.26 70.59 225.18L73.8 224.51L73.1 218.22L69.82 218.27C69.17 216.28 68.16 214.39 66.77 212.72L68.57 209.98L63.63 206.03L61.35 208.38C59.42 207.4 57.35 206.82 55.27 206.63L54.6 203.42L48.31 204.12L48.36 207.4C46.37 208.05 44.48 209.06 42.81 210.45L40.07 208.65L36.12 213.59L38.47 215.87ZM58.93 216.82C62.43 219.62 62.99 224.72 60.2 228.22C57.4 231.72 52.3 232.28 48.8 229.49C45.3 226.69 44.74 221.59 47.53 218.09C50.33 214.59 55.43 214.03 58.93 216.82Z" fill="#F0F0F0"/>
<path d="M233.38 145.47C232.88 146.45 232.59 147.5 232.49 148.57L230.85 148.91L231.21 152.11L232.88 152.08C233.21 153.09 233.73 154.06 234.43 154.9L233.52 156.29L236.04 158.3L237.2 157.1C238.18 157.6 239.23 157.89 240.3 157.99L240.64 159.63L243.84 159.27L243.81 157.6C244.82 157.27 245.79 156.75 246.63 156.05L248.02 156.96L250.03 154.44L248.83 153.28C249.33 152.3 249.62 151.25 249.72 150.18L251.36 149.84L251 146.64L249.33 146.67C249 145.66 248.48 144.69 247.78 143.85L248.69 142.46L246.17 140.45L245.01 141.65C244.03 141.15 242.98 140.86 241.91 140.76L241.57 139.12L238.37 139.48L238.4 141.15C237.39 141.48 236.42 142 235.58 142.7L234.19 141.79L232.18 144.31L233.38 145.47ZM243.79 145.95C245.57 147.37 245.86 149.97 244.43 151.75C243.01 153.53 240.41 153.82 238.63 152.39C236.85 150.97 236.56 148.37 237.99 146.59C239.41 144.81 242.01 144.52 243.79 145.95Z" fill="#F0F0F0"/>
<path d="M207.79 112.94C207.29 113.92 207 114.97 206.9 116.04L205.26 116.38L205.62 119.58L207.29 119.55C207.62 120.56 208.14 121.53 208.84 122.37L207.93 123.76L210.45 125.77L211.61 124.57C212.59 125.07 213.64 125.36 214.71 125.46L215.05 127.1L218.25 126.74L218.22 125.07C219.23 124.74 220.2 124.22 221.04 123.52L222.43 124.43L224.44 121.91L223.24 120.75C223.74 119.77 224.03 118.72 224.13 117.65L225.77 117.31L225.41 114.11L223.74 114.14C223.41 113.13 222.89 112.16 222.19 111.32L223.1 109.93L220.58 107.92L219.42 109.12C218.44 108.62 217.39 108.33 216.32 108.23L215.98 106.59L212.78 106.95L212.81 108.62C211.8 108.95 210.83 109.47 209.99 110.17L208.6 109.26L206.59 111.78L207.79 112.94ZM218.2 113.42C219.98 114.84 220.27 117.44 218.84 119.22C217.42 121 214.82 121.29 213.04 119.86C211.26 118.44 210.97 115.84 212.4 114.06C213.82 112.28 216.42 111.99 218.2 113.42Z" fill="#E0E0E0"/>
<path d="M253.54 444.85C372.209 444.85 468.41 440.467 468.41 435.06C468.41 429.653 372.209 425.27 253.54 425.27C134.871 425.27 38.67 429.653 38.67 435.06C38.67 440.467 134.871 444.85 253.54 444.85Z" fill="#F5F5F5"/>
<path d="M294.25 397.3C296.56 397.17 298.73 396.05 300.43 394.49C302.13 392.93 303.39 390.94 304.44 388.88C307.21 383.41 308.55 377.22 308.29 371.09C308.23 369.78 308.1 368.43 307.53 367.25C306.97 366.06 305.9 365.04 304.6 364.85C302.66 364.57 300.96 366.12 299.73 367.65C294.13 374.58 291.24 383.66 291.82 392.55C291.96 394.73 292.69 396.83 294.25 397.29" fill="#407BFF"/>
<path d="M283.93 385.25C285.83 381.31 285.97 376.64 284.71 372.45C283.46 368.26 280.88 364.54 277.69 361.55C274.19 358.27 269.7 355.75 264.91 355.73C262.87 355.72 260.65 356.27 259.4 357.88C258.06 359.6 258.17 362.04 258.76 364.14C259.72 367.57 261.76 370.63 264.19 373.23C266.62 375.83 269.45 378.03 272.28 380.2C275.46 382.65 278.9 385.18 282.91 385.49" fill="#407BFF"/>
<path d="M283.65 398.54C283.09 394.11 279.65 390.45 275.63 388.52C271.61 386.59 267.05 386.11 262.6 385.89C261.61 385.84 260.59 385.8 259.64 386.1C258.69 386.4 257.81 387.09 257.55 388.05C257.22 389.31 258.01 390.57 258.85 391.57C263.73 397.43 271.37 400.89 279 400.69C279.88 400.67 280.78 400.59 281.6 400.26C282.41 399.92 283.14 399.28 283.39 398.43" fill="#407BFF"/>
<path d="M303.88 368.12C297.06 384.79 292 402.13 288.77 419.85C288.68 420.32 289.41 420.52 289.49 420.05C292.71 402.33 297.78 384.99 304.6 368.32C304.78 367.87 304.06 367.68 303.88 368.12Z" fill="#263238"/>
<path d="M289.21 414.71C289.47 406.56 288.81 398.32 286.49 390.47C284.17 382.62 280.28 375.59 274.91 369.57C271.52 365.77 267.62 362.48 263.43 359.61C263.03 359.34 262.66 359.99 263.05 360.26C270.19 365.16 276.39 371.36 280.74 378.89C284.67 385.7 286.95 393.35 287.91 401.13C288.47 405.64 288.6 410.18 288.45 414.72C288.43 415.2 289.18 415.2 289.2 414.72L289.21 414.71Z" fill="#263238"/>
<path d="M288.77 403.18C282.38 395.77 273.46 390.61 263.83 388.89C263.36 388.81 263.16 389.53 263.63 389.61C273.15 391.32 281.93 396.39 288.24 403.71C288.56 404.08 289.08 403.54 288.77 403.18Z" fill="#263238"/>
<path d="M274.311 420.47V410.89H301.001V420.47C301.001 420.47 301.511 437.41 292.101 438.95H283.201C273.791 437.41 274.301 420.47 274.301 420.47H274.311Z" fill="#407BFF"/>
<path opacity="0.5" d="M274.311 420.47V410.89H301.001V420.47C301.001 420.47 301.511 437.41 292.101 438.95H283.201C273.791 437.41 274.301 420.47 274.301 420.47H274.311Z" fill="black"/>
<path d="M157.2 355.98C157.2 355.98 135.11 363.92 144.37 374.44C144.37 374.44 147.43 377.13 150.65 381.65C153.86 386.18 159.76 392.62 169.12 387.58C178.48 382.53 189.76 374.04 189.76 374.04L176.61 347.65C176.61 347.65 167.58 350.44 157.89 346.54C149.51 343.17 147.33 341.17 146.87 342.16C146.41 343.16 145.94 346.45 149.08 350.44C152.22 354.43 157.2 355.97 157.2 355.97V355.98Z" fill="#407BFF"/>
<path opacity="0.6" d="M157.2 355.98C157.2 355.98 135.11 363.92 144.37 374.44C144.37 374.44 147.43 377.13 150.65 381.65C153.86 386.18 159.76 392.62 169.12 387.58C178.48 382.53 189.76 374.04 189.76 374.04L176.61 347.65C176.61 347.65 167.58 350.44 157.89 346.54C149.51 343.17 147.33 341.17 146.87 342.16C146.41 343.16 145.94 346.45 149.08 350.44C152.22 354.43 157.2 355.97 157.2 355.97V355.98Z" fill="white"/>
<path d="M194.756 334.589L174.815 344.527L191.332 377.669L211.273 367.731L194.756 334.589Z" fill="#407BFF"/>
<path d="M190.6 346.63C190.6 348.13 189.38 349.35 187.88 349.35C186.38 349.35 185.16 348.13 185.16 346.63C185.16 345.13 186.38 343.91 187.88 343.91C189.38 343.91 190.6 345.13 190.6 346.63Z" fill="white"/>
<path d="M341.02 147.98H137.39C134.01 147.98 131.27 150.72 131.27 154.1V315.13C131.27 318.51 134.01 321.25 137.39 321.25H341.02C344.4 321.25 347.14 318.51 347.14 315.13V154.1C347.14 150.72 344.4 147.98 341.02 147.98Z" fill="#407BFF"/>
<path opacity="0.6" d="M341.02 147.98H137.39C134.01 147.98 131.27 150.72 131.27 154.1V315.13C131.27 318.51 134.01 321.25 137.39 321.25H341.02C344.4 321.25 347.14 318.51 347.14 315.13V154.1C347.14 150.72 344.4 147.98 341.02 147.98Z" fill="white"/>
<path d="M329.7 174.27H203.62C202.272 174.27 201.18 175.362 201.18 176.71V206.91C201.18 208.258 202.272 209.35 203.62 209.35H329.7C331.047 209.35 332.14 208.258 332.14 206.91V176.71C332.14 175.362 331.047 174.27 329.7 174.27Z" fill="#407BFF"/>
<path d="M204.999 231.34H330.169C332.099 231.34 332.099 228.34 330.169 228.34H204.999C203.069 228.34 203.069 231.34 204.999 231.34Z" fill="#263238"/>
<path d="M204.999 239.39H330.169C332.099 239.39 332.099 236.39 330.169 236.39H204.999C203.069 236.39 203.069 239.39 204.999 239.39Z" fill="#263238"/>
<path d="M204.999 272.96H330.169C332.099 272.96 332.099 269.96 330.169 269.96H204.999C203.069 269.96 203.069 272.96 204.999 272.96Z" fill="#263238"/>
<path d="M204.999 281.72H330.169C332.099 281.72 332.099 278.72 330.169 278.72H204.999C203.069 278.72 203.069 281.72 204.999 281.72Z" fill="#263238"/>
<path d="M204.999 289.7H280.749C282.679 289.7 282.679 286.7 280.749 286.7H204.999C203.069 286.7 203.069 289.7 204.999 289.7Z" fill="#263238"/>
<path d="M204.999 264.91H330.169C332.099 264.91 332.099 261.91 330.169 261.91H204.999C203.069 261.91 203.069 264.91 204.999 264.91Z" fill="#263238"/>
<path d="M204.999 247.43H268.609C270.539 247.43 270.539 244.43 268.609 244.43H204.999C203.069 244.43 203.069 247.43 204.999 247.43Z" fill="#263238"/>
<path opacity="0.4" d="M189.9 219.05H151.09C148.257 219.05 145.96 221.347 145.96 224.18V297.13C145.96 299.963 148.257 302.26 151.09 302.26H189.9C192.733 302.26 195.03 299.963 195.03 297.13V224.18C195.03 221.347 192.733 219.05 189.9 219.05Z" fill="#407BFF"/>
<path d="M175.551 207.671C184.306 203.999 188.428 193.926 184.756 185.17C181.085 176.415 171.011 172.294 162.256 175.965C153.501 179.637 149.38 189.71 153.051 198.466C156.722 207.221 166.796 211.342 175.551 207.671Z" fill="#407BFF"/>
<path opacity="0.4" d="M142.579 162.51C144.446 162.51 145.959 160.997 145.959 159.13C145.959 157.263 144.446 155.75 142.579 155.75C140.713 155.75 139.199 157.263 139.199 159.13C139.199 160.997 140.713 162.51 142.579 162.51Z" fill="#407BFF"/>
<path opacity="0.4" d="M151.73 162.51C153.596 162.51 155.11 160.997 155.11 159.13C155.11 157.263 153.596 155.75 151.73 155.75C149.863 155.75 148.35 157.263 148.35 159.13C148.35 160.997 149.863 162.51 151.73 162.51Z" fill="#407BFF"/>
<path opacity="0.4" d="M160.869 162.51C162.736 162.51 164.249 160.997 164.249 159.13C164.249 157.263 162.736 155.75 160.869 155.75C159.003 155.75 157.489 157.263 157.489 159.13C157.489 160.997 159.003 162.51 160.869 162.51Z" fill="#407BFF"/>
<path d="M202.92 193.54C209.64 189.49 217.43 186.41 225.29 185.64C229.08 185.27 233.02 185.62 236.34 187.62C239.32 189.41 241.81 192.69 241.36 196.34C241.13 198.22 239.94 199.9 238.07 200.43C236.5 200.88 234.96 200.24 234.15 198.83C232.66 196.22 233.77 193.03 235.8 191.08C241.08 186.02 249.05 188.22 254.83 190.96C261.28 194.02 268.02 198.33 275.5 197.01C278.33 196.51 281.23 194.97 282.64 192.37C283.89 190.07 283.57 187.29 281.81 185.33C280.05 183.37 277.3 183.13 275.31 184.83C273.02 186.79 272.87 190.05 274.09 192.63C276.75 198.28 283.96 200.93 289.82 199.58C296.25 198.1 300.28 192.36 305.46 188.77C310.99 184.94 318.2 184.08 324.53 186.3C326.15 186.87 327.67 187.66 329.1 188.61C329.9 189.15 330.66 187.85 329.86 187.31C324.49 183.72 317.63 182.68 311.4 184.36C308.3 185.19 305.54 186.73 303.04 188.71C300.54 190.69 298.08 193.23 295.37 195.21C292.66 197.19 289.45 198.58 285.96 198.41C282.47 198.24 279.26 196.75 276.99 194.24C275.69 192.8 274.63 190.87 274.82 188.87C274.98 187.21 276.14 185.45 277.88 185.18C279.43 184.94 280.76 186.06 281.42 187.38C282.17 188.86 282.03 190.48 281.17 191.88C279.27 194.98 275.2 195.89 271.81 195.7C267.77 195.47 263.96 193.8 260.38 192.02C254.31 189 247.83 185.33 240.81 186.88C235.74 188 230.5 192.6 232.3 198.29C233.08 200.75 235.32 202.44 237.95 201.95C240.99 201.39 242.86 198.55 242.89 195.57C242.96 188.65 235.87 184.55 229.76 184.03C225.81 183.69 221.78 184.46 217.97 185.47C214.16 186.48 210.7 187.77 207.26 189.42C205.5 190.26 203.79 191.2 202.13 192.2C201.3 192.7 202.06 194 202.89 193.5L202.92 193.54Z" fill="white"/>
<path opacity="0.4" d="M222.39 213.99H204.14C203.41 213.99 202.82 214.581 202.82 215.31V217.73C202.82 218.459 203.41 219.05 204.14 219.05H222.39C223.119 219.05 223.71 218.459 223.71 217.73V215.31C223.71 214.581 223.119 213.99 222.39 213.99Z" fill="#407BFF"/>
<path opacity="0.4" d="M256.969 213.99H229.609C228.88 213.99 228.289 214.581 228.289 215.31V217.73C228.289 218.459 228.88 219.05 229.609 219.05H256.969C257.698 219.05 258.289 218.459 258.289 217.73V215.31C258.289 214.581 257.698 213.99 256.969 213.99Z" fill="#407BFF"/>
<path opacity="0.4" d="M283.08 213.99H264.32C263.591 213.99 263 214.581 263 215.31V217.73C263 218.459 263.591 219.05 264.32 219.05H283.08C283.809 219.05 284.4 218.459 284.4 217.73V215.31C284.4 214.581 283.809 213.99 283.08 213.99Z" fill="#407BFF"/>
<path d="M253.56 87.35H127.81C124.623 87.35 122.04 89.9333 122.04 93.12V123.95C122.04 127.137 124.623 129.72 127.81 129.72H253.56C256.747 129.72 259.33 127.137 259.33 123.95V93.12C259.33 89.9333 256.747 87.35 253.56 87.35Z" fill="#FF914D"/>
<path d="M253.56 87.35H127.81C124.623 87.35 122.04 89.9333 122.04 93.12V123.95C122.04 127.137 124.623 129.72 127.81 129.72H253.56C256.747 129.72 259.33 127.137 259.33 123.95V93.12C259.33 89.9333 256.747 87.35 253.56 87.35Z" fill="#FF914D"/>
<path opacity="0.6" d="M253.56 87.35H127.81C124.623 87.35 122.04 89.9333 122.04 93.12V123.95C122.04 127.137 124.623 129.72 127.81 129.72H253.56C256.747 129.72 259.33 127.137 259.33 123.95V93.12C259.33 89.9333 256.747 87.35 253.56 87.35Z" fill="white"/>
<path d="M145.84 96.81L148.64 102.48C148.88 102.97 149.35 103.31 149.89 103.39L156.14 104.3C157.5 104.5 158.05 106.18 157.06 107.14L152.53 111.55C152.14 111.93 151.96 112.48 152.05 113.02L153.12 119.25C153.35 120.61 151.93 121.65 150.71 121L145.12 118.06C144.64 117.81 144.06 117.81 143.57 118.06L137.98 121C136.76 121.64 135.33 120.61 135.57 119.25L136.64 113.02C136.73 112.48 136.55 111.93 136.16 111.55L131.63 107.14C130.64 106.18 131.19 104.5 132.55 104.3L138.8 103.39C139.34 103.31 139.81 102.97 140.05 102.48L142.85 96.81C143.46 95.57 145.22 95.57 145.83 96.81H145.84Z" fill="#FF914D"/>
<path d="M177.46 96.81L180.26 102.48C180.5 102.97 180.97 103.31 181.51 103.39L187.76 104.3C189.12 104.5 189.67 106.18 188.68 107.14L184.15 111.55C183.76 111.93 183.58 112.48 183.67 113.02L184.74 119.25C184.97 120.61 183.55 121.65 182.33 121L176.74 118.06C176.26 117.81 175.68 117.81 175.19 118.06L169.6 121C168.38 121.64 166.95 120.61 167.19 119.25L168.26 113.02C168.35 112.48 168.17 111.93 167.78 111.55L163.25 107.14C162.26 106.18 162.81 104.5 164.17 104.3L170.42 103.39C170.96 103.31 171.43 102.97 171.67 102.48L174.47 96.81C175.08 95.57 176.84 95.57 177.45 96.81H177.46Z" fill="#FF914D"/>
<path d="M209.08 96.81L211.88 102.48C212.12 102.97 212.59 103.31 213.13 103.39L219.38 104.3C220.74 104.5 221.29 106.18 220.3 107.14L215.77 111.55C215.38 111.93 215.2 112.48 215.29 113.02L216.36 119.25C216.59 120.61 215.17 121.65 213.95 121L208.36 118.06C207.88 117.81 207.3 117.81 206.81 118.06L201.22 121C200 121.64 198.57 120.61 198.81 119.25L199.88 113.02C199.97 112.48 199.79 111.93 199.4 111.55L194.87 107.14C193.88 106.18 194.43 104.5 195.79 104.3L202.04 103.39C202.58 103.31 203.05 102.97 203.29 102.48L206.09 96.81C206.7 95.57 208.46 95.57 209.07 96.81H209.08Z" fill="#FF914D"/>
<path d="M240.7 96.81L243.5 102.48C243.74 102.97 244.21 103.31 244.75 103.39L251 104.3C252.36 104.5 252.91 106.18 251.92 107.14L247.39 111.55C247 111.93 246.82 112.48 246.91 113.02L247.98 119.25C248.21 120.61 246.79 121.65 245.57 121L239.98 118.06C239.5 117.81 238.92 117.81 238.43 118.06L232.84 121C231.62 121.64 230.19 120.61 230.43 119.25L231.5 113.02C231.59 112.48 231.41 111.93 231.02 111.55L226.49 107.14C225.5 106.18 226.05 104.5 227.41 104.3L233.66 103.39C234.2 103.31 234.67 102.97 234.91 102.48L237.71 96.81C238.32 95.57 240.08 95.57 240.69 96.81H240.7Z" fill="#FF914D"/>
<path d="M443.66 112.16C447.58 110.28 448.98 104.84 447.04 100.96C445.1 97.08 440.53 94.93 436.19 95.14C431.85 95.36 427.81 97.63 424.72 100.68C421.62 96.87 415.36 96.18 411.5 99.22C407.71 102.21 408.34 108.33 411.19 112.25C407.85 113.88 405.63 117.87 406.45 121.55C407.46 126.09 412.83 129.1 417.23 127.58C417.23 133.46 422.47 138.84 428.35 138.96C434.22 139.09 439.71 133.94 439.96 128.07C444.44 130.15 450.48 127.21 451.6 122.4C452.72 117.59 448.62 112.28 443.68 112.16H443.66Z" fill="#407BFF"/>
<path d="M415.62 134.1C415.62 135.48 414.5 136.6 413.12 136.6C411.74 136.6 410.62 135.48 410.62 134.1C410.62 132.72 411.74 131.6 413.12 131.6C414.5 131.6 415.62 132.72 415.62 134.1Z" fill="#407BFF"/>
<g opacity="0.6">
<path d="M443.66 112.16C447.58 110.28 448.98 104.84 447.04 100.96C445.1 97.08 440.53 94.93 436.19 95.14C431.85 95.36 427.81 97.63 424.72 100.68C421.62 96.87 415.36 96.18 411.5 99.22C407.71 102.21 408.34 108.33 411.19 112.25C407.85 113.88 405.63 117.87 406.45 121.55C407.46 126.09 412.83 129.1 417.23 127.58C417.23 133.46 422.47 138.84 428.35 138.96C434.22 139.09 439.71 133.94 439.96 128.07C444.44 130.15 450.48 127.21 451.6 122.4C452.72 117.59 448.62 112.28 443.68 112.16H443.66Z" fill="white"/>
</g>
<path opacity="0.6" d="M415.62 134.1C415.62 135.48 414.5 136.6 413.12 136.6C411.74 136.6 410.62 135.48 410.62 134.1C410.62 132.72 411.74 131.6 413.12 131.6C414.5 131.6 415.62 132.72 415.62 134.1Z" fill="white"/>
<path d="M428.39 117.78C428.74 117.19 429.25 116.54 429.91 115.82C430.4 115.3 430.76 114.86 430.99 114.5C431.22 114.14 431.34 113.74 431.34 113.28C431.34 112.64 431.12 112.13 430.68 111.75C430.24 111.38 429.66 111.19 428.93 111.19C428.2 111.19 427.61 111.36 427.07 111.7C426.53 112.04 426.07 112.51 425.7 113.12L423.01 111.27C423.63 110.16 424.47 109.29 425.53 108.68C426.59 108.07 427.85 107.77 429.3 107.77C431 107.77 432.37 108.2 433.4 109.05C434.43 109.9 434.95 111.09 434.95 112.6C434.95 113.31 434.85 113.94 434.65 114.48C434.45 115.02 434.21 115.48 433.92 115.85C433.63 116.22 433.26 116.66 432.8 117.14C432.25 117.71 431.85 118.2 431.6 118.59C431.35 118.98 431.22 119.46 431.22 120.01H427.86C427.86 119.1 428.03 118.36 428.38 117.76L428.39 117.78ZM428.03 125.7C427.62 125.29 427.42 124.78 427.42 124.19C427.42 123.6 427.62 123.1 428.02 122.7C428.42 122.3 428.93 122.1 429.55 122.1C430.17 122.1 430.68 122.3 431.08 122.7C431.48 123.1 431.68 123.59 431.68 124.19C431.68 124.79 431.48 125.29 431.07 125.7C430.66 126.11 430.15 126.32 429.55 126.32C428.95 126.32 428.43 126.11 428.03 125.7Z" fill="#407BFF"/>
<path d="M87.88 91.48H63.74C58.7032 91.48 54.62 95.5631 54.62 100.6V116.21C54.62 121.247 58.7032 125.33 63.74 125.33H87.88C92.9168 125.33 97 121.247 97 116.21V100.6C97 95.5631 92.9168 91.48 87.88 91.48Z" fill="#407BFF"/>
<path d="M82.2401 109.17C82.2401 110.79 83.5601 112.11 85.1801 112.11C86.8001 112.11 88.1201 110.79 88.1201 109.17C88.1201 107.55 86.8001 106.23 85.1801 106.23C83.5601 106.23 82.2401 107.55 82.2401 109.17Z" fill="white"/>
<path d="M71.9997 109.17C71.9997 110.79 73.3197 112.11 74.9397 112.11C76.5597 112.11 77.8797 110.79 77.8797 109.17C77.8797 107.55 76.5597 106.23 74.9397 106.23C73.3197 106.23 71.9997 107.55 71.9997 109.17Z" fill="white"/>
<path d="M61.8397 109.17C61.8397 110.79 63.1597 112.11 64.7797 112.11C66.3997 112.11 67.7197 110.79 67.7197 109.17C67.7197 107.55 66.3997 106.23 64.7797 106.23C63.1597 106.23 61.8397 107.55 61.8397 109.17Z" fill="white"/>
<path d="M83.95 124.03L90.87 130.95L92.29 122.11L83.95 124.03Z" fill="#407BFF"/>
<path d="M336.97 133.99C371.228 133.99 399 106.218 399 71.9601C399 37.7018 371.228 9.93005 336.97 9.93005C302.711 9.93005 274.94 37.7018 274.94 71.9601C274.94 106.218 302.711 133.99 336.97 133.99Z" fill="#407BFF"/>
<path opacity="0.7" d="M336.97 133.99C371.228 133.99 399 106.218 399 71.9601C399 37.7018 371.228 9.93005 336.97 9.93005C302.711 9.93005 274.94 37.7018 274.94 71.9601C274.94 106.218 302.711 133.99 336.97 133.99Z" fill="white"/>
<path d="M356.38 55.5501L342.41 52.4801L328.65 52.0001C328.63 51.6301 314.05 52.3801 312.4 55.0601C311.18 57.0401 309.05 101.19 306.82 126.31C316.21 132.03 325.08 134.07 336.88 134.07C346.12 134.07 354.88 132.04 362.75 128.41C361.84 110.66 360.45 81.3301 360.86 74.3601C361.46 64.1501 356.37 55.5501 356.37 55.5501H356.38Z" fill="#FF914D"/>
<path d="M312.96 78.25C312.25 79.43 302.87 106.37 289.7 105.13C278.06 104.03 264.03 77.2 264.03 77.2L269.63 71.58C269.63 71.58 284.82 89.62 289.13 90.41C292.73 91.07 305.32 65.84 305.32 65.84L312.96 78.25Z" fill="#FDBBB5"/>
<path d="M253.52 69.75C253.59 69.42 254.51 68.39 254.51 68.39C254.51 68.39 254.14 67.65 254.12 67.28C254.07 66.23 255.06 65.44 256.02 65C255.77 64.72 255.82 62.39 257.78 62.55C257.09 61.28 258.83 59.36 260.52 60.2C261.29 60.58 264.42 63.1 265.34 63.69C265.67 62.24 266.38 60.99 267.45 59.78C267.81 59.37 269.11 58.77 269.66 58.85C270.21 58.93 269.91 59.51 269.94 60.06C269.98 60.6 269.34 61.92 269.25 62.46C268.52 66.89 269.13 69.43 269.94 73.12L264.34 77.96C260.44 75.6 260.6 74.97 256.1 73.09C254.49 72.42 253.21 71.37 253.53 69.76L253.52 69.75Z" fill="#FDBBB5"/>
<path d="M257.78 62.76C258.36 63.2 258.97 63.61 259.62 63.96C260.22 64.29 260.9 64.69 261.6 64.75C262.2 64.8 262.76 64.48 263.05 63.96C263.38 63.38 263.33 62.67 263.09 62.06C262.99 61.79 262.55 61.91 262.66 62.18C262.87 62.71 262.94 63.33 262.61 63.82C262.26 64.34 261.68 64.38 261.12 64.18C260.56 63.98 260.03 63.68 259.53 63.39C259.03 63.1 258.5 62.74 258.01 62.37C257.78 62.19 257.56 62.58 257.78 62.76Z" fill="#FF7D74"/>
<path d="M260.76 64.7901C261.17 65.1401 261.34 65.7401 261.07 66.2301C260.8 66.7201 260.23 66.92 259.68 66.78C259.07 66.63 258.49 66.2901 257.93 66.0001C257.35 65.7001 256.78 65.37 256.22 65.02C255.97 64.87 255.75 65.2501 255.99 65.4101C256.69 65.8501 257.4 66.2501 258.14 66.6201C258.8 66.9401 259.54 67.3801 260.3 67.2601C260.89 67.1701 261.39 66.73 261.57 66.17C261.77 65.56 261.54 64.8801 261.06 64.4701C260.84 64.2801 260.52 64.6001 260.74 64.7901H260.76Z" fill="#FF7D74"/>
<path d="M259.34 67.37C259.77 67.67 259.99 68.24 259.84 68.75C259.67 69.32 259.13 69.67 258.55 69.65C257.91 69.63 257.27 69.3 256.68 69.08C256.02 68.83 255.37 68.58 254.71 68.33C254.44 68.23 254.32 68.66 254.59 68.76C255.43 69.08 256.27 69.4 257.12 69.73C257.81 69.99 258.57 70.28 259.29 69.97C260.55 69.44 260.66 67.74 259.57 66.98C259.33 66.81 259.11 67.2 259.34 67.37Z" fill="#FF7D74"/>
<path d="M258.16 70.02C258.44 70.24 258.55 70.58 258.51 70.93C258.46 71.3 258.22 71.6 257.9 71.78C257.08 72.26 256.11 71.93 255.35 71.5C255.1 71.36 254.87 71.75 255.12 71.89C256.06 72.41 257.28 72.76 258.24 72.09C258.64 71.81 258.9 71.41 258.95 70.92C259 70.47 258.84 69.98 258.47 69.69C258.37 69.61 258.25 69.6 258.15 69.69C258.07 69.77 258.05 69.93 258.15 70.01L258.16 70.02Z" fill="#FF7D74"/>
<path d="M264.96 64.48C262.67 66.51 262.09 69.87 263.53 72.57C263.67 72.83 264.06 72.6 263.92 72.34C262.57 69.81 263.14 66.7 265.28 64.8C265.5 64.61 265.18 64.29 264.96 64.48Z" fill="#FF7D74"/>
<path d="M326.25 61.56C323.97 69.06 313.67 90.42 313.67 90.42L294.25 79.49C294.25 79.49 302.27 63.34 308.37 57.26C317.72 49.84 329.19 51.89 326.26 61.56H326.25Z" fill="#FF914D"/>
<path opacity="0.2" d="M308.28 87.3801L310.28 70.9501L302.27 84.0001L308.28 87.3801Z" fill="black"/>
<path d="M329.05 39.89L343.97 31.95C343.86 33.02 343.82 35.07 342.95 36.21C335.31 46.19 341.23 52.44 341.23 52.44C337.2 55.41 328.24 56.8 326.47 52.12C327.73 49.63 329.17 43.26 329.05 39.89Z" fill="#FDBBB5"/>
<path opacity="0.2" d="M328.5 44.59L336.88 43.26C335.96 45.78 333.49 48.68 327.73 48.55C327.73 48.55 328.49 45.71 328.5 44.58V44.59Z" fill="black"/>
<path d="M319.63 13.71C317.73 16.92 318.07 25.2 323.45 24.02C328.84 22.84 322.9 8.19004 319.63 13.71Z" fill="#263238"/>
<path d="M344.53 24.99C342.97 34.02 342.28 39.15 337.17 43.27C315.16 56.88 310.86 15.95 328.74 10.53C337.91 8.01 346.09 15.95 344.53 24.99Z" fill="#FDBBB5"/>
<path d="M350.44 15.11C350.44 15.11 342.22 13.96 340.84 13.85C339.46 13.74 338.05 18.67 338.25 20.27C338.45 21.87 340.61 22.57 340.55 24.1C340.48 25.4 338.3 29.2 339.08 30.96C339.97 31.66 344.85 28.74 344.85 28.74L347.71 29.79C347.71 29.79 355.91 18.8 350.44 15.11Z" fill="#263238"/>
<path d="M350.29 15.82C351.15 15.05 352.08 13.71 351.06 11.21C351.06 11.89 350.2 12.7 349.67 12.98C349.14 10.92 346.46 7.37002 338.92 5.69002C329.64 3.63002 327.21 6.76002 324.51 5.37002C321.8 3.98002 325.19 2.90002 325.19 2.90002C325.19 2.90002 320.51 1.82002 319 5.35002C317.49 8.89002 318.79 15.1 327.07 14.71C335.34 14.32 336.96 17.01 341.13 16.35C344.17 15.97 347.24 15.8 350.3 15.82H350.29Z" fill="#263238"/>
<path d="M347.29 32.8C345.69 37.55 337.42 40.14 338.47 33.04C339.08 26.13 349.35 24.43 347.29 32.8Z" fill="#FDBBB5"/>
<path d="M331.09 25.97C331.09 28.18 328.83 28.12 328.87 25.93C328.87 23.72 331.13 23.78 331.09 25.97Z" fill="#263238"/>
<path d="M322.31 26.41C322.31 28.62 320.05 28.56 320.09 26.37C320.09 24.16 322.35 24.22 322.31 26.41Z" fill="#263238"/>
<path d="M325.11 25.18C325.11 25.18 321.66 29.48 320.51 31.26C321.68 32.57 323.97 32.28 323.97 32.28L325.12 25.18H325.11Z" fill="#FF7D74"/>
<path d="M333.98 22.0501C333.83 22.0901 333.67 22.0501 333.55 21.9401C332.14 20.5701 330.56 20.9001 330.55 20.9001C328.63 20.0501 332.18 19.2001 334.16 21.3201C334.4 21.5401 334.29 21.9701 333.98 22.0501Z" fill="#263238"/>
<path opacity="0.2" d="M345.489 30.22C343.979 28.11 341.299 30.61 341.039 32.49" stroke="black" stroke-width="0.5" stroke-linecap="round" stroke-linejoin="round"/>
<path d="M318.479 21C318.159 20.9 318.069 20.44 318.339 20.24C320.239 18.74 322.139 19.39 322.229 19.41C322.759 19.58 322.489 20.43 321.959 20.24C321.669 19.91 319.989 20.23 318.479 21Z" fill="#263238"/>
<path d="M325.199 35.39C326.029 36.4 326.779 37.47 327.449 38.6C327.659 38.52 327.879 38.44 328.089 38.34C330.989 37.15 331.939 35.65 332.109 34.34C332.179 33.7 332.099 33.05 331.869 32.44C331.749 32.1 331.579 31.77 331.369 31.47C330.209 33.02 327.599 34.33 326.179 34.97C325.549 35.22 325.199 35.39 325.199 35.39Z" fill="#263238"/>
<path d="M326.18 34.95L326.87 35.88C329.59 34.76 331.35 33.61 331.87 32.42C331.75 32.08 331.58 31.75 331.37 31.45C330.2 33.01 327.6 34.31 326.18 34.95Z" fill="white"/>
<path d="M328.05 38.36C330.95 37.17 331.9 35.67 332.07 34.36C330.98 34.83 329.98 35.49 329.12 36.31C328.56 36.87 328.19 37.58 328.06 38.36H328.05Z" fill="#FF3F3E"/>
<path d="M308.61 86.74C309.52 80.45 310.44 74.15 311.35 67.86C311.42 67.39 310.7 67.18 310.63 67.66C309.72 73.95 308.8 80.25 307.89 86.54C307.82 87.01 308.54 87.22 308.61 86.74Z" fill="black"/>
<path d="M375.38 115.4C374.73 108.03 370.45 83.39 367.24 71.56C366.39 68.41 363.63 65.83 360.13 65.26C358.8 65.05 357.42 65.14 356.21 65.86C352.17 68.26 351.44 76.18 353.3 82.91C355.44 90.64 359.82 102.47 362 112.99C362.18 113.87 362.33 120.75 362.45 128.59C366.97 126.64 371.23 123.91 375.19 120.85C375.42 118.37 375.49 116.6 375.39 115.41L375.38 115.4Z" fill="#FDBBB5"/>
<path d="M367.07 65.2801C370.78 74.7101 374.84 89.5801 374.84 89.5801L353.79 94.3501C351.38 86.9201 348.38 78.8101 349.09 71.0301C350.19 60.4501 351.21 53.9001 357.7 55.8401C360.99 56.8201 364.88 59.7201 367.07 65.2801Z" fill="#FF914D"/>
<path d="M374.74 89.22C368.09 90.81 361.44 92.4 354.79 93.99L355.25 94.25C353.86 87.77 352.46 81.3 351.07 74.82C350.97 74.35 350.25 74.55 350.35 75.02C351.74 81.5 353.14 87.97 354.53 94.45C354.57 94.65 354.8 94.76 354.99 94.71C361.64 93.12 368.29 91.53 374.94 89.94C375.41 89.83 375.21 89.1 374.74 89.22Z" fill="black"/>
<g opacity="0.3">
<path d="M347.31 120.36C336.11 113.83 326.02 105.53 317.44 95.81C317.12 95.45 316.59 95.98 316.91 96.34C325.53 106.1 335.68 114.44 346.93 121C347.35 121.24 347.73 120.6 347.31 120.35V120.36Z" fill="black"/>
</g>
<path d="M265.9 31.93C259.31 22.93 261.38 10.35 270.51 3.82999C279.64 -2.69001 292.39 -0.690008 298.97 8.30999C304.05 15.25 303.96 24.33 299.46 31.11L301.04 36.94L294.62 36.2C294.53 36.27 294.45 36.34 294.36 36.41C285.23 42.93 272.48 40.93 265.9 31.93Z" fill="#407BFF"/>
<path d="M265.17 5.35999C260.27 9.77999 257.85 16.73 258.98 23.17" stroke="#407BFF" stroke-linecap="round" stroke-linejoin="round"/>
<path d="M259.59 26.11C259.69 27.1 259.99 28.07 260.49 28.94" stroke="#407BFF" stroke-linecap="round" stroke-linejoin="round"/>
<path d="M282.531 28.81L272.471 21.6L274.991 18.1L281.731 22.93L290.671 11.86L294.031 14.57L282.531 28.81Z" fill="white"/>
<path d="M429.199 412.64L415.819 411.83L419.699 433.62L428.369 435.4L429.199 412.64Z" fill="#E0E0E0"/>
<path d="M417.75 429.68L421.06 429.66C421.81 429.66 422.51 430.01 422.98 430.59C424.98 433.06 426.38 432.12 428.36 429.77C429.67 429.62 430.08 431.06 430.21 431.45L433.02 440.01C433.26 440.73 432.86 441.47 432.11 441.68C431.98 441.72 431.84 441.74 431.7 441.73C427.68 441.75 425.79 441.76 420.79 441.79L405.51 441.87C401.34 441.89 400.32 437.89 402.02 437.51C409.67 435.84 415.05 433.65 417.35 431.49C417.78 431.11 417.31 430.83 417.75 429.67V429.68Z" fill="#263238"/>
<path d="M412.939 432.63C413.979 432.6 415.019 432.47 416.019 432.23C416.109 432.2 416.159 432.1 416.119 432.01C416.099 431.96 416.059 431.92 416.009 431.91C415.539 431.7 411.329 429.88 410.319 430.58C410.129 430.7 410.029 430.92 410.069 431.14C410.089 431.55 410.309 431.93 410.669 432.17C411.359 432.55 412.149 432.72 412.929 432.64L412.939 432.63ZM415.369 432C414.159 432.22 411.899 432.52 410.939 431.86C410.689 431.68 410.529 431.41 410.499 431.11C410.479 431.02 410.519 430.92 410.599 430.87C411.159 430.49 413.629 431.29 415.369 432Z" fill="#407BFF"/>
<path d="M415.98 432.24C415.98 432.24 416.07 432.25 416.11 432.24C416.16 432.19 416.18 432.12 416.16 432.05C416.16 431.89 415.03 428.01 412.77 428.27C412.21 428.34 412.06 428.6 412.05 428.82C411.95 429.85 414.63 431.78 415.89 432.27L415.99 432.24H415.98ZM413.01 428.58C414.45 428.58 415.37 430.83 415.68 431.74C414.3 431.07 412.35 429.46 412.45 428.83C412.45 428.78 412.45 428.63 412.86 428.59H413.01V428.58Z" fill="#407BFF"/>
<path d="M415.55 432.13C416.69 432.27 417.78 432.92 418.43 433.84" stroke="#407BFF" stroke-width="0.5" stroke-linecap="round" stroke-linejoin="round"/>
<path d="M413.56 433.61C414.7 433.75 415.79 434.4 416.44 435.32" stroke="#407BFF" stroke-width="0.5" stroke-linecap="round" stroke-linejoin="round"/>
<path d="M411.05 434.87C412.19 435.01 413.28 435.66 413.93 436.58" stroke="#407BFF" stroke-width="0.5" stroke-linecap="round" stroke-linejoin="round"/>
<path d="M373.729 411.23L359.819 409.53L362.559 432.29L371.229 434.07L373.729 411.23Z" fill="#E0E0E0"/>
<path d="M360.62 428.35L363.93 428.33C364.68 428.33 365.38 428.68 365.85 429.26C367.85 431.73 369.25 430.79 371.23 428.44C372.54 428.29 372.95 429.73 373.08 430.12L375.89 438.68C376.13 439.4 375.73 440.14 374.98 440.35C374.85 440.39 374.71 440.41 374.57 440.4C370.55 440.42 368.66 440.43 363.66 440.46L348.38 440.54C344.21 440.56 343.19 436.56 344.89 436.18C352.54 434.51 357.92 432.32 360.22 430.16C360.65 429.78 360.18 429.5 360.62 428.34V428.35Z" fill="#263238"/>
<path d="M355.8 431.3C356.84 431.27 357.88 431.14 358.88 430.9C358.97 430.87 359.02 430.77 358.98 430.68C358.96 430.63 358.92 430.59 358.87 430.58C358.4 430.37 354.19 428.55 353.18 429.25C352.99 429.37 352.89 429.59 352.93 429.81C352.95 430.22 353.17 430.6 353.53 430.84C354.22 431.22 355.01 431.39 355.79 431.31L355.8 431.3ZM358.23 430.67C357.02 430.89 354.76 431.19 353.8 430.53C353.55 430.35 353.39 430.08 353.36 429.78C353.34 429.69 353.38 429.59 353.46 429.54C354.02 429.16 356.49 429.96 358.23 430.67Z" fill="#407BFF"/>
<path d="M358.84 430.91C358.84 430.91 358.93 430.92 358.97 430.91C359.02 430.86 359.04 430.79 359.02 430.72C359.02 430.56 357.89 426.68 355.63 426.94C355.07 427.02 354.92 427.27 354.91 427.49C354.81 428.52 357.49 430.45 358.75 430.94L358.85 430.91H358.84ZM355.87 427.25C357.31 427.25 358.23 429.5 358.54 430.41C357.16 429.74 355.21 428.13 355.31 427.5C355.31 427.45 355.31 427.3 355.72 427.26H355.87V427.25Z" fill="#407BFF"/>
<path d="M358.42 430.8C359.56 430.94 360.65 431.59 361.3 432.51" stroke="#407BFF" stroke-width="0.5" stroke-linecap="round" stroke-linejoin="round"/>
<path d="M356.42 432.28C357.56 432.42 358.65 433.07 359.3 433.99" stroke="#407BFF" stroke-width="0.5" stroke-linecap="round" stroke-linejoin="round"/>
<path d="M353.91 433.54C355.05 433.68 356.14 434.33 356.79 435.25" stroke="#407BFF" stroke-width="0.5" stroke-linecap="round" stroke-linejoin="round"/>
<path d="M370.11 263.74C370.16 264.77 356.12 331.1 355.29 347.29C354.46 363.48 358.37 424.8 358.37 424.8L373.82 424.69C373.82 424.69 376.85 396.76 376.02 385.12C375.18 373.48 374.87 355.22 378.68 344.72C382.49 334.22 395.27 299.64 395.27 299.64L390.78 267.2L370.11 263.74Z" fill="#263238"/>
<path d="M419.9 261.31C421.57 262.26 421.93 280.8 421.85 301.43C421.78 322.06 427.4 359.93 428.57 372.93C429.74 385.93 431.76 427.42 431.23 427.45C430.69 427.48 413.43 427.63 413.92 426.57C414.41 425.52 410.33 407.72 405.19 376.24C400.14 345.37 390.72 311.94 388.78 301.52C387.26 293.32 384.35 279.19 384.35 279.19L383.57 263.07L419.91 261.3L419.9 261.31Z" fill="#263238"/>
<path opacity="0.3" d="M421.139 268.47C421.139 268.47 406.829 277.62 389.729 277.87C372.629 278.12 368.079 274.31 368.079 274.31L368.739 270.75L421.139 268.47Z" fill="black"/>
<g opacity="0.3">
<path d="M398.07 338.42C396.71 332.99 395.34 327.57 393.98 322.14C391.8 313.48 389.62 304.82 387.45 296.16C386.95 294.15 386.44 292.15 385.94 290.14C385.82 289.67 385.1 289.87 385.22 290.34C386.58 295.77 387.95 301.19 389.31 306.62C391.49 315.28 393.67 323.94 395.84 332.6C396.34 334.61 396.85 336.61 397.35 338.62C397.47 339.09 398.19 338.89 398.07 338.42Z" fill="black"/>
</g>
<path d="M408.6 185.55C408.6 185.55 412.85 195.01 414.39 207.57C417.09 229.55 421.8 259.03 422 267.79C422 267.79 385.53 279.63 365.71 269.68L368.12 222.41L367.42 187.27L374.96 184.53C374.96 184.53 404.25 181.03 408.59 185.56L408.6 185.55Z" fill="#407BFF"/>
<path opacity="0.2" d="M408.6 185.55C408.6 185.55 412.85 195.01 414.39 207.57C417.09 229.55 421.8 259.03 422 267.79C422 267.79 385.53 279.63 365.71 269.68L368.12 222.41L367.42 187.27L374.96 184.53C374.96 184.53 404.25 181.03 408.59 185.56L408.6 185.55Z" fill="black"/>
<path opacity="0.2" d="M408.08 208.27C408.08 208.27 409.3 216.81 411.93 220.88C413.46 223.25 416.76 225.55 416.76 225.55L415.78 217.56L408.08 208.26V208.27Z" fill="black"/>
<path d="M373.84 212.47C373.12 212.65 363.34 225.16 363.34 225.16C363.34 225.16 351.82 212.97 350.66 207.72C350.66 207.72 363.63 188.71 365.33 187.58C369.86 184.56 374.96 184.52 374.96 184.52L373.84 212.47Z" fill="#407BFF"/>
<path opacity="0.2" d="M373.84 212.47C373.12 212.65 363.34 225.16 363.34 225.16C363.34 225.16 351.82 212.97 350.66 207.72C350.66 207.72 363.63 188.71 365.33 187.58C369.86 184.56 374.96 184.52 374.96 184.52L373.84 212.47Z" fill="black"/>
<path opacity="0.2" d="M368.29 218.98C368.28 218.54 367.84 202.42 367.86 203.15C367.88 203.87 365.03 223.02 365.03 223.02L368.29 218.98Z" fill="black"/>
<path d="M380.289 185.36C384.099 184.96 383.709 180.28 383.249 176.7C383.059 175.42 382.769 174.16 382.379 172.91L389.019 167.37L395.029 162.28C394.659 164.52 394.399 166.77 394.269 169.04C393.939 172.96 394.379 176.09 394.889 179.85C395.359 181.53 396.379 182.83 397.199 183.89C397.199 183.89 390.379 189.05 385.699 188.92C381.019 188.79 380.309 185.36 380.309 185.36H380.289Z" fill="#B97964"/>
<path opacity="0.2" d="M394.36 172.03C394.36 172.03 390.42 181.5 383.36 177.8L383.26 176.15L394.37 172.03H394.36Z" fill="black"/>
<path d="M397.899 150.68C395.659 144.13 388.319 140.39 381.509 142.33C372.119 145.01 370.039 158.12 371.569 166.31C373.279 175.42 384.609 180.58 392.139 174.37C397.159 170.24 397.329 164.99 398.449 156.13C398.689 154.31 398.509 152.45 397.899 150.69V150.68Z" fill="#B97964"/>
<path d="M368.869 147.95C368.869 147.95 369.739 148.96 370.549 148.67C369.739 147.35 369.839 145.72 370.809 144.56C370.809 144.56 371.399 145.96 372.089 145.99C372.509 142.69 373.979 139.61 376.309 137.18C380.349 132.68 393.609 138.48 393.609 138.48C393.609 138.48 396.779 135.79 401.819 140.35C405.859 144.01 406.339 151.48 405.959 154.69C404.489 157.79 401.019 160.79 396.309 162.31C393.999 159.68 393.839 155.71 394.069 152.97C393.369 152.78 392.719 152.42 392.189 151.91C390.119 149.93 391.659 143.03 383.419 144.06C381.959 143.17 380.119 143.16 378.719 144.04C376.189 145.51 374.819 153.57 371.319 151.22C367.819 148.86 368.869 147.96 368.869 147.96V147.95Z" fill="#263238"/>
<path d="M384.269 158.13C384.169 159.14 383.399 159.84 382.689 159.71C381.979 159.58 381.579 158.65 381.749 157.65C381.919 156.65 382.639 155.94 383.329 156.07C384.019 156.2 384.439 157.11 384.269 158.13Z" fill="#263238"/>
<path d="M375.479 157.14C375.379 158.15 374.589 158.85 373.899 158.72C373.209 158.59 372.789 157.66 372.959 156.66C373.129 155.66 373.849 154.95 374.539 155.08C375.229 155.21 375.639 156.19 375.479 157.14Z" fill="#263238"/>
<path d="M371.459 151.79C371.619 151.87 371.819 151.87 371.969 151.79C373.009 151.14 374.319 151 375.499 151.4C375.749 151.51 376.039 151.4 376.149 151.18C376.259 150.95 376.149 150.67 375.909 150.57C374.429 150.02 372.769 150.18 371.459 151C371.229 151.13 371.149 151.41 371.289 151.63C371.339 151.69 371.399 151.74 371.459 151.79Z" fill="#263238"/>
<path d="M385.649 155.39C385.749 155.39 385.839 155.34 385.919 155.28C386.089 155.08 386.049 154.79 385.829 154.63C384.579 153.7 382.929 153.4 381.409 153.82C381.159 153.91 381.029 154.17 381.119 154.41C381.219 154.65 381.499 154.77 381.749 154.69C382.959 154.39 384.259 154.64 385.239 155.38C385.369 155.44 385.529 155.44 385.659 155.38L385.649 155.39Z" fill="#263238"/>
<path d="M403.409 163.8C402.399 166.03 400.489 167.77 398.089 168.62C394.909 169.73 392.959 167.04 393.529 164.02C394.069 161.34 396.349 157.44 399.699 157.67C403.049 157.9 404.609 161.04 403.409 163.8Z" fill="#B97964"/>
<g opacity="0.1">
<path d="M396.159 164.63C396.289 163.57 396.789 162.55 397.519 161.78C398.129 161.14 399.389 160.1 400.299 160.73C400.699 161.01 401.069 160.36 400.679 160.08C399.489 159.25 397.939 160.29 397.089 161.14C396.149 162.08 395.569 163.31 395.409 164.63C395.389 164.83 395.599 165.01 395.789 165.01C396.009 165.01 396.139 164.84 396.169 164.63H396.159Z" fill="black"/>
</g>
<path d="M378.379 156.33C376.979 158.53 375.259 160.53 373.269 162.26C374.279 163.25 375.679 163.78 377.109 163.71L378.389 156.33H378.379Z" fill="#A24E3F"/>
<g opacity="0.3">
<path d="M383.839 143.27C383.409 142.08 382.859 141.11 381.939 140.22C381.109 139.42 380.009 138.85 378.849 138.75C377.489 138.63 376.149 139.26 375.219 140.23C374.289 141.2 373.709 142.47 373.329 143.76C373.189 144.22 373.919 144.42 374.049 143.96C374.639 142 375.839 139.84 378.069 139.53C378.939 139.41 379.729 139.63 380.499 140.08C381.819 140.85 382.599 142.09 383.109 143.48C383.269 143.93 383.999 143.74 383.829 143.28L383.839 143.27Z" fill="black"/>
</g>
<g opacity="0.3">
<path d="M385.729 142.67C385.419 139.62 383.229 136.94 380.279 136.06C379.819 135.92 379.619 136.65 380.079 136.78C382.679 137.55 384.699 139.96 384.979 142.67C385.029 143.15 385.779 143.15 385.729 142.67Z" fill="black"/>
</g>
<path d="M399.3 278.05L415.75 287.15C416.61 287.63 417.65 287.65 418.52 287.21L435.34 278.82C437.55 277.72 440.07 279.63 439.6 282.05L436.03 300.51C435.84 301.47 436.14 302.47 436.83 303.17L450.01 316.58C451.74 318.34 450.7 321.33 448.25 321.63L429.59 323.94C428.62 324.06 427.76 324.65 427.31 325.52L418.63 342.2C417.49 344.39 414.33 344.33 413.28 342.09L405.32 325.06C404.9 324.17 404.08 323.54 403.11 323.38L384.57 320.28C382.13 319.87 381.22 316.85 383.03 315.16L396.77 302.33C397.49 301.66 397.83 300.68 397.68 299.71L394.9 281.12C394.53 278.68 397.13 276.87 399.29 278.07L399.3 278.05Z" fill="#FF914D"/>
<path opacity="0.3" d="M426.349 283.31C426.349 283.31 408.349 298.78 412.909 305.22C418.779 313.5 431.319 326.5 410.919 336.99L408.059 330.86C408.059 330.86 414.979 327.16 414.729 319.88C414.479 312.61 407.429 310.48 408.059 301.17C408.689 291.85 416.799 288.01 416.799 288.01L426.349 283.31Z" fill="white"/>
<path d="M424.37 274.18L417.55 272.14L415.12 277C414.8 277.55 414.52 278.07 414.29 278.5C412.27 282.44 409.52 288.05 409.24 291.38C408.96 294.71 411.08 297.95 411.97 296.37C412.67 295.13 411.77 292.84 411.94 291.68C412.37 288.78 412.97 287.81 412.97 287.81C412.97 293.41 415.12 296.96 415.82 297.49C416.79 298.22 417.77 297.1 417.77 297.1C417.77 297.1 418.72 297.99 419.86 297.25C421.25 296.34 419.59 289.75 419.59 289.75C419.59 289.75 421.95 295.65 423.55 294.86C425.14 294.08 422.33 288.99 422 285.94C421.88 284.8 424.08 282.76 424.07 280.14C424.07 278.51 423.6 276.22 424.37 274.19V274.18Z" fill="#B97964"/>
<path d="M418.08 297.03C417.37 295.33 416.66 293.6 416.41 291.76C416.1 289.57 416.46 287.36 416.98 285.23C417.05 284.95 416.61 284.83 416.55 285.11C416.03 287.27 415.67 289.5 415.96 291.72C416.21 293.62 416.92 295.4 417.66 297.15C417.77 297.41 418.21 297.3 418.09 297.03H418.08Z" fill="#A24E3F"/>
<path d="M419.91 289.87C419.79 289.01 419.63 288.15 419.58 287.28C419.53 286.48 419.61 285.66 420.06 284.98C420.22 284.74 419.83 284.51 419.67 284.75C419.2 285.47 419.08 286.34 419.13 287.18C419.18 288.12 419.35 289.06 419.48 289.99C419.52 290.28 419.95 290.15 419.91 289.87Z" fill="#A24E3F"/>
<path d="M426.42 205.02L411.93 211.13C414.45 218.13 419.15 229.11 421.09 236.91C421.61 239 416.75 273.74 416.75 273.74L423.99 275.82C423.99 275.82 435.02 241.95 434.89 237.77C434.7 231.7 430.01 217.91 426.43 205.02H426.42Z" fill="#B97964"/>
<path d="M400.65 186.86C400.22 194.85 407.24 210.84 414.66 220.95C419.22 221.65 432.19 211.52 432.19 211.52C432.19 211.52 425.58 199.6 418.83 191.86C410.33 182.57 400.91 182.51 400.65 186.86Z" fill="#407BFF"/>
<g opacity="0.2">
<path d="M400.65 186.86C400.22 194.85 407.24 210.84 414.66 220.95C419.22 221.65 432.19 211.52 432.19 211.52C432.19 211.52 425.58 199.6 418.83 191.86C410.33 182.57 400.91 182.51 400.65 186.86Z" fill="black"/>
</g>
<path opacity="0.2" d="M380.089 176.25C380.479 176.19 381.499 175.45 381.249 173.47C380.989 171.49 375.739 166.77 373.539 167.04C371.339 167.31 372.919 170.29 372.919 170.29C372.919 170.29 378.499 175.56 378.769 175.69C379.609 176.09 380.099 176.26 380.099 176.26L380.089 176.25Z" fill="black"/>
<path d="M378.04 167C377.72 166.75 377.36 166.56 376.96 166.49C376.81 166.46 376.66 166.44 376.51 166.48C376.34 166.52 376.19 166.64 376.12 166.8C376.07 166.91 376.09 167.04 376.2 167.11C376.3 167.17 376.46 167.14 376.51 167.03C376.51 167.02 376.52 167 376.53 166.99C376.53 166.99 376.56 166.94 376.55 166.96C376.54 166.98 376.56 166.95 376.57 166.95C376.54 166.96 376.59 166.93 376.57 166.95C376.57 166.95 376.59 166.94 376.6 166.93C376.57 166.93 376.59 166.93 376.6 166.93C376.61 166.93 376.68 166.92 376.64 166.92C376.6 166.92 376.66 166.92 376.68 166.92C376.7 166.92 376.72 166.92 376.73 166.92C376.81 166.92 376.84 166.93 376.93 166.95C377.23 167.01 377.5 167.14 377.74 167.33C377.84 167.41 377.97 167.42 378.06 167.33C378.14 167.25 378.16 167.09 378.06 167.01L378.04 167Z" fill="#263238"/>
<path d="M378.59 170.57C378.59 170.57 378.57 170.56 378.56 170.55L375.06 167.85C373.79 166.92 372.1 166.83 370.74 167.62L367.65 169.38C366.49 170.05 365.72 171.25 365.58 172.6L364.92 178.89C361.7 187.49 355.08 197.7 351.11 206.6C349.04 211.56 346.01 217.04 345.27 222.66C344.96 225 345.65 227.35 347.16 229.15C349.7 232.05 354.27 230.97 356.41 229.31C358.16 228.28 362.47 224.24 362.48 224.23L359.39 220.77L363.51 205.36C364.97 198.41 367.73 191.74 369.68 186.05C374.44 183.17 377.85 177.28 377.85 177.28L379.17 175.46C380.34 173.95 380.08 171.76 378.59 170.57ZM358.18 223.35C358.18 223.45 358.18 223.54 358.16 223.54C358.16 223.48 358.18 223.41 358.18 223.35Z" fill="#B97964"/>
<path d="M358.13 226.27C358.84 224.2 359.45 222.1 359.96 219.97C360.07 219.5 359.35 219.3 359.24 219.77C358.73 221.9 358.11 224 357.41 226.07C357.25 226.53 357.98 226.72 358.13 226.27Z" fill="#A24E3F"/>
<path d="M124.151 209.62C124.251 210.58 120.041 228.48 121.171 234.62C122.301 240.76 130.731 264.23 129.311 268.04C127.891 271.86 109.941 266.55 109.941 266.55L86.5908 178.18C88.0108 176.86 102.041 176.04 107.211 180.09C107.761 180.52 110.131 182.71 110.731 183.19C115.741 187.18 122.591 194.82 124.141 209.62H124.151Z" fill="#263238"/>
<path d="M163.38 193.56C163.16 193.34 170.45 193.58 170.63 192.02C170.73 191.15 170.67 191.04 167.47 190.65C164.27 190.25 154.56 189.75 153.01 190.19C151.46 190.63 150.23 196.37 149.42 197.26C148.61 198.14 142.48 203.18 142.48 203.18L147.33 208.64L153.89 202.13C153.89 202.13 159.42 202.52 160.32 201.75C161.22 200.98 161.38 198.93 161.38 198.93C161.38 198.93 163.93 199.33 163.05 196.37C163.05 196.37 165.32 195.57 163.39 193.57L163.38 193.56Z" fill="#FFB463"/>
<path d="M153.19 191.53C154.16 191.45 155.4 191.34 156.12 192.13C156.84 192.92 156.78 194.38 156.7 195.41C156.65 196.02 156.58 196.69 156.38 197.27C156.18 197.85 155.42 197.16 155.18 196.88C154.57 196.16 154.39 195.14 154.74 194.26C154.8 194.11 154.62 193.92 154.46 193.98C153.72 194.28 152.93 194.38 152.15 194.24C151.87 194.19 151.75 194.62 152.03 194.67C152.9 194.82 153.77 194.74 154.58 194.41L154.3 194.13C153.97 194.96 154.07 195.91 154.5 196.68C154.8 197.22 155.81 198.39 156.51 197.85C156.9 197.56 156.93 196.85 157.01 196.41C157.11 195.82 157.17 195.21 157.17 194.61C157.17 193.62 157.11 192.46 156.36 191.72C155.53 190.91 154.25 190.96 153.18 191.05C152.89 191.07 152.89 191.52 153.18 191.5L153.19 191.53Z" fill="#FF7800"/>
<path d="M163.5 193.38C162.36 193.07 161.15 193.06 159.99 193.2C159.39 193.27 158.79 193.39 158.21 193.56C157.71 193.71 157.15 193.88 156.87 194.36C156.72 194.61 157.11 194.84 157.26 194.59C157.53 194.14 158.22 194.02 158.69 193.9C159.22 193.76 159.77 193.67 160.32 193.62C161.34 193.53 162.4 193.55 163.39 193.82C163.67 193.9 163.79 193.46 163.51 193.39L163.5 193.38Z" fill="#FF7800"/>
<path d="M160.26 201.39C159.26 201.19 158.27 200.98 157.27 200.78C156.8 200.68 156.27 200.63 155.83 200.43C155.39 200.23 155.07 199.74 155.5 199.36C155.84 199.07 156.38 199.01 156.8 199.04C157.3 199.08 157.79 199.1 158.29 199.11C159.3 199.14 160.3 199.14 161.31 199.23C161.6 199.25 161.6 198.8 161.31 198.78C160.09 198.68 158.87 198.7 157.64 198.64C156.78 198.6 155.39 198.39 154.92 199.38C154.74 199.77 154.86 200.21 155.16 200.51C155.49 200.85 155.97 200.97 156.43 201.06C157.67 201.32 158.9 201.57 160.14 201.82C160.42 201.88 160.54 201.44 160.26 201.39Z" fill="#FF7800"/>
<path d="M156.81 196.65C158.75 196.41 160.85 196.15 162.77 196.59C163.05 196.65 163.17 196.22 162.89 196.16C160.92 195.71 158.79 195.95 156.81 196.2C156.53 196.24 156.52 196.69 156.81 196.65Z" fill="#FF7800"/>
<path d="M149.93 196.37L129.56 209.7C129.56 209.7 127.25 204.07 124.55 198.52C121.79 192.86 116.96 183.42 111.7 182.75C109.97 182.53 107.57 181.93 106.5 182.36C98.0603 185.77 109.42 207.71 109.42 207.71C109.42 207.71 119.74 223.68 124.44 225.85C129.14 228.01 154.42 204.51 154.42 204.51L149.93 196.36V196.37Z" fill="#263238"/>
<path d="M122.84 219.45C123.41 216.14 124.38 212.96 124.53 209.59C124.76 204.56 123.42 199.65 121.05 195.23C119.01 191.42 116.31 188.01 113.37 184.87C113.04 184.52 112.51 185.05 112.84 185.4C117.37 190.24 121.43 195.86 123.07 202.38C124.08 206.41 123.96 210.52 123.13 214.57C122.81 216.14 122.39 217.68 122.12 219.26C122.04 219.73 122.76 219.93 122.84 219.46V219.45Z" fill="black"/>
<path d="M41.3703 436.84C40.9004 435.63 40.2004 434.51 39.3104 433.56C39.3104 433.56 37.9103 428.58 41.8503 418.16L38.2704 414.71C37.0004 413.53 35.1103 413.25 33.5504 414.03C33.3303 414.12 33.1304 414.26 32.9604 414.44C32.1603 415.32 31.4204 416.25 30.7504 417.23C28.4904 420.59 26.4504 424.07 24.6104 427.67L25.3604 428.13L29.4304 421.71C30.8204 419.52 31.0604 423.14 30.1604 425.81C29.2604 428.48 28.8404 431.65 33.7504 434.56C39.4904 437.93 42.0604 439.03 41.3703 436.86V436.84Z" fill="#263238"/>
<path d="M43.1104 414.34C43.1104 414.34 41.4704 419.2 40.1204 424.84C39.2804 427.67 39.0004 430.63 39.3004 433.56C39.3004 433.56 35.2004 432.12 35.0204 428.74C34.8404 425.36 37.5004 415.72 33.4904 414.05C34.1604 413.6 34.8704 413.23 35.6304 412.95C36.7604 412.44 43.1004 414.34 43.1004 414.34H43.1104Z" fill="#FFB463"/>
<path d="M114.75 434.9C113.74 434.07 112.58 433.43 111.32 433.02C111.32 433.02 107.63 429.35 105.91 418.36L101.07 417.07C99.3803 416.65 97.5903 417.32 96.6103 418.74C96.4603 418.93 96.3603 419.15 96.3003 419.38C96.0403 420.53 95.8503 421.7 95.7503 422.88C95.4403 426.89 95.3803 430.92 95.5703 434.94L96.4503 434.98L96.8203 427.42C96.9503 424.84 98.9503 427.88 99.4903 430.65C100.03 433.41 101.23 436.38 106.96 436.56C113.64 436.74 116.42 436.46 114.75 434.9Z" fill="#263238"/>
<path d="M105.121 414.42C105.121 414.42 106.101 419.45 107.721 425.02C108.391 427.89 109.611 430.61 111.331 433.02C111.331 433.02 107.041 433.74 105.211 430.87C103.381 428.01 100.921 418.31 96.6007 418.78C96.9607 418.07 97.4007 417.4 97.9207 416.79C98.6507 415.8 105.131 414.41 105.131 414.41L105.121 414.42Z" fill="#FFB463"/>
<path d="M115.17 238.74C115.17 238.74 127.66 269.35 117.74 318.27C117.48 346.76 107.38 416.44 107.38 416.44C104.02 417.38 93.3803 416.73 89.9503 416.03C89.9503 416.03 89.6503 360.63 92.0403 314.22C84.8003 266.59 85.3003 241.38 85.3003 241.38L115.17 238.73V238.74Z" fill="#FF914D"/>
<path d="M108.72 240.35C108.72 240.35 96.5904 302.97 88.3704 329.85C79.7304 358.07 47.3304 417.07 46.3604 418.96C42.4204 418.1 34.1504 414.71 31.7404 412.6C31.7404 412.6 50.7504 355.01 61.9004 324.28C64.4304 308.53 66.1604 299.31 65.7104 282.63C64.8804 251.72 79.4404 238.42 79.4404 238.42L108.73 240.36L108.72 240.35Z" fill="#FF914D"/>
<path opacity="0.2" d="M101.88 273.84L112.24 265.52L103.53 278.37L91.2404 331.39L91.8504 317.24L101.88 273.84Z" fill="black"/>
<path d="M117.25 198.6C117.25 198.6 122.49 210.3 119.19 217.19C112.52 237.18 120.81 238.08 118.25 241.77C114.43 244.78 90.8899 248.81 78.5399 239.24C80.1799 231.11 80.5599 217.14 74.5399 194C73.2399 189.01 76.2899 183.92 81.3599 182.64C81.6799 182.56 82.0099 182.49 82.3399 182.45C83.8199 182.24 85.3999 182.04 87.0099 181.89C92.6499 181.25 95.8799 181.19 101.55 181.34C102.54 181.39 101.73 181.22 104.74 181.93C104.74 181.93 110.76 186.39 112.46 189.08C114.28 191.96 117.16 198.38 117.24 198.62L117.25 198.6Z" fill="white"/>
<g opacity="0.3">
<path d="M113.79 217.58C111.9 221.88 108.42 225.48 104.15 227.55C107.08 227.98 110.01 227.02 112.81 226.07C109.88 229.06 104.93 229.92 101.13 228.1C105.18 224.64 109.74 221.03 113.79 217.57V217.58Z" fill="black"/>
</g>
<path d="M64.3403 170.62C64.8303 169.06 66.0103 167.87 66.9403 166.55C68.7003 164.08 69.6203 161.07 70.3303 158.07C71.0303 155.07 71.5403 152.01 72.6003 149.13C73.6603 146.25 75.3403 143.51 77.8503 141.9C80.3603 140.29 83.8103 140.04 86.2103 141.84L87.4903 142.06C85.2303 151.56 86.0003 161.58 84.4403 171.23C84.0503 173.67 83.4403 176.21 81.8203 178.01C79.2203 180.89 74.8003 180.97 71.1603 179.82C69.1803 179.19 67.2303 178.23 65.8303 176.62C64.4403 175.01 63.6903 172.67 64.3403 170.62Z" fill="#263238"/>
<path d="M84.7603 142.1C87.6703 139.26 90.3603 137.58 94.2103 136.99C97.5903 136.47 102.37 136.85 105.45 138.51C109.64 140.77 112.18 145.66 113.77 150.52C115.56 155.97 113.37 162.66 110.82 167.67C109.76 169.74 108.82 170.6 106.74 170.39L105.97 171.48C99.6703 173.4 93.9503 180.06 82.1603 162C78.2603 156.03 79.8703 146.87 84.7703 142.1H84.7603Z" fill="#263238"/>
<path d="M100.781 180.93C99.7906 180.08 100.171 178.25 100.311 176.46C100.401 175.09 100.781 173.65 101.241 172.25L99.2906 170.37L89.2306 161.97C90.0006 168.09 92.1406 177.92 87.5606 181.67L84.9706 182C86.6606 183.14 91.3106 188.79 101.351 189.22C106.791 189.45 105.571 183.96 103.991 181.65C101.511 181.12 100.771 180.94 100.771 180.94L100.781 180.93Z" fill="#FFB463"/>
<path opacity="0.2" d="M100.37 177.26C97.6903 176.78 93.7903 175.22 93.0003 172.27C92.6703 171.06 92.5803 169.84 92.6203 169.03L100.76 173.52C100.72 174.69 100.12 175.6 100.38 177.26H100.37Z" fill="black"/>
<path d="M84.89 152.41C86.63 161.69 87.16 165.64 92.52 170.1C100.58 176.81 111.69 173.31 112.78 163.86C113.76 155.36 110.75 141.61 101.06 138.52C91.51 135.47 83.14 143.13 84.88 152.4L84.89 152.41Z" fill="#FFB463"/>
<path d="M98.8104 154.96C98.8604 156.01 99.4204 156.86 100.04 156.87C100.67 156.87 101.13 156.04 101.08 154.99C101.03 153.94 100.47 153.09 99.8504 153.08C99.2204 153.08 98.7604 153.91 98.8104 154.96Z" fill="#263238"/>
<path d="M97.01 152.26C97.13 152.28 97.26 152.24 97.35 152.16C98.85 150.86 100.5 151.37 100.51 151.37C100.75 151.45 101 151.32 101.07 151.07C101.13 150.83 100.98 150.56 100.74 150.48C100.65 150.45 98.59 149.81 96.73 151.43C96.54 151.59 96.53 151.88 96.71 152.08C96.79 152.18 96.9 152.23 97.02 152.25L97.01 152.26Z" fill="#263238"/>
<path d="M110.54 150.53C110.65 150.5 110.75 150.43 110.8 150.32C110.92 150.1 110.82 149.83 110.58 149.71C108.21 148.49 106.31 149.42 106.23 149.46C106 149.57 105.93 149.84 106.06 150.06C106.19 150.28 106.49 150.37 106.71 150.25C106.78 150.21 108.28 149.51 110.16 150.49C110.28 150.55 110.42 150.56 110.53 150.53H110.54Z" fill="#263238"/>
<path d="M104.25 153.24C104.25 153.24 106.06 156.61 107.94 158.64C108.27 159 108.14 159.57 107.7 159.77C106.57 160.3 105.16 160.04 105.16 160.04L104.25 153.24Z" fill="#FF7800"/>
<path d="M99.4803 153.16L101.66 152.63C101.66 152.63 99.0303 154.62 99.4803 153.16Z" fill="#263238"/>
<path d="M107.32 154.2C107.37 155.27 107.93 156.14 108.55 156.14C109.18 156.14 109.64 155.29 109.59 154.22C109.54 153.15 108.98 152.28 108.36 152.28C107.73 152.28 107.27 153.13 107.32 154.2Z" fill="#263238"/>
<path d="M107.931 152.38L110.111 151.85C110.111 151.85 108.111 153.5 107.931 152.38Z" fill="#263238"/>
<path d="M90.1103 168.45C80.5503 162.91 78.3403 139.1 94.9103 137.03C111.48 134.96 113.85 157.35 113.85 157.35C107.18 143.92 92.7103 143.78 92.7103 143.78C96.2403 150.89 89.9703 155.94 89.9703 155.94C87.8903 160.84 90.1103 166.23 90.1203 168.44L90.1103 168.45Z" fill="#263238"/>
<path d="M82.7308 160.29C84.0308 162.11 85.9708 163.15 87.6708 163.41C90.2408 163.8 91.1708 159.71 90.0808 157.3C89.1008 155.14 86.4908 153.88 84.0908 154.59C81.7208 155.29 81.2408 158.21 82.7208 160.29H82.7308Z" fill="#FFB463"/>
<path opacity="0.2" d="M86.0404 156.82C85.2204 156.56 84.4104 157.13 84.1804 157.8C83.9004 158.61 84.4504 160.43 86.9504 160.88" stroke="black" stroke-width="0.5" stroke-linecap="round" stroke-linejoin="round"/>
<g opacity="0.3">
<path d="M92.0303 144.05C92.7203 145.11 92.7603 146.52 92.3003 147.69C91.7803 149 90.5203 149.91 89.3103 150.55C86.5303 152.02 83.2703 152.62 80.1403 152.53C79.6603 152.52 79.6603 153.27 80.1403 153.28C83.6103 153.38 87.3803 152.68 90.3603 150.82C91.5603 150.07 92.6603 149.04 93.1003 147.66C93.5203 146.36 93.4203 144.84 92.6703 143.69C92.4103 143.29 91.7603 143.66 92.0203 144.07L92.0303 144.05Z" fill="black"/>
</g>
<g opacity="0.3">
<path d="M85.1199 141.36C81.6599 144.62 79.3099 149.33 79.3999 154.14C79.4899 158.95 81.9099 162.69 84.6699 166.2C84.9699 166.58 85.4999 166.05 85.1999 165.67C82.5699 162.32 80.2399 158.52 80.1499 154.14C80.0599 149.52 82.3199 145.02 85.6499 141.89C85.9999 141.56 85.4699 141.03 85.1199 141.36Z" fill="black"/>
</g>
<g opacity="0.3">
<path d="M91.2008 144.04C90.0008 147.72 86.1208 149.86 82.3508 149.04C81.8808 148.94 81.6808 149.66 82.1508 149.76C86.3308 150.66 90.5908 148.32 91.9208 144.23C92.0708 143.77 91.3508 143.57 91.2008 144.03V144.04Z" fill="black"/>
</g>
<path d="M87.9303 178.47C88.4703 181.55 95.9503 213.5 96.8303 222.9C97.7203 232.3 87.2603 270.94 84.6003 273.41C81.9403 275.88 58.8703 260.48 59.6503 260.26C60.4303 260.04 72.5903 240.53 74.2703 232.14C75.9503 223.75 73.4603 190.89 73.1203 187.31C72.7903 183.73 78.3303 184.01 83.8303 181.71L86.6003 178.19L87.9203 178.48L87.9303 178.47Z" fill="#263238"/>
<path opacity="0.3" d="M69.9703 242.97L72.3503 257.32L69.9303 257.77C69.9303 257.77 73.7503 267.03 73.3603 269.31L67.9103 266.72L64.8303 252.97L69.9603 242.98L69.9703 242.97Z" fill="black"/>
<path d="M79.0003 183.59C75.8703 183.77 70.4703 185.65 69.4403 188.29C65.5503 198.22 57.8203 221.58 56.2003 227.21C55.1703 230.78 58.8803 257.82 58.8803 257.82L70.4003 256.12C70.4003 256.12 67.7403 230.22 68.5103 228.47C71.4103 221.94 82.3103 204.23 83.6403 198.32C84.9803 192.41 86.2403 186.96 82.9103 184.52C81.9103 183.79 80.1803 183.51 79.0003 183.58V183.59Z" fill="#263238"/>
<path d="M61.5903 257.43C61.9703 259.32 61.2103 261.25 60.9603 262.68C60.5603 264.97 62.2103 267.08 61.9303 268.06C61.1803 270.68 57.9103 274.71 59.2103 275.63C60.5103 276.55 63.4904 271.74 63.4904 271.74C63.4904 271.74 60.9503 277.27 62.1803 278.1C63.8903 279.25 64.1303 278.52 64.1303 278.52C64.1303 278.52 64.6504 279.68 65.8704 279.31C66.6204 279.08 68.8204 275.92 69.6604 271.02C69.6604 271.02 69.7703 272.62 69.7103 275.22C69.6903 276.26 68.9703 277.42 69.2503 278.65C69.6503 280.38 72.1703 277.65 72.4203 274.69C72.6703 271.74 71.0704 266.42 69.8704 262.68C69.7404 262.27 69.5603 261.78 69.3603 261.25L67.9303 256.47" fill="#FFB463"/>
<path d="M64.2403 278.62C65.1603 277.18 66.0703 275.72 66.5903 274.08C67.1903 272.17 67.2103 270.15 67.0703 268.17C67.0403 267.69 66.2903 267.69 66.3203 268.17C66.4603 270.08 66.4503 272.03 65.8703 273.88C65.3703 275.45 64.4803 276.86 63.6003 278.24C63.3403 278.65 63.9903 279.02 64.2503 278.62H64.2403Z" fill="#FF7800"/>
<path d="M63.7303 272C64.2103 270.5 64.9903 268.81 64.3103 267.25C64.2303 267.06 63.9603 267.02 63.8003 267.12C63.6103 267.23 63.5803 267.45 63.6703 267.63C63.9503 268.27 63.8603 269 63.6903 269.66C63.5003 270.38 63.2503 271.09 63.0203 271.8C62.8703 272.26 63.6003 272.46 63.7403 272H63.7303Z" fill="#FF7800"/>
<path d="M94.8001 212.54C92.8901 209.79 91.0101 207.02 89.1601 204.22C88.3001 202.91 86.9401 201.36 86.8401 199.73C86.7601 198.39 87.7301 197.25 87.7401 195.92C87.7601 193.65 85.3801 192.59 84.2601 190.91C82.3201 187.99 83.7501 184.48 84.8501 181.55C85.0201 181.1 84.2901 180.9 84.1301 181.35C83.1201 184.04 82.0001 186.88 82.9101 189.77C83.2701 190.92 83.9501 191.82 84.8001 192.66C85.9101 193.75 87.2901 194.79 86.9001 196.54C86.6201 197.8 85.9101 198.84 86.1401 200.19C86.3901 201.61 87.3401 202.83 88.1101 204C90.0801 207 92.0901 209.97 94.1401 212.92C94.4101 213.31 95.0601 212.94 94.7901 212.54H94.8001Z" fill="black"/>
<path d="M75.2406 217.14C77.5806 212.84 79.5406 208.35 81.1106 203.72C81.2706 203.26 80.5406 203.07 80.3906 203.52C78.8406 208.09 76.9006 212.52 74.5906 216.76C74.3606 217.18 75.0106 217.56 75.2406 217.14Z" fill="black"/>
<path d="M84.1506 248.22C80.9806 246.42 77.8206 244.61 74.6506 242.81C74.2306 242.57 73.8506 243.22 74.2706 243.46C77.4406 245.26 80.6006 247.07 83.7706 248.87C84.1906 249.11 84.5706 248.46 84.1506 248.22Z" fill="black"/>
<path d="M104.78 163.61C104.08 164.36 103.44 165.16 102.86 166C102.7 165.93 102.53 165.85 102.37 165.77C100.14 164.72 99.4503 163.51 99.3803 162.48C99.3503 161.98 99.4504 161.47 99.6604 161.01C99.7704 160.75 99.9203 160.5 100.1 160.28C100.95 161.54 102.95 162.67 104.04 163.24C104.52 163.46 104.79 163.61 104.79 163.61H104.78Z" fill="#263238"/>
<path d="M104.03 163.22L103.44 163.91C101.34 162.92 100 161.95 99.6503 160.99C99.7603 160.73 99.9103 160.48 100.09 160.26C100.94 161.53 102.94 162.65 104.03 163.22Z" fill="white"/>
<path d="M102.39 165.79C100.16 164.74 99.4703 163.53 99.4003 162.5C100.24 162.91 101 163.47 101.64 164.15C102.06 164.61 102.32 165.18 102.39 165.79Z" fill="#FF3F3E"/>
</g>
<defs>
<clipPath id="clip0_1_791">
<rect width="500" height="444.85" fill="white"/>
</clipPath>
</defs>
</svg>
