<svg width="317" height="328" viewBox="0 0 317 328" fill="none" xmlns="http://www.w3.org/2000/svg">
<g clip-path="url(#clip0_1_1947)">
<path d="M161.557 99.799C156.754 112.03 144.323 120.479 129.382 118.598C114.43 116.719 99.886 95.7314 104.741 79.563C109.596 63.3945 132.415 68.0168 145.281 73.2005C158.146 78.3842 166.371 87.5667 161.567 99.7877L161.557 99.799ZM113.222 78.7294C110.362 88.3134 119.677 102.463 129.542 105.562C139.396 108.662 148.927 105.87 151.24 96.6089C153.553 87.3479 148.248 81.2125 140.464 78.0566C132.69 74.8997 116.082 69.1455 113.222 78.7294Z" fill="#EFB7B7" fill-opacity="0.05"/>
<path d="M182.682 108.456C172.779 127.729 153.554 139.285 129.441 146.761C105.327 154.237 82.8906 117.695 90.6015 89.4532C98.3226 61.2103 135.418 57.8796 158.912 66.3685C182.407 74.8676 192.575 89.1837 182.682 108.456ZM97.1897 84.228C90.1306 106.203 109.529 136.98 129.143 133.053C148.757 129.126 165.152 120.657 172.554 104.241C179.957 87.8251 171.065 77.618 152.559 69.6515C134.052 61.6849 104.26 62.2628 97.1897 84.228Z" fill="#EFB7B7" fill-opacity="0.05"/>
<path d="M203.25 117.011C189.983 143.987 160.217 148.764 131.203 175.66C102.188 202.556 65.3749 136.431 76.3885 97.5246C87.3909 58.609 142.808 51.342 175.302 61.0428C207.796 70.7435 216.515 90.0246 203.25 117.011ZM83.2756 93.4635C73.0407 126.453 103.064 178.806 130.192 161.949C157.329 145.081 181.559 136.038 193.36 112.908C205.162 89.7881 195.622 72.7965 167.225 63.4867C138.839 54.1758 93.5105 60.4739 83.2654 93.4645L83.2756 93.4635Z" fill="#EFB7B7" fill-opacity="0.05"/>
<path d="M223.072 126.406C205.836 163.136 169.468 145.76 134.945 203.683C100.421 261.606 49.5338 160.077 62.2066 105.811C74.8897 51.5431 151.571 45.8539 192.851 55.9469C234.13 66.0398 240.307 89.6658 223.072 126.406ZM68.9609 102.509C56.7577 149.271 100.799 232.187 132.524 190.98C164.248 149.763 197.988 153.46 213.696 121.744C229.406 90.0391 221.499 68.6976 184.488 58.5326C147.477 48.3677 81.1744 55.7471 68.9712 102.508L68.9609 102.509Z" fill="#EFB7B7" fill-opacity="0.05"/>
<path d="M242.416 136.615C222.466 184.326 175.01 133.27 140.207 229.379C105.403 325.488 32.1799 183.673 47.4793 108.796C62.7787 33.9192 157.089 40.3488 208.501 48.8565C259.914 57.3643 262.356 88.9056 242.416 136.615ZM54.5179 108.424C40.4883 170.739 101.439 294.011 137.456 217.424C173.472 140.827 214.462 173.368 233.2 131.689C251.939 90.0101 247.401 61.4526 201.818 52.4621C156.235 43.4715 68.5578 46.1091 54.5282 108.423L54.5179 108.424Z" fill="#EFB7B7" fill-opacity="0.05"/>
<path d="M262.291 147.094C239.438 205.223 180.642 123.946 144.918 252.597C109.194 381.259 13.5744 205.658 31.1134 109.057C48.6533 12.4653 163.961 33.5813 222.789 38.4746C281.618 43.368 285.134 88.9565 262.28 147.085L262.291 147.094ZM39.1846 109.321C23.1837 196.125 108.151 357.103 142.985 241.3C177.818 125.496 230.811 195.716 252.567 142.353C274.323 88.989 271.769 50.331 216.721 44.2718C161.663 38.2136 55.1855 22.5175 39.1846 109.321Z" fill="#EFB7B7" fill-opacity="0.05"/>
<path d="M283.168 154.892C258.95 224.078 186.735 134.891 148.351 272.961C109.978 411.041 -4.30822 211.139 12.2079 105.807C28.7342 0.474749 163.425 8.79501 232.253 21.3705C301.081 33.946 307.396 85.7057 283.168 154.892ZM21.3843 108.413C5.46605 210.221 109.183 398.378 146.723 263.958C184.264 129.539 249.919 214.881 273.176 151.121C296.433 87.3611 292.412 39.2279 228.299 30.3239C164.175 21.421 37.3117 6.59342 21.3945 108.412L21.3843 108.413Z" fill="#EFB7B7" fill-opacity="0.05"/>
</g>
<defs>
<clipPath id="clip0_1_1947">
<rect width="288.964" height="301.438" fill="white" transform="translate(316.733 300.028) rotate(174.456)"/>
</clipPath>
</defs>
</svg>
